<?xml version="1.0" encoding="UTF-8"?>
<svg xmlns="http://www.w3.org/2000/svg" xmlns:xlink="http://www.w3.org/1999/xlink"
     width="320" height="300" viewBox="-160.0 -150.0 320 300">
<defs>
</defs>
<path d="M-160,30 L160,30" stroke-width="20" stroke="black" fill-opacity="0" />
<path d="M-160,-30 L-40,-30" stroke-width="20" stroke="black" fill-opacity="0" />
<path d="M-100,-50 L-100,-30" stroke-width="6" stroke="black" fill-opacity="0" />
<path d="M-60,-90 L110,80" stroke-width="6" stroke="black" fill-opacity="0" />
<path d="M0,50 L0,30" stroke-width="6" stroke="black" fill-opacity="0" />
<path d="M40,-30 L160,-30" stroke-width="20" stroke="black" fill-opacity="0" />
<path d="M100,-50 L100,-30" stroke-width="6" stroke="black" fill-opacity="0" />
<path d="M-30,-90 L-60,-90 L-60,-60" stroke-width="6" stroke="black" fill-opacity="0" />
<text x="-117" y="-83.33333333333334" font-size="23.333333333333332" fill="black" text-anchor="middle" dy="0.3em"></text>
<text x="-100" y="-27" font-size="35" text-anchor="middle" dy="0.3em"></text>
<path d="M-100,-150 L-100,-50" stroke="black" stroke-width="5" />
<text x="-17" y="83.33333333333334" font-size="23.333333333333332" fill="black" text-anchor="middle" dy="0.3em"></text>
<text x="0" y="27" font-size="35" text-anchor="middle" dy="0.3em"></text>
<path d="M0,150 L0,50" stroke="black" stroke-width="5" />
<text x="83" y="-83.33333333333334" font-size="23.333333333333332" fill="black" text-anchor="middle" dy="0.3em"></text>
<text x="100" y="-27" font-size="35" text-anchor="middle" dy="0.3em"></text>
<path d="M100,-150 L100,-50" stroke="black" stroke-width="5" />
<metadata width="320" height="300" symbolPrefix="C" cmpPartDmgLabel="1:A" nameOfSymbol="C-CTRIM_DIF-1-A_thumbnail"><p-1><x>-100</x><y>150</y><type>P
                        </type><name>~</name><orientation>D</orientation>
                        <length>100</length><pinShape></pinShape>
                        </p-1><p-2><x>0</x><y>-150</y><type>P
                        </type><name>~</name><orientation>U</orientation>
                        <length>100</length><pinShape></pinShape>
                        </p-2><p-3><x>100</x><y>150</y><type>P
                        </type><name>~</name><orientation>D</orientation>
                        <length>100</length><pinShape></pinShape>
                        </p-3></metadata></svg>