<?xml version="1.0" encoding="UTF-8"?>
<svg xmlns="http://www.w3.org/2000/svg" xmlns:xlink="http://www.w3.org/1999/xlink"
     width="620" height="600" viewBox="-310.0 -300.0 620 600">
<defs>
</defs>
<path d="M74.54166934118831,-149.99929442598787 A335,335,0,0,1,74.54166934118825,149.99929442598804" stroke="black" stroke-width="6" fill-opacity="0" />
<path d="M-125.45833065881169,-149.99929442598787 A335,335,0,0,1,-125.45833065881175,149.99929442598804" stroke="black" stroke-width="6" fill-opacity="0" />
<path d="M274.5416693411883,-149.99929442598787 A335,335,0,0,1,274.54166934118825,149.99929442598804" stroke="black" stroke-width="6" fill-opacity="0" />
<circle cx="0" cy="175" r="25" stroke-width="6" stroke="black" fill-opacity="0" />
<circle cx="0" cy="-175" r="25" stroke-width="6" stroke="black" fill-opacity="0" />
<circle cx="-200" cy="175" r="25" stroke-width="6" stroke="black" fill-opacity="0" />
<circle cx="-200" cy="-175" r="25" stroke-width="6" stroke="black" fill-opacity="0" />
<circle cx="200" cy="175" r="25" stroke-width="6" stroke="black" fill-opacity="0" />
<circle cx="200" cy="-175" r="25" stroke-width="6" stroke="black" fill-opacity="0" />
<path d="M-90,0 L-50,0" stroke-width="6" stroke="black" fill-opacity="0" />
<path d="M-30,0 L10,0" stroke-width="6" stroke="black" fill-opacity="0" />
<path d="M30,0 L70,0" stroke-width="6" stroke="black" fill-opacity="0" />
<path d="M90,0 L130,0" stroke-width="6" stroke="black" fill-opacity="0" />
<path d="M150,0 L190,0" stroke-width="6" stroke="black" fill-opacity="0" />
<path d="M210,0 L250,0" stroke-width="6" stroke="black" fill-opacity="0" />
<path d="M270,0 L310,0" stroke-width="6" stroke="black" fill-opacity="0" />
<text x="-217" y="-233.33333333333334" font-size="23.333333333333332" fill="black" text-anchor="middle" dy="0.3em"></text>
<text x="-200" y="-167" font-size="35" text-anchor="middle" dy="0.3em"></text>
<path d="M-200,-300 L-200,-200" stroke="black" stroke-width="5" />
<text x="-217" y="233.33333333333334" font-size="23.333333333333332" fill="black" text-anchor="middle" dy="0.3em"></text>
<text x="-200" y="167" font-size="35" text-anchor="middle" dy="0.3em"></text>
<path d="M-200,300 L-200,200" stroke="black" stroke-width="5" />
<text x="-17" y="-233.33333333333334" font-size="23.333333333333332" fill="black" text-anchor="middle" dy="0.3em"></text>
<text x="0" y="-167" font-size="35" text-anchor="middle" dy="0.3em"></text>
<path d="M0,-300 L0,-200" stroke="black" stroke-width="5" />
<text x="-17" y="233.33333333333334" font-size="23.333333333333332" fill="black" text-anchor="middle" dy="0.3em"></text>
<text x="0" y="167" font-size="35" text-anchor="middle" dy="0.3em"></text>
<path d="M0,300 L0,200" stroke="black" stroke-width="5" />
<text x="183" y="-233.33333333333334" font-size="23.333333333333332" fill="black" text-anchor="middle" dy="0.3em"></text>
<text x="200" y="-167" font-size="35" text-anchor="middle" dy="0.3em"></text>
<path d="M200,-300 L200,-200" stroke="black" stroke-width="5" />
<text x="183" y="233.33333333333334" font-size="23.333333333333332" fill="black" text-anchor="middle" dy="0.3em"></text>
<text x="200" y="167" font-size="35" text-anchor="middle" dy="0.3em"></text>
<path d="M200,300 L200,200" stroke="black" stroke-width="5" />
<metadata width="620" height="600" symbolPrefix="CB" cmpPartDmgLabel="1:A" nameOfSymbol="CB-CircuitBreaker_3P_US-1-A_thumbnail"><p-1><x>-200</x><y>300</y><type>P
                        </type><name>~</name><orientation>D</orientation>
                        <length>100</length><pinShape></pinShape>
                        </p-1><p-2><x>-200</x><y>-300</y><type>P
                        </type><name>~</name><orientation>U</orientation>
                        <length>100</length><pinShape></pinShape>
                        </p-2><p-3><x>0</x><y>300</y><type>P
                        </type><name>~</name><orientation>D</orientation>
                        <length>100</length><pinShape></pinShape>
                        </p-3><p-4><x>0</x><y>-300</y><type>P
                        </type><name>~</name><orientation>U</orientation>
                        <length>100</length><pinShape></pinShape>
                        </p-4><p-5><x>200</x><y>300</y><type>P
                        </type><name>~</name><orientation>D</orientation>
                        <length>100</length><pinShape></pinShape>
                        </p-5><p-6><x>200</x><y>-300</y><type>P
                        </type><name>~</name><orientation>U</orientation>
                        <length>100</length><pinShape></pinShape>
                        </p-6></metadata></svg>