<?xml version="1.0" encoding="UTF-8"?>
<svg xmlns="http://www.w3.org/2000/svg" xmlns:xlink="http://www.w3.org/1999/xlink"
     width="600" height="600" viewBox="-300.0 -300.0 600 600">
<defs>
</defs>
<path d="M-250,0 L-190,0" stroke-width="6" stroke="black" fill-opacity="0" />
<path d="M-225,-175 L-175,-125" stroke-width="6" stroke="black" fill-opacity="0" />
<path d="M-200,200 L-200,150" stroke-width="6" stroke="black" fill-opacity="0" />
<path d="M-200,150 L-300,-150" stroke-width="6" stroke="black" fill-opacity="0" />
<path d="M-200,-200 L-200,-150" stroke-width="6" stroke="black" fill-opacity="0" />
<path d="M-175,-175 L-225,-125" stroke-width="6" stroke="black" fill-opacity="0" />
<path d="M-90,0 L-20,0" stroke-width="6" stroke="black" fill-opacity="0" />
<path d="M0,200 L0,150" stroke-width="6" stroke="black" fill-opacity="0" />
<path d="M0,150 L-100,-150" stroke-width="6" stroke="black" fill-opacity="0" />
<path d="M0,0 L60,0" stroke-width="6" stroke="black" fill-opacity="0" />
<path d="M0,-200 L0,-150" stroke-width="6" stroke="black" fill-opacity="0" />
<path d="M25,-175 L-25,-125" stroke-width="6" stroke="black" fill-opacity="0" />
<path d="M80,0 L150,0" stroke-width="6" stroke="black" fill-opacity="0" />
<path d="M175,-175 L225,-125" stroke-width="6" stroke="black" fill-opacity="0" />
<path d="M200,200 L200,150" stroke-width="6" stroke="black" fill-opacity="0" />
<path d="M200,150 L100,-150" stroke-width="6" stroke="black" fill-opacity="0" />
<path d="M200,-200 L200,-150" stroke-width="6" stroke="black" fill-opacity="0" />
<path d="M225,-175 L175,-125" stroke-width="6" stroke="black" fill-opacity="0" />
<path d="M-170,0 L-110,0 L-120,0" stroke-width="6" stroke="black" fill-opacity="0" />
<path d="M-25,-175 L0,-150 L25,-125" stroke-width="6" stroke="black" fill-opacity="0" />
<text x="-217" y="-233.33333333333334" font-size="23.333333333333332" fill="black" text-anchor="middle" dy="0.3em"></text>
<text x="-200" y="-167" font-size="35" text-anchor="middle" dy="0.3em"></text>
<path d="M-200,-300 L-200,-200" stroke="black" stroke-width="5" />
<text x="-217" y="233.33333333333334" font-size="23.333333333333332" fill="black" text-anchor="middle" dy="0.3em"></text>
<text x="-200" y="167" font-size="35" text-anchor="middle" dy="0.3em"></text>
<path d="M-200,300 L-200,200" stroke="black" stroke-width="5" />
<text x="-17" y="-233.33333333333334" font-size="23.333333333333332" fill="black" text-anchor="middle" dy="0.3em"></text>
<text x="0" y="-167" font-size="35" text-anchor="middle" dy="0.3em"></text>
<path d="M0,-300 L0,-200" stroke="black" stroke-width="5" />
<text x="-17" y="233.33333333333334" font-size="23.333333333333332" fill="black" text-anchor="middle" dy="0.3em"></text>
<text x="0" y="167" font-size="35" text-anchor="middle" dy="0.3em"></text>
<path d="M0,300 L0,200" stroke="black" stroke-width="5" />
<text x="183" y="-233.33333333333334" font-size="23.333333333333332" fill="black" text-anchor="middle" dy="0.3em"></text>
<text x="200" y="-167" font-size="35" text-anchor="middle" dy="0.3em"></text>
<path d="M200,-300 L200,-200" stroke="black" stroke-width="5" />
<text x="183" y="233.33333333333334" font-size="23.333333333333332" fill="black" text-anchor="middle" dy="0.3em"></text>
<text x="200" y="167" font-size="35" text-anchor="middle" dy="0.3em"></text>
<path d="M200,300 L200,200" stroke="black" stroke-width="5" />
<metadata width="600" height="600" symbolPrefix="CB" cmpPartDmgLabel="1:A" nameOfSymbol="CB-CircuitBreaker_3P-1-A"><p-1><x>-200</x><y>300</y><type>P
                        </type><name>~</name><orientation>D</orientation>
                        <length>100</length><pinShape></pinShape>
                        </p-1><p-2><x>-200</x><y>-300</y><type>P
                        </type><name>~</name><orientation>U</orientation>
                        <length>100</length><pinShape></pinShape>
                        </p-2><p-3><x>0</x><y>300</y><type>P
                        </type><name>~</name><orientation>D</orientation>
                        <length>100</length><pinShape></pinShape>
                        </p-3><p-4><x>0</x><y>-300</y><type>P
                        </type><name>~</name><orientation>U</orientation>
                        <length>100</length><pinShape></pinShape>
                        </p-4><p-5><x>200</x><y>300</y><type>P
                        </type><name>~</name><orientation>D</orientation>
                        <length>100</length><pinShape></pinShape>
                        </p-5><p-6><x>200</x><y>-300</y><type>P
                        </type><name>~</name><orientation>U</orientation>
                        <length>100</length><pinShape></pinShape>
                        </p-6></metadata></svg>