<?xml version="1.0" encoding="UTF-8"?>
<svg xmlns="http://www.w3.org/2000/svg" xmlns:xlink="http://www.w3.org/1999/xlink"
     width="420" height="600" viewBox="-210.0 -300.0 420 600">
<defs>
</defs>
<path d="M-25.45833065881169,-149.99929442598787 A335,335,0,0,1,-25.458330658811747,149.99929442598804" stroke="black" stroke-width="6" fill-opacity="0" />
<path d="M174.5416693411883,-149.99929442598787 A335,335,0,0,1,174.54166934118825,149.99929442598804" stroke="black" stroke-width="6" fill-opacity="0" />
<circle cx="-100" cy="175" r="25" stroke-width="6" stroke="black" fill-opacity="0" />
<circle cx="-100" cy="-175" r="25" stroke-width="6" stroke="black" fill-opacity="0" />
<circle cx="100" cy="175" r="25" stroke-width="6" stroke="black" fill-opacity="0" />
<circle cx="100" cy="-175" r="25" stroke-width="6" stroke="black" fill-opacity="0" />
<path d="M10,0 L10,0" stroke-width="6" stroke="black" fill-opacity="0" />
<path d="M10,0 L50,0" stroke-width="6" stroke="black" fill-opacity="0" />
<path d="M70,0 L110,0" stroke-width="6" stroke="black" fill-opacity="0" />
<path d="M130,0 L170,0" stroke-width="6" stroke="black" fill-opacity="0" />
<path d="M190,0 L210,0" stroke-width="6" stroke="black" fill-opacity="0" />
<text x="-117" y="-233.33333333333334" font-size="23.333333333333332" fill="black" text-anchor="middle" dy="0.3em"></text>
<text x="-100" y="-167" font-size="35" text-anchor="middle" dy="0.3em"></text>
<path d="M-100,-300 L-100,-200" stroke="black" stroke-width="5" />
<text x="-117" y="233.33333333333334" font-size="23.333333333333332" fill="black" text-anchor="middle" dy="0.3em"></text>
<text x="-100" y="167" font-size="35" text-anchor="middle" dy="0.3em"></text>
<path d="M-100,300 L-100,200" stroke="black" stroke-width="5" />
<text x="83" y="-233.33333333333334" font-size="23.333333333333332" fill="black" text-anchor="middle" dy="0.3em"></text>
<text x="100" y="-167" font-size="35" text-anchor="middle" dy="0.3em"></text>
<path d="M100,-300 L100,-200" stroke="black" stroke-width="5" />
<text x="83" y="233.33333333333334" font-size="23.333333333333332" fill="black" text-anchor="middle" dy="0.3em"></text>
<text x="100" y="167" font-size="35" text-anchor="middle" dy="0.3em"></text>
<path d="M100,300 L100,200" stroke="black" stroke-width="5" />
<metadata width="420" height="600" symbolPrefix="CB" cmpPartDmgLabel="1:A" nameOfSymbol="CB-CircuitBreaker_2P_US-1-A_thumbnail"><p-1><x>-100</x><y>300</y><type>P
                        </type><name>~</name><orientation>D</orientation>
                        <length>100</length><pinShape></pinShape>
                        </p-1><p-2><x>-100</x><y>-300</y><type>P
                        </type><name>~</name><orientation>U</orientation>
                        <length>100</length><pinShape></pinShape>
                        </p-2><p-3><x>100</x><y>300</y><type>P
                        </type><name>~</name><orientation>D</orientation>
                        <length>100</length><pinShape></pinShape>
                        </p-3><p-4><x>100</x><y>-300</y><type>P
                        </type><name>~</name><orientation>U</orientation>
                        <length>100</length><pinShape></pinShape>
                        </p-4></metadata></svg>