<?xml version="1.0" encoding="UTF-8"?>
<svg xmlns="http://www.w3.org/2000/svg" xmlns:xlink="http://www.w3.org/1999/xlink"
     width="600" height="600" viewBox="-300.0 -300.0 600 600">
<defs>
</defs>
<circle cx="-200" cy="0" r="10" stroke-width="6" stroke="black" fill="black" />
<circle cx="0" cy="200" r="10" stroke-width="6" stroke="black" fill="black" />
<circle cx="0" cy="-200" r="10" stroke-width="6" stroke="black" fill="black" />
<circle cx="200" cy="0" r="10" stroke-width="6" stroke="black" fill="black" />
<path d="M-100,-150 L-50,-100" stroke-width="10" stroke="black" fill-opacity="0" />
<path d="M-50,100 L-100,150" stroke-width="10" stroke="black" fill-opacity="0" />
<path d="M100,50 L150,100" stroke-width="10" stroke="black" fill-opacity="0" />
<path d="M100,-50 L150,-100" stroke-width="10" stroke="black" fill-opacity="0" />
<path d="M-150,-100 L-100,-50 L-75,-125 L-150,-100" stroke-width="10" stroke="black" fill-opacity="0" />
<path d="M-100,50 L-150,100 L-75,125 L-100,50" stroke-width="10" stroke="black" fill-opacity="0" />
<path d="M50,-100 L100,-150 L125,-75 L50,-100" stroke-width="10" stroke="black" fill-opacity="0" />
<path d="M125,75 L50,100 L100,150 L125,75" stroke-width="10" stroke="black" fill-opacity="0" />
<path d="M-200,0 L0,200 L200,0 L0,-200 L-200,0" stroke-width="6" stroke="black" fill-opacity="0" />
<text x="250.0" y="-17" font-size="23.333333333333332" fill="black" text-anchor="middle" dy="0.3em"></text>
<text x="187" y="0" font-size="35" text-anchor="middle" dy="0.3em"></text>
<path d="M300,0 L200,0" stroke="black" stroke-width="5" />
<text x="-17" y="-233.33333333333334" font-size="23.333333333333332" fill="black" text-anchor="middle" dy="0.3em"></text>
<text x="0" y="-174" font-size="35" text-anchor="middle" dy="0.3em"></text>
<path d="M0,-300 L0,-200" stroke="black" stroke-width="5" />
<text x="-17" y="233.33333333333334" font-size="23.333333333333332" fill="black" text-anchor="middle" dy="0.3em"></text>
<text x="0" y="174" font-size="35" text-anchor="middle" dy="0.3em"></text>
<path d="M0,300 L0,200" stroke="black" stroke-width="5" />
<text x="-250.0" y="-17" font-size="23.333333333333332" fill="black" text-anchor="middle" dy="0.3em"></text>
<text x="-187" y="0" font-size="35" text-anchor="middle" dy="0.3em"></text>
<path d="M-300,0 L-200,0" stroke="black" stroke-width="5" />
<metadata width="600" height="600" symbolPrefix="D" cmpPartDmgLabel="1:A" nameOfSymbol="D-D_Bridge_+AA--1-A"><p-1><x>300</x><y>0</y><type>P
                        </type><name>+</name><orientation>L</orientation>
                        <length>100</length><pinShape></pinShape>
                        </p-1><p-2><x>0</x><y>300</y><type>P
                        </type><name>~~</name><orientation>D</orientation>
                        <length>100</length><pinShape></pinShape>
                        </p-2><p-3><x>0</x><y>-300</y><type>P
                        </type><name>~~</name><orientation>U</orientation>
                        <length>100</length><pinShape></pinShape>
                        </p-3><p-4><x>-300</x><y>0</y><type>P
                        </type><name>-</name><orientation>R</orientation>
                        <length>100</length><pinShape></pinShape>
                        </p-4></metadata></svg>