<?xml version="1.0" encoding="UTF-8"?>
<svg xmlns="http://www.w3.org/2000/svg" xmlns:xlink="http://www.w3.org/1999/xlink"
     width="300" height="400" viewBox="-150.0 -200.0 300 400">
<defs>
</defs>
<path d="M-50,50 L-50,-50" stroke-width="10" stroke="black" fill-opacity="0" />
<path d="M-50,0 L50,0" stroke-width="6" stroke="black" fill-opacity="0" />
<path d="M0,100 L0,80" stroke-width="6" stroke="black" fill-opacity="0" />
<path d="M-80,20 L-80,80 L80,80 L80,20" stroke-width="6" stroke="black" fill-opacity="0" />
<path d="M50,50 L50,-50 L-50,0 L50,50" stroke-width="10" stroke="black" fill-opacity="0" />
<path d="M-35,-55 L25,-115 L-5,-115 L25,-115 L25,-85" stroke-width="6" stroke="black" fill-opacity="0" />
<path d="M15,-55 L75,-115 L45,-115 L75,-115 L75,-85" stroke-width="6" stroke="black" fill-opacity="0" />
<text x="-100.0" y="-17" font-size="23.333333333333332" fill="black" text-anchor="middle" dy="0.3em"></text>
<text x="3" y="0" font-size="35" text-anchor="middle" dy="0.3em"></text>
<path d="M-150,0 L-50,0" stroke="black" stroke-width="5" />
<text x="100.0" y="-17" font-size="23.333333333333332" fill="black" text-anchor="middle" dy="0.3em"></text>
<text x="-3" y="0" font-size="35" text-anchor="middle" dy="0.3em"></text>
<path d="M150,0 L50,0" stroke="black" stroke-width="5" />
<text x="-17" y="133.33333333333334" font-size="23.333333333333332" fill="black" text-anchor="middle" dy="0.3em"></text>
<text x="0" y="21" font-size="35" text-anchor="middle" dy="0.3em"></text>
<path d="M0,200 L0,100" stroke="black" stroke-width="5" />
<metadata width="300" height="400" symbolPrefix="D" cmpPartDmgLabel="1:A" nameOfSymbol="D-LED_PAD-1-A"><p-1><x>-150</x><y>0</y><type>P
                        </type><name>K</name><orientation>R</orientation>
                        <length>100</length><pinShape></pinShape>
                        </p-1><p-2><x>150</x><y>0</y><type>P
                        </type><name>A</name><orientation>L</orientation>
                        <length>100</length><pinShape></pinShape>
                        </p-2><p-3><x>0</x><y>-200</y><type>P
                        </type><name>PAD</name><orientation>U</orientation>
                        <length>100</length><pinShape></pinShape>
                        </p-3></metadata></svg>