<?xml version="1.0" encoding="UTF-8"?>
<svg xmlns="http://www.w3.org/2000/svg" xmlns:xlink="http://www.w3.org/1999/xlink"
     width="600" height="520" viewBox="-300.0 -260.0 600 520">
<defs>
</defs>
<circle cx="-100" cy="0" r="11" stroke-width="6" stroke="black" fill="black" />
<circle cx="0" cy="0" r="180" stroke-width="10" stroke="black" fill-opacity="0" />
<path d="M-180,0 L-100,0" stroke-width="6" stroke="black" fill-opacity="0" />
<path d="M50,50 L50,150" stroke-width="10" stroke="black" fill-opacity="0" />
<path d="M50,-150 L50,-50" stroke-width="10" stroke="black" fill-opacity="0" />
<path d="M150,100 L75,100" stroke-width="6" stroke="black" fill-opacity="0" />
<path d="M150,-100 L75,-100" stroke-width="6" stroke="black" fill-opacity="0" />
<path d="M-50,50 L-50,150 L50,100 L-50,50" stroke-width="10" stroke="black" fill-opacity="0" />
<path d="M-50,-150 L-50,-50 L50,-100 L-50,-150" stroke-width="10" stroke="black" fill-opacity="0" />
<path d="M80,-100 L-100,-100 L-100,100 L80,100" stroke-width="6" stroke="black" fill-opacity="0" />
<path d="M80,-200 L140,-260 L110,-260 L140,-260 L140,-230" stroke-width="6" stroke="black" fill-opacity="0" />
<path d="M130,-160 L190,-220 L160,-220 L190,-220 L190,-190" stroke-width="6" stroke="black" fill-opacity="0" />
<text x="225.0" y="-117" font-size="23.333333333333332" fill="black" text-anchor="middle" dy="0.3em"></text>
<text x="124" y="-100" font-size="35" text-anchor="middle" dy="0.3em"></text>
<path d="M300,-100 L150,-100" stroke="black" stroke-width="5" />
<text x="-240.0" y="-17" font-size="23.333333333333332" fill="black" text-anchor="middle" dy="0.3em"></text>
<text x="-167" y="0" font-size="35" text-anchor="middle" dy="0.3em"></text>
<path d="M-300,0 L-180,0" stroke="black" stroke-width="5" />
<text x="225.0" y="83" font-size="23.333333333333332" fill="black" text-anchor="middle" dy="0.3em"></text>
<text x="124" y="100" font-size="35" text-anchor="middle" dy="0.3em"></text>
<path d="M300,100 L150,100" stroke="black" stroke-width="5" />
<metadata width="600" height="520" symbolPrefix="D" cmpPartDmgLabel="1:A" nameOfSymbol="D-LED_Dual_CAC-1-A"><p-1><x>300</x><y>100</y><type>I
                        </type><name>K1</name><orientation>L</orientation>
                        <length>150</length><pinShape></pinShape>
                        </p-1><p-2><x>-300</x><y>0</y><type>I
                        </type><name>A</name><orientation>R</orientation>
                        <length>120</length><pinShape></pinShape>
                        </p-2><p-3><x>300</x><y>-100</y><type>I
                        </type><name>K2</name><orientation>L</orientation>
                        <length>150</length><pinShape></pinShape>
                        </p-3></metadata></svg>