<?xml version="1.0" encoding="UTF-8"?>
<svg xmlns="http://www.w3.org/2000/svg" xmlns:xlink="http://www.w3.org/1999/xlink"
     width="600" height="300" viewBox="-300.0 -150.0 600 300">
<defs>
</defs>
<path d="M-60.00003046173425,-100.03490656731796 A20,20,0,0,0,-99.99996953826576,-100.03490656731796" stroke="black" stroke-width="6" fill-opacity="0" />
<path d="M-20.000030461734248,-100.03490656731796 A20,20,0,0,0,-59.99996953826575,-100.03490656731796" stroke="black" stroke-width="6" fill-opacity="0" />
<path d="M19.999969538265752,-100.03490656731796 A20,20,0,0,0,-19.999969538265752,-100.03490656731796" stroke="black" stroke-width="6" fill-opacity="0" />
<path d="M59.99996953826575,-100.03490656731796 A20,20,0,0,0,20.000030461734248,-100.03490656731796" stroke="black" stroke-width="6" fill-opacity="0" />
<path d="M99.99996953826576,-100.03490656731796 A20,20,0,0,0,60.00003046173425,-100.03490656731796" stroke="black" stroke-width="6" fill-opacity="0" />
<circle cx="-160" cy="-100" r="10" stroke-width="6" stroke="black" fill="black" />
<circle cx="0" cy="0" r="10" stroke-width="6" stroke="black" fill="black" />
<circle cx="150" cy="-100" r="10" stroke-width="6" stroke="black" fill="black" />
<path d="M-225,-150 L220,-150 L220,25 L-225,25 L-225,-150" stroke-width="10" stroke="black" fill-opacity="0" />
<path d="M-200,-30 L-120,-30 L-120,-40 L-200,-40 L-200,-30" stroke-width="6" stroke="black" fill="black" />
<path d="M-120,-60 L-200,-60 L-200,-70 L-120,-70 L-120,-60" stroke-width="6" stroke="black" fill="black" />
<path d="M110,-30 L190,-30 L190,-40 L110,-40 L110,-30" stroke-width="6" stroke="black" fill="black" />
<path d="M190,-60 L110,-60 L110,-70 L190,-70 L190,-60" stroke-width="6" stroke="black" fill="black" />
<path d="M-200,-100 L-100,-100" stroke-width="6" stroke="black" fill-opacity="0" />
<path d="M-160,-100 L-160,-70" stroke-width="6" stroke="black" fill-opacity="0" />
<path d="M100,-100 L200,-100" stroke-width="6" stroke="black" fill-opacity="0" />
<path d="M150,-100 L150,-70" stroke-width="6" stroke="black" fill-opacity="0" />
<path d="M-160,-30 L-160,0 L150,0 L150,-30" stroke-width="6" stroke="black" fill-opacity="0" />
<text x="-250.0" y="-117" font-size="23.333333333333332" fill="black" text-anchor="middle" dy="0.3em"></text>
<text x="-177" y="-100" font-size="35" text-anchor="middle" dy="0.3em"></text>
<path d="M-300,-100 L-200,-100" stroke="black" stroke-width="5" />
<text x="-17" y="33.333333333333336" font-size="23.333333333333332" fill="black" text-anchor="middle" dy="0.3em"></text>
<text x="0" y="-23" font-size="35" text-anchor="middle" dy="0.3em"></text>
<path d="M0,100 L0,0" stroke="black" stroke-width="5" />
<text x="250.0" y="-117" font-size="23.333333333333332" fill="black" text-anchor="middle" dy="0.3em"></text>
<text x="177" y="-100" font-size="35" text-anchor="middle" dy="0.3em"></text>
<path d="M300,-100 L200,-100" stroke="black" stroke-width="5" />
<metadata width="600" height="300" symbolPrefix="FL" cmpPartDmgLabel="1:A" nameOfSymbol="FL-EMI_Filter_CLC-1-A_thumbnail"><p-1><x>-300</x><y>100</y><type>P
                        </type><name>1</name><orientation>R</orientation>
                        <length>100</length><pinShape></pinShape>
                        </p-1><p-2><x>0</x><y>-100</y><type>P
                        </type><name>2</name><orientation>U</orientation>
                        <length>100</length><pinShape></pinShape>
                        </p-2><p-3><x>300</x><y>100</y><type>P
                        </type><name>3</name><orientation>L</orientation>
                        <length>100</length><pinShape></pinShape>
                        </p-3></metadata></svg>