<?xml version="1.0" encoding="UTF-8"?>
<svg xmlns="http://www.w3.org/2000/svg" xmlns:xlink="http://www.w3.org/1999/xlink"
     width="400" height="600" viewBox="-200.0 -300.0 400 600">
<defs>
</defs>
<path d="M49.999923845664384,149.91273358170508 A50,50,0,0,0,0.08726641829491308,100.00007615433562" stroke="black" stroke-width="6" fill-opacity="0" />
<path d="M0.08726641829494523,199.9999238456644 A50,50,0,0,0,49.999923845664384,150.08726641829492" stroke="black" stroke-width="6" fill-opacity="0" />
<path d="M49.999923845664384,49.91273358170508 A50,50,0,0,0,0.08726641829491308,7.615433561625196e-05" stroke="black" stroke-width="6" fill-opacity="0" />
<path d="M0.08726641829494523,99.99992384566438 A50,50,0,0,0,49.999923845664384,50.087266418294924" stroke="black" stroke-width="6" fill-opacity="0" />
<path d="M49.999923845664384,-50.08726641829492 A50,50,0,0,0,0.08726641829491308,-99.99992384566438" stroke="black" stroke-width="6" fill-opacity="0" />
<path d="M0.08726641829494523,-7.615433561625196e-05 A50,50,0,0,0,49.999923845664384,-49.912733581705076" stroke="black" stroke-width="6" fill-opacity="0" />
<path d="M49.999923845664384,-150.08726641829492 A50,50,0,0,0,0.08726641829491308,-199.9999238456644" stroke="black" stroke-width="6" fill-opacity="0" />
<path d="M0.08726641829494523,-100.00007615433562 A50,50,0,0,0,49.999923845664384,-149.91273358170508" stroke="black" stroke-width="6" fill-opacity="0" />
<path d="M-100,-200 L-100,200" stroke-width="6" stroke="black" fill-opacity="0" />
<text x="-17" y="-233.33333333333334" font-size="23.333333333333332" fill="black" text-anchor="middle" dy="0.3em"></text>
<text x="0" y="-147" font-size="35" text-anchor="middle" dy="0.3em"></text>
<path d="M0,-300 L0,-200" stroke="black" stroke-width="5" />
<text x="-17" y="233.33333333333334" font-size="23.333333333333332" fill="black" text-anchor="middle" dy="0.3em"></text>
<text x="0" y="147" font-size="35" text-anchor="middle" dy="0.3em"></text>
<path d="M0,300 L0,200" stroke="black" stroke-width="5" />
<text x="-150.0" y="-17" font-size="23.333333333333332" fill="black" text-anchor="middle" dy="0.3em"></text>
<text x="18" y="0" font-size="35" text-anchor="middle" dy="0.3em"></text>
<path d="M-200,0 L-100,0" stroke="black" stroke-width="5" />
<metadata width="400" height="600" symbolPrefix="L" cmpPartDmgLabel="1:A" nameOfSymbol="L-Delay_Line-1-A_thumbnail"><p-1><x>0</x><y>300</y><type>P
                        </type><name>1</name><orientation>D</orientation>
                        <length>100</length><pinShape></pinShape>
                        </p-1><p-2><x>0</x><y>-300</y><type>P
                        </type><name>2</name><orientation>U</orientation>
                        <length>100</length><pinShape></pinShape>
                        </p-2><p-3><x>-200</x><y>0</y><type>I
                        </type><name>COMMUN</name><orientation>R</orientation>
                        <length>100</length><pinShape></pinShape>
                        </p-3></metadata></svg>