<?xml version="1.0" encoding="UTF-8"?>
<svg xmlns="http://www.w3.org/2000/svg" xmlns:xlink="http://www.w3.org/1999/xlink"
     width="120" height="300" viewBox="-60.0 -150.0 120 300">
<defs>
</defs>
<path d="M0.04363320914745654,50.00003807716781 A25,25,0,0,1,0.04363320914747262,99.9999619228322" stroke="black" stroke-width="6" fill-opacity="0" />
<path d="M0.04363320914745654,3.807716780812598e-05 A25,25,0,0,1,0.04363320914747262,49.99996192283219" stroke="black" stroke-width="6" fill-opacity="0" />
<path d="M0.04363320914745654,-49.99996192283219 A25,25,0,0,1,0.04363320914747262,-3.807716780812598e-05" stroke="black" stroke-width="6" fill-opacity="0" />
<path d="M0.04363320914745654,-99.9999619228322 A25,25,0,0,1,0.04363320914747262,-50.00003807716781" stroke="black" stroke-width="6" fill-opacity="0" />
<path d="M40,110 L40,90" stroke-width="6" stroke="black" fill-opacity="0" />
<path d="M40,70 L40,50" stroke-width="6" stroke="black" fill-opacity="0" />
<path d="M40,30 L40,10" stroke-width="6" stroke="black" fill-opacity="0" />
<path d="M40,-10 L40,-30" stroke-width="6" stroke="black" fill-opacity="0" />
<path d="M40,-50 L40,-70" stroke-width="6" stroke="black" fill-opacity="0" />
<path d="M40,-90 L40,-110" stroke-width="6" stroke="black" fill-opacity="0" />
<path d="M60,90 L60,110" stroke-width="6" stroke="black" fill-opacity="0" />
<path d="M60,50 L60,70" stroke-width="6" stroke="black" fill-opacity="0" />
<path d="M60,10 L60,30" stroke-width="6" stroke="black" fill-opacity="0" />
<path d="M60,-30 L60,-10" stroke-width="6" stroke="black" fill-opacity="0" />
<path d="M60,-70 L60,-50" stroke-width="6" stroke="black" fill-opacity="0" />
<path d="M60,-110 L60,-90" stroke-width="6" stroke="black" fill-opacity="0" />
<text x="-17" y="-116.66666666666667" font-size="23.333333333333332" fill="black" text-anchor="middle" dy="0.3em"></text>
<text x="0" y="-47" font-size="35" text-anchor="middle" dy="0.3em"></text>
<path d="M0,-150 L0,-100" stroke="black" stroke-width="5" />
<text x="-17" y="116.66666666666667" font-size="23.333333333333332" fill="black" text-anchor="middle" dy="0.3em"></text>
<text x="0" y="47" font-size="35" text-anchor="middle" dy="0.3em"></text>
<path d="M0,150 L0,100" stroke="black" stroke-width="5" />
<metadata width="120" height="300" symbolPrefix="L" cmpPartDmgLabel="1:A" nameOfSymbol="L-L_Core_Ferrite-1-A_thumbnail"><p-1><x>0</x><y>150</y><type>P
                        </type><name>1</name><orientation>D</orientation>
                        <length>50</length><pinShape></pinShape>
                        </p-1><p-2><x>0</x><y>-150</y><type>P
                        </type><name>2</name><orientation>U</orientation>
                        <length>50</length><pinShape></pinShape>
                        </p-2></metadata></svg>