<?xml version="1.0" encoding="UTF-8"?>
<svg xmlns="http://www.w3.org/2000/svg" xmlns:xlink="http://www.w3.org/1999/xlink"
     width="400" height="200" viewBox="-200.0 -100.0 400 200">
<defs>
</defs>
<path d="M-60.00003046173425,79.96509343268204 A20,20,0,0,0,-99.99996953826576,79.96509343268204" stroke="black" stroke-width="6" fill-opacity="0" />
<path d="M-99.99996953826576,-79.96509343268204 A20,20,0,0,0,-60.00003046173425,-79.96509343268202" stroke="black" stroke-width="6" fill-opacity="0" />
<path d="M-20.000030461734248,79.96509343268204 A20,20,0,0,0,-59.99996953826575,79.96509343268204" stroke="black" stroke-width="6" fill-opacity="0" />
<path d="M-59.99996953826575,-79.96509343268204 A20,20,0,0,0,-20.000030461734248,-79.96509343268202" stroke="black" stroke-width="6" fill-opacity="0" />
<path d="M19.999969538265752,79.96509343268204 A20,20,0,0,0,-19.999969538265752,79.96509343268204" stroke="black" stroke-width="6" fill-opacity="0" />
<path d="M-19.999969538265752,-79.96509343268204 A20,20,0,0,0,19.999969538265752,-79.96509343268202" stroke="black" stroke-width="6" fill-opacity="0" />
<path d="M59.99996953826575,79.96509343268204 A20,20,0,0,0,20.000030461734248,79.96509343268204" stroke="black" stroke-width="6" fill-opacity="0" />
<path d="M20.000030461734248,-79.96509343268204 A20,20,0,0,0,59.99996953826575,-79.96509343268202" stroke="black" stroke-width="6" fill-opacity="0" />
<path d="M99.99996953826576,79.96509343268204 A20,20,0,0,0,60.00003046173425,79.96509343268204" stroke="black" stroke-width="6" fill-opacity="0" />
<path d="M60.00003046173425,-79.96509343268204 A20,20,0,0,0,99.99996953826576,-79.96509343268202" stroke="black" stroke-width="6" fill-opacity="0" />
<circle cx="-120" cy="50" r="10" stroke-width="6" stroke="black" fill="black" />
<circle cx="-120" cy="-60" r="10" stroke-width="6" stroke="black" fill="black" />
<path d="M-100,80 L-100,100" stroke-width="6" stroke="black" fill-opacity="0" />
<path d="M-100,-80 L-100,-100" stroke-width="6" stroke="black" fill-opacity="0" />
<path d="M100,80 L100,100" stroke-width="6" stroke="black" fill-opacity="0" />
<path d="M100,-100 L100,-80" stroke-width="6" stroke="black" fill-opacity="0" />
<text x="-150.0" y="-117" font-size="23.333333333333332" fill="black" text-anchor="middle" dy="0.3em"></text>
<text x="-77" y="-100" font-size="35" text-anchor="middle" dy="0.3em"></text>
<path d="M-200,-100 L-100,-100" stroke="black" stroke-width="5" />
<text x="150.0" y="-117" font-size="23.333333333333332" fill="black" text-anchor="middle" dy="0.3em"></text>
<text x="77" y="-100" font-size="35" text-anchor="middle" dy="0.3em"></text>
<path d="M200,-100 L100,-100" stroke="black" stroke-width="5" />
<text x="150.0" y="83" font-size="23.333333333333332" fill="black" text-anchor="middle" dy="0.3em"></text>
<text x="77" y="100" font-size="35" text-anchor="middle" dy="0.3em"></text>
<path d="M200,100 L100,100" stroke="black" stroke-width="5" />
<text x="-150.0" y="83" font-size="23.333333333333332" fill="black" text-anchor="middle" dy="0.3em"></text>
<text x="-77" y="100" font-size="35" text-anchor="middle" dy="0.3em"></text>
<path d="M-200,100 L-100,100" stroke="black" stroke-width="5" />
<metadata width="400" height="200" symbolPrefix="L" cmpPartDmgLabel="1:A" nameOfSymbol="L-L_Coupled_1243-1-A"><p-1><x>-200</x><y>100</y><type>P
                        </type><name>1</name><orientation>R</orientation>
                        <length>100</length><pinShape></pinShape>
                        </p-1><p-2><x>200</x><y>100</y><type>P
                        </type><name>2</name><orientation>L</orientation>
                        <length>100</length><pinShape></pinShape>
                        </p-2><p-3><x>200</x><y>-100</y><type>P
                        </type><name>3</name><orientation>L</orientation>
                        <length>100</length><pinShape></pinShape>
                        </p-3><p-4><x>-200</x><y>-100</y><type>P
                        </type><name>4</name><orientation>R</orientation>
                        <length>100</length><pinShape></pinShape>
                        </p-4></metadata></svg>