<?xml version="1.0" encoding="UTF-8"?>
<svg xmlns="http://www.w3.org/2000/svg" xmlns:xlink="http://www.w3.org/1999/xlink"
     width="400" height="400" viewBox="-200.0 -200.0 400 400">
<defs>
</defs>
<path d="M100.28857418214714,-60.25945476447634 A117,117,0,0,1,100.28857418214712,60.259454764476374" stroke="black" stroke-width="10" fill-opacity="0" />
<circle cx="0" cy="0" r="100" stroke-width="6" stroke="black" fill-opacity="0" />
<circle cx="40" cy="50" r="10" stroke-width="6" stroke="black" fill="black" />
<path d="M-30,70 L30,70 L30,80 L-30,80 L-30,70" stroke-width="10" stroke="black" fill="black" />
<path d="M-30,-80 L30,-80 L30,-70 L-30,-70 L-30,-80" stroke-width="10" stroke="black" fill="black" />
<path d="M120,0 L150,0" stroke-width="10" stroke="black" fill-opacity="0" />
<path d="M0,100 L0,80" stroke-width="6" stroke="black" fill-opacity="0" />
<path d="M0,-100 L0,-80" stroke-width="6" stroke="black" fill-opacity="0" />
<text x="-17" y="133.33333333333334" font-size="23.333333333333332" fill="black" text-anchor="middle" dy="0.3em"></text>
<text x="0" y="86" font-size="35" text-anchor="middle" dy="0.3em"></text>
<path d="M0,200 L0,100" stroke="black" stroke-width="5" />
<text x="175.0" y="-17" font-size="23.333333333333332" fill="black" text-anchor="middle" dy="0.3em"></text>
<text x="136" y="0" font-size="35" text-anchor="middle" dy="0.3em"></text>
<path d="M200,0 L150,0" stroke="black" stroke-width="5" />
<text x="-17" y="-133.33333333333334" font-size="23.333333333333332" fill="black" text-anchor="middle" dy="0.3em"></text>
<text x="0" y="-86" font-size="35" text-anchor="middle" dy="0.3em"></text>
<path d="M0,-200 L0,-100" stroke="black" stroke-width="5" />
<metadata width="400" height="400" symbolPrefix="LA" cmpPartDmgLabel="1:A" nameOfSymbol="LA-Lamp_Flash-1-A"><p-1><x>0</x><y>-200</y><type>P
                        </type><name>~</name><orientation>U</orientation>
                        <length>100</length><pinShape></pinShape>
                        </p-1><p-2><x>200</x><y>0</y><type>P
                        </type><name>~</name><orientation>L</orientation>
                        <length>50</length><pinShape></pinShape>
                        </p-2><p-3><x>0</x><y>200</y><type>P
                        </type><name>~</name><orientation>D</orientation>
                        <length>100</length><pinShape></pinShape>
                        </p-3></metadata></svg>