<?xml version="1.0" encoding="UTF-8"?>
<svg xmlns="http://www.w3.org/2000/svg" xmlns:xlink="http://www.w3.org/1999/xlink"
     width="600" height="240" viewBox="-300.0 -120.0 600 240">
<defs>
</defs>
<path d="M-160,-50 L-100,-110" stroke-width="6" stroke="black" fill-opacity="0" />
<path d="M-160,-70 L-100,-90" stroke-width="6" stroke="black" fill-opacity="0" />
<path d="M-160,-90 L-100,-70" stroke-width="6" stroke="black" fill-opacity="0" />
<path d="M-160,-110 L-100,-50" stroke-width="6" stroke="black" fill-opacity="0" />
<path d="M-140,-110 L-120,-50" stroke-width="6" stroke="black" fill-opacity="0" />
<path d="M-130,-80 L-130,-40" stroke-width="6" stroke="black" fill-opacity="0" />
<path d="M-130,-80 L-130,-120" stroke-width="6" stroke="black" fill-opacity="0" />
<path d="M-120,-110 L-140,-50" stroke-width="6" stroke="black" fill-opacity="0" />
<path d="M-70,-80 L-170,-80" stroke-width="6" stroke="black" fill-opacity="0" />
<path d="M-60,-50 L-60,50" stroke-width="8" stroke="black" fill-opacity="0" />
<path d="M50,-120 L30,-120" stroke-width="6" stroke="black" fill-opacity="0" />
<path d="M100,0 L-200,0" stroke-width="6" stroke="black" fill-opacity="0" />
<path d="M-10,-60 L50,-120 L50,-100" stroke-width="6" stroke="black" fill-opacity="0" />
<path d="M40,-50 L40,50 L-60,0 L40,-50" stroke-width="8" stroke="black" fill-opacity="0" />
<path d="M-60,-60 L0,-120 L0,-100 L0,-120 L-20,-120" stroke-width="6" stroke="black" fill-opacity="0" />
<text x="150.0" y="-17" font-size="23.333333333333332" fill="black" text-anchor="middle" dy="0.3em"></text>
<text x="47" y="0" font-size="35" text-anchor="middle" dy="0.3em"></text>
<path d="M200,0 L100,0" stroke="black" stroke-width="5" />
<text x="-250.0" y="-17" font-size="23.333333333333332" fill="black" text-anchor="middle" dy="0.3em"></text>
<text x="-147" y="0" font-size="35" text-anchor="middle" dy="0.3em"></text>
<path d="M-300,0 L-200,0" stroke="black" stroke-width="5" />
<metadata width="600" height="240" symbolPrefix="LD" cmpPartDmgLabel="1:A" nameOfSymbol="LD-Laserdiode_1A3C-1-A"><p-1><x>200</x><y>0</y><type>P
                        </type><name>A</name><orientation>L</orientation>
                        <length>100</length><pinShape></pinShape>
                        </p-1><p-3><x>-300</x><y>0</y><type>P
                        </type><name>K</name><orientation>R</orientation>
                        <length>100</length><pinShape></pinShape>
                        </p-3></metadata></svg>