<?xml version="1.0" encoding="UTF-8"?>
<svg xmlns="http://www.w3.org/2000/svg" xmlns:xlink="http://www.w3.org/1999/xlink"
     width="700" height="400" viewBox="-350.0 -200.0 700 400">
<defs>
</defs>
<circle cx="-150" cy="0" r="10" stroke-width="6" stroke="black" fill="black" />
<circle cx="50" cy="120" r="10" stroke-width="6" stroke="black" fill="black" />
<circle cx="0" cy="0" r="111" stroke-width="10" stroke="black" fill-opacity="0" />
<path d="M-250,-20 L-190,-20 L-190,20 L-250,20 L-250,-20" stroke-width="6" stroke="black" fill-opacity="0" />
<path d="M-170,90 L-130,90 L-130,30 L-170,30 L-170,90" stroke-width="6" stroke="black" fill-opacity="0" />
<path d="M-150,30 L-150,0" stroke-width="6" stroke="black" fill-opacity="0" />
<path d="M-30,0 L-190,0" stroke-width="6" stroke="black" fill-opacity="0" />
<path d="M-25,-60 L-25,60" stroke-width="20" stroke="black" fill-opacity="0" />
<path d="M-150,90 L-150,120 L50,120" stroke-width="6" stroke="black" fill-opacity="0" />
<path d="M-25,-25 L50,-100" stroke-width="6" stroke="black" fill-opacity="0" />
<path d="M-25,25 L50,100 L50,100" stroke-width="6" stroke="black" fill-opacity="0" />
<path d="M0,70 L20,50 L40,90 L0,70 L0,70" stroke-width="6" stroke="black" fill="black" />
<text x="-300.0" y="-17" font-size="23.333333333333332" fill="black" text-anchor="middle" dy="0.3em"></text>
<text x="-217" y="0" font-size="35" text-anchor="middle" dy="0.3em"></text>
<path d="M-350,0 L-250,0" stroke="black" stroke-width="5" />
<text x="33" y="133.33333333333334" font-size="23.333333333333332" fill="black" text-anchor="middle" dy="0.3em"></text>
<text x="50" y="67" font-size="35" text-anchor="middle" dy="0.3em"></text>
<path d="M50,200 L50,100" stroke="black" stroke-width="5" />
<text x="33" y="-133.33333333333334" font-size="23.333333333333332" fill="black" text-anchor="middle" dy="0.3em"></text>
<text x="50" y="-67" font-size="35" text-anchor="middle" dy="0.3em"></text>
<path d="M50,-200 L50,-100" stroke="black" stroke-width="5" />
<metadata width="700" height="400" symbolPrefix="Q" cmpPartDmgLabel="1:A" nameOfSymbol="Q-Q_NPN_BEC_BRT-1-A"><p-1><x>-350</x><y>0</y><type>I
                        </type><name>B</name><orientation>R</orientation>
                        <length>100</length><pinShape></pinShape>
                        </p-1><p-2><x>50</x><y>-200</y><type>P
                        </type><name>E</name><orientation>U</orientation>
                        <length>100</length><pinShape></pinShape>
                        </p-2><p-3><x>50</x><y>200</y><type>P
                        </type><name>C</name><orientation>D</orientation>
                        <length>100</length><pinShape></pinShape>
                        </p-3></metadata></svg>