<?xml version="1.0" encoding="UTF-8"?>
<svg xmlns="http://www.w3.org/2000/svg" xmlns:xlink="http://www.w3.org/1999/xlink"
     width="300" height="300" viewBox="-150.0 -150.0 300 300">
<defs>
</defs>
<path d="M0,90 L0,100" stroke-width="6" stroke="black" fill-opacity="0" />
<path d="M0,-90 L0,-100" stroke-width="6" stroke="black" fill-opacity="0" />
<path d="M60,-30 L60,30" stroke-width="6" stroke="black" fill-opacity="0" />
<path d="M100,0 L60,0" stroke-width="6" stroke="black" fill-opacity="0" />
<path d="M0,30 L40,45 L0,60 L-40,75 L0,90" stroke-width="6" stroke="black" fill-opacity="0" />
<path d="M0,-30 L40,-15 L0,0 L-40,15 L0,30" stroke-width="6" stroke="black" fill-opacity="0" />
<path d="M0,-90 L40,-75 L0,-60 L-40,-45 L0,-30" stroke-width="6" stroke="black" fill-opacity="0" />
<text x="-17" y="-116.66666666666667" font-size="23.333333333333332" fill="black" text-anchor="middle" dy="0.3em"></text>
<text x="0" y="-47" font-size="35" text-anchor="middle" dy="0.3em"></text>
<path d="M0,-150 L0,-100" stroke="black" stroke-width="5" />
<text x="125.0" y="-17" font-size="23.333333333333332" fill="black" text-anchor="middle" dy="0.3em"></text>
<text x="47" y="0" font-size="35" text-anchor="middle" dy="0.3em"></text>
<path d="M150,0 L100,0" stroke="black" stroke-width="5" />
<text x="-17" y="116.66666666666667" font-size="23.333333333333332" fill="black" text-anchor="middle" dy="0.3em"></text>
<text x="0" y="47" font-size="35" text-anchor="middle" dy="0.3em"></text>
<path d="M0,150 L0,100" stroke="black" stroke-width="5" />
<metadata width="300" height="300" symbolPrefix="RV" cmpPartDmgLabel="1:A" nameOfSymbol="RV-R_POT_TRIM_US-1-A"><p-1><x>0</x><y>150</y><type>P
                        </type><name>1</name><orientation>D</orientation>
                        <length>50</length><pinShape></pinShape>
                        </p-1><p-2><x>150</x><y>0</y><type>P
                        </type><name>2</name><orientation>L</orientation>
                        <length>50</length><pinShape></pinShape>
                        </p-2><p-3><x>0</x><y>-150</y><type>P
                        </type><name>3</name><orientation>U</orientation>
                        <length>50</length><pinShape></pinShape>
                        </p-3></metadata></svg>