<?xml version="1.0" encoding="UTF-8"?>
<svg xmlns="http://www.w3.org/2000/svg" xmlns:xlink="http://www.w3.org/1999/xlink"
     width="600" height="400" viewBox="-300.0 -200.0 600 400">
<defs>
</defs>
<path d="M-50.000076154335616,149.91273358170508 A50,50,0,0,0,-99.91273358170508,100.00007615433562" stroke="black" stroke-width="6" fill-opacity="0" />
<path d="M-99.91273358170506,199.9999238456644 A50,50,0,0,0,-50.000076154335616,150.08726641829492" stroke="black" stroke-width="6" fill-opacity="0" />
<path d="M-50.000076154335616,49.91273358170508 A50,50,0,0,0,-99.91273358170508,7.615433561625196e-05" stroke="black" stroke-width="6" fill-opacity="0" />
<path d="M-99.91273358170506,99.99992384566438 A50,50,0,0,0,-50.000076154335616,50.087266418294924" stroke="black" stroke-width="6" fill-opacity="0" />
<path d="M-50.000076154335616,-50.08726641829492 A50,50,0,0,0,-99.91273358170508,-99.99992384566438" stroke="black" stroke-width="6" fill-opacity="0" />
<path d="M-99.91273358170506,-7.615433561625196e-05 A50,50,0,0,0,-50.000076154335616,-49.912733581705076" stroke="black" stroke-width="6" fill-opacity="0" />
<path d="M-50.000076154335616,-150.08726641829492 A50,50,0,0,0,-99.91273358170508,-199.9999238456644" stroke="black" stroke-width="6" fill-opacity="0" />
<path d="M-99.91273358170506,-100.00007615433562 A50,50,0,0,0,-50.000076154335616,-149.91273358170508" stroke="black" stroke-width="6" fill-opacity="0" />
<path d="M100.08726641829492,7.615433561625196e-05 A50,50,0,0,0,50.000076154335616,50.0872664182949" stroke="black" stroke-width="6" fill-opacity="0" />
<path d="M50.000076154335616,49.91273358170508 A50,50,0,0,0,100.08726641829494,99.99992384566438" stroke="black" stroke-width="6" fill-opacity="0" />
<path d="M100.08726641829492,-99.99992384566438 A50,50,0,0,0,50.000076154335616,-49.9127335817051" stroke="black" stroke-width="6" fill-opacity="0" />
<path d="M50.000076154335616,-50.08726641829492 A50,50,0,0,0,100.08726641829494,-7.615433561625196e-05" stroke="black" stroke-width="6" fill-opacity="0" />
<path d="M100.08726641829492,-199.9999238456644 A50,50,0,0,0,50.000076154335616,-149.91273358170508" stroke="black" stroke-width="6" fill-opacity="0" />
<path d="M50.000076154335616,-150.08726641829492 A50,50,0,0,0,100.08726641829494,-100.00007615433562" stroke="black" stroke-width="6" fill-opacity="0" />
<path d="M100.12737967813582,100.00761524218044 A50,50,0,0,0,51.000076154335616,150.08726641829492" stroke="black" stroke-width="6" fill-opacity="0" />
<path d="M51.000076154335616,150.08726641829492 A50,50,0,0,0,99.95287900583216,199.98903417374228" stroke="black" stroke-width="6" fill-opacity="0" />
<path d="M-25,-200 L-25,200" stroke-width="6" stroke="black" fill-opacity="0" />
<path d="M25,200 L25,-200" stroke-width="6" stroke="black" fill-opacity="0" />
<text x="-200.0" y="-217" font-size="23.333333333333332" fill="black" text-anchor="middle" dy="0.3em"></text>
<text x="-34" y="-200" font-size="35" text-anchor="middle" dy="0.3em"></text>
<path d="M-300,-200 L-100,-200" stroke="black" stroke-width="5" />
<text x="-200.0" y="183" font-size="23.333333333333332" fill="black" text-anchor="middle" dy="0.3em"></text>
<text x="-34" y="200" font-size="35" text-anchor="middle" dy="0.3em"></text>
<path d="M-300,200 L-100,200" stroke="black" stroke-width="5" />
<text x="200.0" y="183" font-size="23.333333333333332" fill="black" text-anchor="middle" dy="0.3em"></text>
<text x="34" y="200" font-size="35" text-anchor="middle" dy="0.3em"></text>
<path d="M300,200 L100,200" stroke="black" stroke-width="5" />
<text x="200.0" y="-217" font-size="23.333333333333332" fill="black" text-anchor="middle" dy="0.3em"></text>
<text x="34" y="-200" font-size="35" text-anchor="middle" dy="0.3em"></text>
<path d="M300,-200 L100,-200" stroke="black" stroke-width="5" />
<metadata width="600" height="400" symbolPrefix="T" cmpPartDmgLabel="1:A" nameOfSymbol="T-Transformer_1P_1S_SO8-1-A_thumbnail"><p-1><x>-300</x><y>200</y><type>P
                        </type><name>AA</name><orientation>R</orientation>
                        <length>200</length><pinShape></pinShape>
                        </p-1><p-4><x>-300</x><y>-200</y><type>P
                        </type><name>AB</name><orientation>R</orientation>
                        <length>200</length><pinShape></pinShape>
                        </p-4><p-5><x>300</x><y>-200</y><type>P
                        </type><name>SA</name><orientation>L</orientation>
                        <length>200</length><pinShape></pinShape>
                        </p-5><p-8><x>300</x><y>200</y><type>P
                        </type><name>SB</name><orientation>L</orientation>
                        <length>200</length><pinShape></pinShape>
                        </p-8></metadata></svg>