<?xml version="1.0" encoding="UTF-8"?>
<svg xmlns="http://www.w3.org/2000/svg" xmlns:xlink="http://www.w3.org/1999/xlink"
     width="400" height="280" viewBox="-200.0 -140.0 400 280">
<defs>
</defs>
<circle cx="-70" cy="0" r="10" stroke-width="6" stroke="black" fill="black" />
<circle cx="80" cy="100" r="20" stroke-width="6" stroke="black" fill-opacity="0" />
<circle cx="80" cy="-100" r="20" stroke-width="6" stroke="black" fill-opacity="0" />
<path d="M40,-140 L120,-140 L120,140 L40,140 L40,-140" stroke-width="6" stroke="black" fill-opacity="0" />
<path d="M-110,40 L-120,50" stroke-width="6" stroke="black" fill-opacity="0" />
<path d="M-90,20 L-100,30" stroke-width="6" stroke="black" fill-opacity="0" />
<path d="M-70,0 L-80,10" stroke-width="6" stroke="black" fill-opacity="0" />
<path d="M-50,-20 L-60,-10" stroke-width="6" stroke="black" fill-opacity="0" />
<path d="M-30,-40 L-40,-30" stroke-width="6" stroke="black" fill-opacity="0" />
<path d="M-10,-60 L-20,-50" stroke-width="6" stroke="black" fill-opacity="0" />
<path d="M10,-80 L0,-70" stroke-width="6" stroke="black" fill-opacity="0" />
<path d="M30,-100 L20,-90" stroke-width="6" stroke="black" fill-opacity="0" />
<path d="M50,100 L40,100" stroke-width="6" stroke="black" fill-opacity="0" />
<path d="M50,-100 L30,-100" stroke-width="6" stroke="black" fill-opacity="0" />
<path d="M60,100 L30,100 L-120,-50" stroke-width="6" stroke="black" fill-opacity="0" />
<text x="150.0" y="-117" font-size="23.333333333333332" fill="black" text-anchor="middle" dy="0.3em"></text>
<text x="87" y="-100" font-size="35" text-anchor="middle" dy="0.3em"></text>
<path d="M200,-100 L100,-100" stroke="black" stroke-width="5" />
<text x="150.0" y="83" font-size="23.333333333333332" fill="black" text-anchor="middle" dy="0.3em"></text>
<text x="87" y="100" font-size="35" text-anchor="middle" dy="0.3em"></text>
<path d="M200,100 L100,100" stroke="black" stroke-width="5" />
<metadata width="400" height="280" symbolPrefix="TC" cmpPartDmgLabel="1:A" nameOfSymbol="TC-Thermocouple_Block-1-A"><p-1><x>200</x><y>100</y><type>P
                        </type><name>+</name><orientation>L</orientation>
                        <length>100</length><pinShape></pinShape>
                        </p-1><p-2><x>200</x><y>-100</y><type>P
                        </type><name>-</name><orientation>L</orientation>
                        <length>100</length><pinShape></pinShape>
                        </p-2></metadata></svg>