<?xml version="1.0" encoding="UTF-8"?>
<svg xmlns="http://www.w3.org/2000/svg" xmlns:xlink="http://www.w3.org/1999/xlink"
     width="280" height="400" viewBox="-140.0 -200.0 280 400">
<defs>
</defs>
<circle cx="-100" cy="0" r="10" stroke-width="6" stroke="black" fill="black" />
<circle cx="0" cy="150" r="10" stroke-width="6" stroke="black" fill="black" />
<circle cx="100" cy="0" r="10" stroke-width="6" stroke="black" fill="black" />
<path d="M-140,100 L-60,100 L-60,110 L-140,110 L-140,100" stroke-width="6" stroke="black" fill="black" />
<path d="M-140,70 L-60,70 L-60,80 L-140,80 L-140,70" stroke-width="6" stroke="black" fill="black" />
<path d="M-25,-75 L25,-75 L25,75 L-25,75 L-25,-75" stroke-width="12" stroke="black" fill-opacity="0" />
<path d="M60,100 L140,100 L140,110 L60,110 L60,100" stroke-width="6" stroke="black" fill="black" />
<path d="M60,70 L140,70 L140,80 L60,80 L60,70" stroke-width="6" stroke="black" fill="black" />
<path d="M-100,70 L-100,0" stroke-width="6" stroke="black" fill-opacity="0" />
<path d="M-100,0 L-55,0" stroke-width="6" stroke="black" fill-opacity="0" />
<path d="M-100,-50 L-100,0" stroke-width="6" stroke="black" fill-opacity="0" />
<path d="M-50,50 L-50,-50" stroke-width="15" stroke="black" fill-opacity="0" />
<path d="M50,50 L50,-50" stroke-width="15" stroke="black" fill-opacity="0" />
<path d="M50,0 L100,0" stroke-width="6" stroke="black" fill-opacity="0" />
<path d="M100,0 L100,70" stroke-width="6" stroke="black" fill-opacity="0" />
<path d="M100,-50 L100,0" stroke-width="6" stroke="black" fill-opacity="0" />
<path d="M95,110 L95,150 L-95,150 L-95,105" stroke-width="6" stroke="black" fill-opacity="0" />
<text x="-117" y="-66.66666666666667" font-size="23.333333333333332" fill="black" text-anchor="middle" dy="0.3em"></text>
<text x="-100" y="3" font-size="35" text-anchor="middle" dy="0.3em"></text>
<path d="M-100,-100 L-100,-50" stroke="black" stroke-width="5" />
<text x="-17" y="166.66666666666666" font-size="23.333333333333332" fill="black" text-anchor="middle" dy="0.3em"></text>
<text x="0" y="97" font-size="35" text-anchor="middle" dy="0.3em"></text>
<path d="M0,200 L0,150" stroke="black" stroke-width="5" />
<text x="83" y="-66.66666666666667" font-size="23.333333333333332" fill="black" text-anchor="middle" dy="0.3em"></text>
<text x="100" y="3" font-size="35" text-anchor="middle" dy="0.3em"></text>
<path d="M100,-100 L100,-50" stroke="black" stroke-width="5" />
<metadata width="280" height="400" symbolPrefix="Y" cmpPartDmgLabel="1:A" nameOfSymbol="Y-Resonator_Small-1-A_thumbnail"><p-1><x>-100</x><y>100</y><type>P
                        </type><name>1</name><orientation>D</orientation>
                        <length>50</length><pinShape></pinShape>
                        </p-1><p-2><x>0</x><y>-200</y><type>P
                        </type><name>2</name><orientation>U</orientation>
                        <length>50</length><pinShape></pinShape>
                        </p-2><p-3><x>100</x><y>100</y><type>P
                        </type><name>3</name><orientation>D</orientation>
                        <length>50</length><pinShape></pinShape>
                        </p-3></metadata></svg>