<?xml version="1.0" encoding="UTF-8"?>
<svg xmlns="http://www.w3.org/2000/svg" xmlns:xlink="http://www.w3.org/1999/xlink"
     width="300" height="400" viewBox="-150.0 -200.0 300 400">
<defs>
</defs>
<circle cx="-95" cy="0" r="10" stroke-width="6" stroke="black" fill="black" />
<circle cx="0" cy="150" r="10" stroke-width="6" stroke="black" fill="black" />
<circle cx="95" cy="0" r="10" stroke-width="6" stroke="black" fill="black" />
<path d="M-135,125 L-55,125 L-55,135 L-135,135 L-135,125" stroke-width="6" stroke="black" fill="black" />
<path d="M-135,95 L-55,95 L-55,105 L-135,105 L-135,95" stroke-width="6" stroke="black" fill="black" />
<path d="M-40,-80 L40,-80 L40,80 L-40,80 L-40,-80" stroke-width="12" stroke="black" fill-opacity="0" />
<path d="M55,125 L135,125 L135,135 L55,135 L55,125" stroke-width="6" stroke="black" fill="black" />
<path d="M55,95 L135,95 L135,105 L55,105 L55,95" stroke-width="6" stroke="black" fill="black" />
<path d="M-95,95 L-95,0" stroke-width="6" stroke="black" fill-opacity="0" />
<path d="M-75,0 L-125,0" stroke-width="6" stroke="black" fill-opacity="0" />
<path d="M-70,50 L-70,-50" stroke-width="20" stroke="black" fill-opacity="0" />
<path d="M70,50 L70,-50" stroke-width="20" stroke="black" fill-opacity="0" />
<path d="M75,0 L100,0" stroke-width="6" stroke="black" fill-opacity="0" />
<path d="M95,0 L95,100" stroke-width="6" stroke="black" fill-opacity="0" />
<path d="M95,130 L95,150 L-95,150 L-95,130" stroke-width="6" stroke="black" fill-opacity="0" />
<text x="-125.0" y="-17" font-size="23.333333333333332" fill="black" text-anchor="middle" dy="0.3em"></text>
<text x="-47" y="0" font-size="35" text-anchor="middle" dy="0.3em"></text>
<path d="M-150,0 L-100,0" stroke="black" stroke-width="5" />
<text x="-17" y="166.66666666666666" font-size="23.333333333333332" fill="black" text-anchor="middle" dy="0.3em"></text>
<text x="0" y="97" font-size="35" text-anchor="middle" dy="0.3em"></text>
<path d="M0,200 L0,150" stroke="black" stroke-width="5" />
<text x="125.0" y="-17" font-size="23.333333333333332" fill="black" text-anchor="middle" dy="0.3em"></text>
<text x="47" y="0" font-size="35" text-anchor="middle" dy="0.3em"></text>
<path d="M150,0 L100,0" stroke="black" stroke-width="5" />
<metadata width="300" height="400" symbolPrefix="Y" cmpPartDmgLabel="1:A" nameOfSymbol="Y-Resonator-1-A_thumbnail"><p-1><x>-150</x><y>0</y><type>P
                        </type><name>1</name><orientation>R</orientation>
                        <length>50</length><pinShape></pinShape>
                        </p-1><p-2><x>0</x><y>-200</y><type>P
                        </type><name>2</name><orientation>U</orientation>
                        <length>50</length><pinShape></pinShape>
                        </p-2><p-3><x>150</x><y>0</y><type>P
                        </type><name>3</name><orientation>L</orientation>
                        <length>50</length><pinShape></pinShape>
                        </p-3></metadata></svg>