<?xml version="1.0" encoding="UTF-8"?>
<svg xmlns="http://www.w3.org/2000/svg" xmlns:xlink="http://www.w3.org/1999/xlink"
     width="600" height="350" viewBox="-300.0 -175.0 600 350">
<defs>
</defs>
<path d="M-149.76548473764734,-174.60120560237735 A343,343,0,0,1,-149.76548473764745,174.6012056023776" stroke="black" stroke-width="10" fill-opacity="0" />
<path d="M150.22869055943977,-0.3674787636172425 A238,238,0,0,0,-26.65249291366395,-175.71177888381214" stroke="black" stroke-width="10" fill-opacity="0" />
<path d="M-26.652492913664005,175.71177888381214 A238,238,0,0,0,150.2286905594398,0.36747876361715015" stroke="black" stroke-width="10" fill-opacity="0" />
<path d="M-150,175 L-25,175" stroke-width="10" stroke="black" fill-opacity="0" />
<path d="M-150,-175 L-25,-175" stroke-width="10" stroke="black" fill-opacity="0" />
<path d="M-25,-175 L-150,-175 L-150,-175 L-143,-161 L-122,-115 L-109,-66 L-103,-17 L-104,34 L-113,83 L-128,131 L-150,175 L-150,175 L-25,175" stroke-width="-1000" stroke="black" fill-opacity="0" />
<text x="-205.0" y="-67" font-size="23.333333333333332" fill="black" text-anchor="middle" dy="0.3em"></text>
<text x="-57" y="-50" font-size="35" text-anchor="middle" dy="0.3em"></text>
<path d="M-300,-50 L-110,-50" stroke="black" stroke-width="5" />
<text x="-205.0" y="33" font-size="23.333333333333332" fill="black" text-anchor="middle" dy="0.3em"></text>
<text x="-57" y="50" font-size="35" text-anchor="middle" dy="0.3em"></text>
<path d="M-300,50 L-110,50" stroke="black" stroke-width="5" />
<text x="-225.0" y="133" font-size="23.333333333333332" fill="black" text-anchor="middle" dy="0.3em"></text>
<text x="-97" y="150" font-size="35" text-anchor="middle" dy="0.3em"></text>
<path d="M-300,150 L-150,150" stroke="black" stroke-width="5" />
<text x="225.0" y="-17" font-size="23.333333333333332" fill="black" text-anchor="middle" dy="0.3em"></text>
<text x="97" y="0" font-size="35" text-anchor="middle" dy="0.3em"></text>
<path d="M300,0 L150,0" stroke="black" stroke-width="5" />
<text x="-225.0" y="-167" font-size="23.333333333333332" fill="black" text-anchor="middle" dy="0.3em"></text>
<text x="-97" y="-150" font-size="35" text-anchor="middle" dy="0.3em"></text>
<path d="M-300,-150 L-150,-150" stroke="black" stroke-width="5" />
<metadata width="600" height="350" symbolPrefix="U" cmpPartDmgLabel="1:B" nameOfSymbol="U-4072-1-B"><p-10><x>-300</x><y>50</y><type>I
                        </type><name>~</name><orientation>R</orientation>
                        <length>190</length><pinShape></pinShape>
                        </p-10><p-11><x>-300</x><y>-50</y><type>I
                        </type><name>~</name><orientation>R</orientation>
                        <length>190</length><pinShape></pinShape>
                        </p-11><p-12><x>-300</x><y>-150</y><type>I
                        </type><name>~</name><orientation>R</orientation>
                        <length>150</length><pinShape></pinShape>
                        </p-12><p-13><x>300</x><y>0</y><type>O
                        </type><name>~</name><orientation>L</orientation>
                        <length>150</length><pinShape></pinShape>
                        </p-13><p-9><x>-300</x><y>150</y><type>I
                        </type><name>~</name><orientation>R</orientation>
                        <length>150</length><pinShape></pinShape>
                        </p-9></metadata></svg>