<?xml version="1.0" encoding="UTF-8"?>
<svg xmlns="http://www.w3.org/2000/svg" xmlns:xlink="http://www.w3.org/1999/xlink"
     width="300" height="900" viewBox="-150.0 -450.0 300 900">
<defs>
</defs>
<path d="M0.3470629784333781,-50.35839794927733 A501,501,0,0,0,-49.47373466760236,-50.40187480805844" stroke="black" stroke-width="6" fill-opacity="0" />
<path d="M0.6104553438661782,50.34003831712147 A451,451,0,0,0,50.17549875191643,50.296784646073434" stroke="black" stroke-width="6" fill-opacity="0" />
<path d="M50.00499354078067,-49.567216045316286 A551,551,0,0,0,100.95565434101286,-49.61167889595447" stroke="black" stroke-width="6" fill-opacity="0" />
<path d="M-49.822224629734535,-50.509293126414725 A403,403,0,0,0,-49.82222462973459,50.50929312641445" stroke="black" stroke-width="6" fill-opacity="0" />
<path d="M-0.17686737975020606,-50.495426289465165 A453,453,0,0,0,-0.17686737975020606,50.49542628946505" stroke="black" stroke-width="6" fill-opacity="0" />
<path d="M50.27181196398442,-50.02918426917453 A552,552,0,0,0,50.271811963984305,50.0291842691744" stroke="black" stroke-width="6" fill-opacity="0" />
<circle cx="0" cy="0" r="150" stroke-width="6" stroke="black" fill-opacity="0" />
<text x="-17" y="-250.0" font-size="23.333333333333332" fill="black" text-anchor="middle" dy="0.3em"></text>
<text x="0" y="-97" font-size="35" text-anchor="middle" dy="0.3em"></text>
<path d="M0,-450 L0,-150" stroke="black" stroke-width="5" />
<text x="-17" y="250.0" font-size="23.333333333333332" fill="black" text-anchor="middle" dy="0.3em"></text>
<text x="0" y="97" font-size="35" text-anchor="middle" dy="0.3em"></text>
<path d="M0,450 L0,150" stroke="black" stroke-width="5" />
<metadata width="300" height="900" symbolPrefix="v" cmpPartDmgLabel="1:A" nameOfSymbol="v-pulse-1-A_thumbnail"><p-1><x>0</x><y>450</y><type>P
                        </type><name>+</name><orientation>D</orientation>
                        <length>300</length><pinShape></pinShape>
                        </p-1><p-2><x>0</x><y>-450</y><type>P
                        </type><name>-</name><orientation>U</orientation>
                        <length>300</length><pinShape></pinShape>
                        </p-2></metadata></svg>