<?xml version="1.0" encoding="UTF-8"?>
<svg xmlns="http://www.w3.org/2000/svg" xmlns:xlink="http://www.w3.org/1999/xlink"
     width="300" height="900" viewBox="-150.0 -450.0 300 900">
<defs>
</defs>
<path d="M0.6724584261789914,51.35898622602241 A1253,1253,0,0,0,-49.16340453656221,-48.37823167063357" stroke="black" stroke-width="6" fill-opacity="0" />
<path d="M49.92990496115647,49.5000000000004 A941,941,0,0,0,99.90635423917536,-50.30066307491427" stroke="black" stroke-width="6" fill-opacity="0" />
<path d="M-48.82537747312419,-49.54312026432183 A750,750,0,0,0,-99.86638379139461,-49.5876619563179" stroke="black" stroke-width="6" fill-opacity="0" />
<path d="M0.5262653323974078,50.40187480805844 A501,501,0,0,0,50.34706297843304,50.35839794927733" stroke="black" stroke-width="6" fill-opacity="0" />
<path d="M-99.88454388202422,-51.16373552633354 A1366,1366,0,0,0,-149.95607869132482,49.04513577241153" stroke="black" stroke-width="6" fill-opacity="0" />
<circle cx="0" cy="0" r="150" stroke-width="6" stroke="black" fill-opacity="0" />
<text x="-17" y="-250.0" font-size="23.333333333333332" fill="black" text-anchor="middle" dy="0.3em"></text>
<text x="0" y="-97" font-size="35" text-anchor="middle" dy="0.3em"></text>
<path d="M0,-450 L0,-150" stroke="black" stroke-width="5" />
<text x="-17" y="250.0" font-size="23.333333333333332" fill="black" text-anchor="middle" dy="0.3em"></text>
<text x="0" y="97" font-size="35" text-anchor="middle" dy="0.3em"></text>
<path d="M0,450 L0,150" stroke="black" stroke-width="5" />
<metadata width="300" height="900" symbolPrefix="v" cmpPartDmgLabel="1:A" nameOfSymbol="v-pwl-1-A"><p-1><x>0</x><y>450</y><type>I
                        </type><name>+</name><orientation>D</orientation>
                        <length>300</length><pinShape></pinShape>
                        </p-1><p-2><x>0</x><y>-450</y><type>I
                        </type><name>-</name><orientation>U</orientation>
                        <length>300</length><pinShape></pinShape>
                        </p-2></metadata></svg>