<?xml version="1.0" encoding="UTF-8"?>
<svg xmlns="http://www.w3.org/2000/svg" xmlns:xlink="http://www.w3.org/1999/xlink"
     width="256" height="600" viewBox="-128.0 -300.0 256 600">
<defs>
</defs>
<path d="M0.1553611315156047,-149.98682953286206 A113,113,0,0,1,-99.97212192741304,18.982789552672216" stroke="black" stroke-width="6" fill-opacity="0" />
<path d="M100.14527452600923,19.85098216205779 A112,112,0,0,0,-100.14527452600923,19.850982162057782" stroke="black" stroke-width="6" fill-opacity="0" />
<path d="M1.5554104079681963,-149.16636634023212 A115,115,0,0,0,99.98965094459454,19.960592372189083" stroke="black" stroke-width="6" fill-opacity="0" />
<circle cx="0" cy="-40" r="128" stroke-width="10" stroke="black" fill-opacity="0" />
<path d="M0,200 L0,180" stroke-width="6" stroke="black" fill-opacity="0" />
<path d="M0,88 L0,104" stroke-width="6" stroke="black" fill-opacity="0" />
<path d="M0,-168 L0,-182" stroke-width="6" stroke="black" fill-opacity="0" />
<path d="M0,-180 L0,-200" stroke-width="6" stroke="black" fill-opacity="0" />
<text x="-17" y="-233.33333333333334" font-size="23.333333333333332" fill="black" text-anchor="middle" dy="0.3em"></text>
<text x="0" y="-187" font-size="35" text-anchor="middle" dy="0.3em"></text>
<path d="M0,-300 L0,-200" stroke="black" stroke-width="5" />
<text x="-17" y="133.33333333333334" font-size="23.333333333333332" fill="black" text-anchor="middle" dy="0.3em"></text>
<text x="0" y="87" font-size="35" text-anchor="middle" dy="0.3em"></text>
<path d="M0,200 L0,100" stroke="black" stroke-width="5" />
<metadata width="256" height="600" symbolPrefix="M" cmpPartDmgLabel="1:A" nameOfSymbol="M-Fan-1-A"><p-1><x>0</x><y>300</y><type>P
                        </type><name>+</name><orientation>D</orientation>
                        <length>100</length><pinShape></pinShape>
                        </p-1><p-2><x>0</x><y>-200</y><type>P
                        </type><name>-</name><orientation>U</orientation>
                        <length>100</length><pinShape></pinShape>
                        </p-2></metadata></svg>