<?xml version="1.0" encoding="UTF-8"?>
<svg xmlns="http://www.w3.org/2000/svg" xmlns:xlink="http://www.w3.org/1999/xlink"
     width="256" height="600" viewBox="-128.0 -300.0 256 600">
<defs>
</defs>
<path d="M-59.93538416643755,110.0005015558417 A31,31,0,0,0,-0.3597344921501069,119.86318640331777" stroke="black" stroke-width="6" fill-opacity="0" />
<path d="M57.940801852848146,130.1162844141206 A30,30,0,0,0,0.4259398223429649,120.18174271227147" stroke="black" stroke-width="6" fill-opacity="0" />
<circle cx="0" cy="60" r="128" stroke-width="10" stroke="black" fill-opacity="0" />
<path d="M-40,80 L-40,-40 L0,40 L40,-40 L40,80" stroke-width="6" stroke="black" fill-opacity="0" />
<path d="M0,300 L0,280" stroke-width="6" stroke="black" fill-opacity="0" />
<path d="M0,188 L0,204" stroke-width="6" stroke="black" fill-opacity="0" />
<path d="M0,-68 L0,-82" stroke-width="6" stroke="black" fill-opacity="0" />
<path d="M0,-80 L0,-100" stroke-width="6" stroke="black" fill-opacity="0" />
<text x="-17" y="-133.33333333333334" font-size="23.333333333333332" fill="black" text-anchor="middle" dy="0.3em"></text>
<text x="0" y="-87" font-size="35" text-anchor="middle" dy="0.3em"></text>
<path d="M0,-200 L0,-100" stroke="black" stroke-width="5" />
<text x="-17" y="233.33333333333334" font-size="23.333333333333332" fill="black" text-anchor="middle" dy="0.3em"></text>
<text x="0" y="187" font-size="35" text-anchor="middle" dy="0.3em"></text>
<path d="M0,300 L0,200" stroke="black" stroke-width="5" />
<metadata width="256" height="600" symbolPrefix="M" cmpPartDmgLabel="1:A" nameOfSymbol="M-Motor_AC-1-A_thumbnail"><p-1><x>0</x><y>200</y><type>P
                        </type><name>~</name><orientation>D</orientation>
                        <length>100</length><pinShape></pinShape>
                        </p-1><p-2><x>0</x><y>-300</y><type>P
                        </type><name>~</name><orientation>U</orientation>
                        <length>100</length><pinShape></pinShape>
                        </p-2></metadata></svg>