<?xml version="1.0" encoding="UTF-8"?>
<svg xmlns="http://www.w3.org/2000/svg" xmlns:xlink="http://www.w3.org/1999/xlink"
     width="600" height="350" viewBox="-300.0 -175.0 600 350">
<defs>
</defs>
<path d="M95.06041487108772,-69.85428578339781 A76,76,0,0,0,95.06041487108773,69.85428578339783" stroke="black" stroke-width="6" fill-opacity="0" />
<path d="M250.02996648408035,-174.8788376082331 A37,37,0,0,1,299.8788376082331,-125.02996648408035" stroke="black" stroke-width="6" fill-opacity="0" />
<circle cx="125" cy="0" r="7" stroke-width="6" stroke="black" fill-opacity="0" />
<circle cx="125" cy="0" r="56" stroke-width="6" stroke="black" fill-opacity="0" />
<circle cx="235" cy="-110" r="5" stroke-width="6" stroke="black" fill-opacity="0" />
<circle cx="255" cy="-130" r="5" stroke-width="6" stroke="black" fill-opacity="0" />
<circle cx="275" cy="-150" r="5" stroke-width="6" stroke="black" fill-opacity="0" />
<path d="M95,70 L80,70" stroke-width="6" stroke="black" fill-opacity="0" />
<path d="M95,70 L90,55" stroke-width="6" stroke="black" fill-opacity="0" />
<path d="M95,-70 L75,-70" stroke-width="6" stroke="black" fill-opacity="0" />
<path d="M95,-70 L90,-55" stroke-width="6" stroke="black" fill-opacity="0" />
<path d="M250,-175 L100,-50" stroke-width="6" stroke="black" fill-opacity="0" />
<path d="M300,-125 L165,40" stroke-width="6" stroke="black" fill-opacity="0" />
<path d="M200,-140 L-200,-140 L-200,140 L250,140 L250,-60" stroke-width="10" stroke="black" fill-opacity="0" />
<text x="-250.0" y="-117" font-size="23.333333333333332" fill="black" text-anchor="middle" dy="0.3em"></text>
<text x="-160" y="-100" font-size="35" text-anchor="middle" dy="0.3em"></text>
<path d="M-300,-100 L-200,-100" stroke="black" stroke-width="5" />
<text x="-250.0" y="-17" font-size="23.333333333333332" fill="black" text-anchor="middle" dy="0.3em"></text>
<text x="-186" y="0" font-size="35" text-anchor="middle" dy="0.3em"></text>
<path d="M-300,0 L-200,0" stroke="black" stroke-width="5" />
<text x="-250.0" y="83" font-size="23.333333333333332" fill="black" text-anchor="middle" dy="0.3em"></text>
<text x="-186" y="100" font-size="35" text-anchor="middle" dy="0.3em"></text>
<path d="M-300,100 L-200,100" stroke="black" stroke-width="5" />
<metadata width="600" height="350" symbolPrefix="M" cmpPartDmgLabel="1:A" nameOfSymbol="M-Motor_Servo-1-A"><p-1><x>-300</x><y>100</y><type>P
                        </type><name>PWM</name><orientation>R</orientation>
                        <length>100</length><pinShape></pinShape>
                        </p-1><p-2><x>-300</x><y>0</y><type>P
                        </type><name>+</name><orientation>R</orientation>
                        <length>100</length><pinShape></pinShape>
                        </p-2><p-3><x>-300</x><y>-100</y><type>P
                        </type><name>-</name><orientation>R</orientation>
                        <length>100</length><pinShape></pinShape>
                        </p-3></metadata></svg>