<?xml version="1.0" encoding="UTF-8"?>
<svg xmlns="http://www.w3.org/2000/svg" xmlns:xlink="http://www.w3.org/1999/xlink"
     width="600" height="600" viewBox="-300.0 -300.0 600 600">
<defs>
</defs>
<path d="M-174.95636679085254,50.00003807716781 A25,25,0,0,1,-174.9563667908525,99.9999619228322" stroke="black" stroke-width="6" fill-opacity="0" />
<path d="M-174.95636679085254,3.807716780812598e-05 A25,25,0,0,1,-174.9563667908525,49.99996192283219" stroke="black" stroke-width="6" fill-opacity="0" />
<path d="M-174.95636679085254,-49.99996192283219 A25,25,0,0,1,-174.9563667908525,-3.807716780812598e-05" stroke="black" stroke-width="6" fill-opacity="0" />
<path d="M-174.95636679085254,-99.9999619228322 A25,25,0,0,1,-174.9563667908525,-50.00003807716781" stroke="black" stroke-width="6" fill-opacity="0" />
<path d="M-99.9999619228322,-174.95636679085254 A25,25,0,0,0,-50.00003807716781,-174.95636679085254" stroke="black" stroke-width="6" fill-opacity="0" />
<path d="M-49.99996192283219,-174.95636679085254 A25,25,0,0,0,-3.807716780812598e-05,-174.95636679085254" stroke="black" stroke-width="6" fill-opacity="0" />
<path d="M3.807716780812598e-05,-174.95636679085254 A25,25,0,0,0,49.99996192283219,-174.95636679085254" stroke="black" stroke-width="6" fill-opacity="0" />
<path d="M50.00003807716781,-174.95636679085254 A25,25,0,0,0,99.9999619228322,-174.95636679085254" stroke="black" stroke-width="6" fill-opacity="0" />
<circle cx="0" cy="0" r="128" stroke-width="10" stroke="black" fill-opacity="0" />
<path d="M-50,70 L-50,-80 L0,20 L50,-80 L50,70" stroke-width="6" stroke="black" fill-opacity="0" />
<path d="M-200,100 L-175,100" stroke-width="6" stroke="black" fill-opacity="0" />
<path d="M-200,-100 L-175,-100" stroke-width="6" stroke="black" fill-opacity="0" />
<path d="M-175,0 L-200,0" stroke-width="6" stroke="black" fill-opacity="0" />
<path d="M-100,-175 L-100,-200" stroke-width="6" stroke="black" fill-opacity="0" />
<path d="M0,-175 L0,-200" stroke-width="6" stroke="black" fill-opacity="0" />
<path d="M100,-175 L100,-200" stroke-width="6" stroke="black" fill-opacity="0" />
<text x="-117" y="-233.33333333333334" font-size="23.333333333333332" fill="black" text-anchor="middle" dy="0.3em"></text>
<text x="-100" y="-187" font-size="35" text-anchor="middle" dy="0.3em"></text>
<path d="M-100,-300 L-100,-200" stroke="black" stroke-width="5" />
<text x="-17" y="-233.33333333333334" font-size="23.333333333333332" fill="black" text-anchor="middle" dy="0.3em"></text>
<text x="0" y="-187" font-size="35" text-anchor="middle" dy="0.3em"></text>
<path d="M0,-300 L0,-200" stroke="black" stroke-width="5" />
<text x="83" y="-233.33333333333334" font-size="23.333333333333332" fill="black" text-anchor="middle" dy="0.3em"></text>
<text x="100" y="-187" font-size="35" text-anchor="middle" dy="0.3em"></text>
<path d="M100,-300 L100,-200" stroke="black" stroke-width="5" />
<text x="-250.0" y="-117" font-size="23.333333333333332" fill="black" text-anchor="middle" dy="0.3em"></text>
<text x="-187" y="-100" font-size="35" text-anchor="middle" dy="0.3em"></text>
<path d="M-300,-100 L-200,-100" stroke="black" stroke-width="5" />
<text x="-250.0" y="-17" font-size="23.333333333333332" fill="black" text-anchor="middle" dy="0.3em"></text>
<text x="-187" y="0" font-size="35" text-anchor="middle" dy="0.3em"></text>
<path d="M-300,0 L-200,0" stroke="black" stroke-width="5" />
<text x="-250.0" y="83" font-size="23.333333333333332" fill="black" text-anchor="middle" dy="0.3em"></text>
<text x="-187" y="100" font-size="35" text-anchor="middle" dy="0.3em"></text>
<path d="M-300,100 L-200,100" stroke="black" stroke-width="5" />
<metadata width="600" height="600" symbolPrefix="M" cmpPartDmgLabel="1:A" nameOfSymbol="M-Stepper_Motor_unipolar_6pin-1-A"><p-1><x>-100</x><y>300</y><type>P
                        </type><name>~</name><orientation>D</orientation>
                        <length>100</length><pinShape></pinShape>
                        </p-1><p-2><x>0</x><y>300</y><type>P
                        </type><name>~</name><orientation>D</orientation>
                        <length>100</length><pinShape></pinShape>
                        </p-2><p-3><x>100</x><y>300</y><type>P
                        </type><name>-</name><orientation>D</orientation>
                        <length>100</length><pinShape></pinShape>
                        </p-3><p-4><x>-300</x><y>100</y><type>P
                        </type><name>~</name><orientation>R</orientation>
                        <length>100</length><pinShape></pinShape>
                        </p-4><p-5><x>-300</x><y>0</y><type>P
                        </type><name>~</name><orientation>R</orientation>
                        <length>100</length><pinShape></pinShape>
                        </p-5><p-6><x>-300</x><y>-100</y><type>P
                        </type><name>~</name><orientation>R</orientation>
                        <length>100</length><pinShape></pinShape>
                        </p-6></metadata></svg>