<?xml version="1.0" encoding="UTF-8"?>
<svg xmlns="http://www.w3.org/2000/svg" xmlns:xlink="http://www.w3.org/1999/xlink"
     width="900" height="1800" viewBox="-450.0 -900.0 900 1800">
<defs>
</defs>
<path d="M-350,-800 L350,-800 L350,800 L-350,800 L-350,-800" stroke-width="10" stroke="black" fill-opacity="0" />
<path d="M-140,500 L-40,500" stroke-width="6" stroke="black" fill-opacity="0" />
<path d="M-140,300 L-40,300" stroke-width="6" stroke="black" fill-opacity="0" />
<path d="M-140,100 L-40,100" stroke-width="6" stroke="black" fill-opacity="0" />
<path d="M-140,-100 L-40,-100" stroke-width="6" stroke="black" fill-opacity="0" />
<path d="M-140,-300 L-40,-300" stroke-width="6" stroke="black" fill-opacity="0" />
<path d="M-140,-500 L-40,-500" stroke-width="6" stroke="black" fill-opacity="0" />
<path d="M30,500 L130,500" stroke-width="6" stroke="black" fill-opacity="0" />
<path d="M30,300 L130,300" stroke-width="6" stroke="black" fill-opacity="0" />
<path d="M30,100 L130,100" stroke-width="6" stroke="black" fill-opacity="0" />
<path d="M30,-100 L130,-100" stroke-width="6" stroke="black" fill-opacity="0" />
<path d="M30,-300 L130,-300" stroke-width="6" stroke="black" fill-opacity="0" />
<path d="M30,-500 L130,-500" stroke-width="6" stroke="black" fill-opacity="0" />
<path d="M30,500 L-40,540 L-40,460 L30,500" stroke-width="6" stroke="black" fill-opacity="0" />
<path d="M30,300 L-40,340 L-40,260 L30,300" stroke-width="6" stroke="black" fill-opacity="0" />
<path d="M30,100 L-40,140 L-40,60 L30,100" stroke-width="6" stroke="black" fill-opacity="0" />
<path d="M30,-100 L-40,-60 L-40,-140 L30,-100" stroke-width="6" stroke="black" fill-opacity="0" />
<path d="M30,-300 L-40,-260 L-40,-340 L30,-300" stroke-width="6" stroke="black" fill-opacity="0" />
<path d="M30,-500 L-40,-460 L-40,-540 L30,-500" stroke-width="6" stroke="black" fill-opacity="0" />
<text x="-117" y="-833.3333333333334" font-size="23.333333333333332" fill="black" text-anchor="middle" dy="0.3em"></text>
<text x="-100" y="-741" font-size="35" text-anchor="middle" dy="0.3em"></text>
<path d="M-100,-900 L-100,-800" stroke="black" stroke-width="5" />
<text x="400.0" y="83" font-size="23.333333333333332" fill="black" text-anchor="middle" dy="0.3em"></text>
<text x="278" y="100" font-size="35" text-anchor="middle" dy="0.3em"></text>
<path d="M450,100 L350,100" stroke="black" stroke-width="5" />
<text x="-400.0" y="283" font-size="23.333333333333332" fill="black" text-anchor="middle" dy="0.3em"></text>
<text x="-291" y="300" font-size="35" text-anchor="middle" dy="0.3em"></text>
<path d="M-450,300 L-350,300" stroke="black" stroke-width="5" />
<text x="400.0" y="283" font-size="23.333333333333332" fill="black" text-anchor="middle" dy="0.3em"></text>
<text x="278" y="300" font-size="35" text-anchor="middle" dy="0.3em"></text>
<path d="M450,300 L350,300" stroke="black" stroke-width="5" />
<text x="-400.0" y="683" font-size="23.333333333333332" fill="black" text-anchor="middle" dy="0.3em"></text>
<text x="-252" y="700" font-size="35" text-anchor="middle" dy="0.3em"></text>
<path d="M-450,700 L-350,700" stroke="black" stroke-width="5" />
<text x="-400.0" y="483" font-size="23.333333333333332" fill="black" text-anchor="middle" dy="0.3em"></text>
<text x="-291" y="500" font-size="35" text-anchor="middle" dy="0.3em"></text>
<path d="M-450,500 L-350,500" stroke="black" stroke-width="5" />
<text x="400.0" y="483" font-size="23.333333333333332" fill="black" text-anchor="middle" dy="0.3em"></text>
<text x="278" y="500" font-size="35" text-anchor="middle" dy="0.3em"></text>
<path d="M450,500 L350,500" stroke="black" stroke-width="5" />
<text x="83" y="-833.3333333333334" font-size="23.333333333333332" fill="black" text-anchor="middle" dy="0.3em"></text>
<text x="100" y="-741" font-size="35" text-anchor="middle" dy="0.3em"></text>
<path d="M100,-900 L100,-800" stroke="black" stroke-width="5" />
<text x="400.0" y="-517" font-size="23.333333333333332" fill="black" text-anchor="middle" dy="0.3em"></text>
<text x="278" y="-500" font-size="35" text-anchor="middle" dy="0.3em"></text>
<path d="M450,-500 L350,-500" stroke="black" stroke-width="5" />
<text x="-400.0" y="-517" font-size="23.333333333333332" fill="black" text-anchor="middle" dy="0.3em"></text>
<text x="-291" y="-500" font-size="35" text-anchor="middle" dy="0.3em"></text>
<path d="M-450,-500 L-350,-500" stroke="black" stroke-width="5" />
<text x="400.0" y="-317" font-size="23.333333333333332" fill="black" text-anchor="middle" dy="0.3em"></text>
<text x="278" y="-300" font-size="35" text-anchor="middle" dy="0.3em"></text>
<path d="M450,-300 L350,-300" stroke="black" stroke-width="5" />
<text x="-400.0" y="-317" font-size="23.333333333333332" fill="black" text-anchor="middle" dy="0.3em"></text>
<text x="-291" y="-300" font-size="35" text-anchor="middle" dy="0.3em"></text>
<path d="M-450,-300 L-350,-300" stroke="black" stroke-width="5" />
<text x="400.0" y="-117" font-size="23.333333333333332" fill="black" text-anchor="middle" dy="0.3em"></text>
<text x="278" y="-100" font-size="35" text-anchor="middle" dy="0.3em"></text>
<path d="M450,-100 L350,-100" stroke="black" stroke-width="5" />
<text x="-400.0" y="-117" font-size="23.333333333333332" fill="black" text-anchor="middle" dy="0.3em"></text>
<text x="-291" y="-100" font-size="35" text-anchor="middle" dy="0.3em"></text>
<path d="M-450,-100 L-350,-100" stroke="black" stroke-width="5" />
<text x="-17" y="833.3333333333334" font-size="23.333333333333332" fill="black" text-anchor="middle" dy="0.3em"></text>
<text x="0" y="741" font-size="35" text-anchor="middle" dy="0.3em"></text>
<path d="M0,900 L0,800" stroke="black" stroke-width="5" />
<text x="-400.0" y="83" font-size="23.333333333333332" fill="black" text-anchor="middle" dy="0.3em"></text>
<text x="-291" y="100" font-size="35" text-anchor="middle" dy="0.3em"></text>
<path d="M-450,100 L-350,100" stroke="black" stroke-width="5" />
<metadata width="900" height="1800" symbolPrefix="U" cmpPartDmgLabel="1:A" nameOfSymbol="U-4504-1-A_thumbnail"><p-1><x>-100</x><y>900</y><type>W
                        </type><name>VCC</name><orientation>D</orientation>
                        <length>100</length><pinShape></pinShape>
                        </p-1><p-10><x>450</x><y>-100</y><type>O
                        </type><name>Dout</name><orientation>L</orientation>
                        <length>100</length><pinShape></pinShape>
                        </p-10><p-11><x>-450</x><y>-300</y><type>I
                        </type><name>Ein</name><orientation>R</orientation>
                        <length>100</length><pinShape></pinShape>
                        </p-11><p-12><x>450</x><y>-300</y><type>O
                        </type><name>Eout</name><orientation>L</orientation>
                        <length>100</length><pinShape></pinShape>
                        </p-12><p-13><x>-450</x><y>-700</y><type>I
                        </type><name>Select</name><orientation>R</orientation>
                        <length>100</length><pinShape></pinShape>
                        </p-13><p-14><x>-450</x><y>-500</y><type>I
                        </type><name>Fin</name><orientation>R</orientation>
                        <length>100</length><pinShape></pinShape>
                        </p-14><p-15><x>450</x><y>-500</y><type>O
                        </type><name>Fout</name><orientation>L</orientation>
                        <length>100</length><pinShape></pinShape>
                        </p-15><p-16><x>100</x><y>900</y><type>W
                        </type><name>VDD</name><orientation>D</orientation>
                        <length>100</length><pinShape></pinShape>
                        </p-16><p-2><x>450</x><y>500</y><type>O
                        </type><name>Aout</name><orientation>L</orientation>
                        <length>100</length><pinShape></pinShape>
                        </p-2><p-3><x>-450</x><y>500</y><type>I
                        </type><name>Ain</name><orientation>R</orientation>
                        <length>100</length><pinShape></pinShape>
                        </p-3><p-4><x>450</x><y>300</y><type>O
                        </type><name>Bout</name><orientation>L</orientation>
                        <length>100</length><pinShape></pinShape>
                        </p-4><p-5><x>-450</x><y>300</y><type>I
                        </type><name>Bin</name><orientation>R</orientation>
                        <length>100</length><pinShape></pinShape>
                        </p-5><p-6><x>450</x><y>100</y><type>O
                        </type><name>Cout</name><orientation>L</orientation>
                        <length>100</length><pinShape></pinShape>
                        </p-6><p-7><x>-450</x><y>100</y><type>I
                        </type><name>Cin</name><orientation>R</orientation>
                        <length>100</length><pinShape></pinShape>
                        </p-7><p-8><x>0</x><y>-900</y><type>W
                        </type><name>VSS</name><orientation>U</orientation>
                        <length>100</length><pinShape></pinShape>
                        </p-8><p-9><x>-450</x><y>-100</y><type>I
                        </type><name>Din</name><orientation>R</orientation>
                        <length>100</length><pinShape></pinShape>
                        </p-9></metadata></svg>