<?xml version="1.0" encoding="UTF-8"?>
<svg xmlns="http://www.w3.org/2000/svg" xmlns:xlink="http://www.w3.org/1999/xlink"
     width="300" height="400" viewBox="-150.0 -200.0 300 400">
<defs>
</defs>
<circle cx="0" cy="100" r="10" stroke-width="6" stroke="black" fill="black" />
<path d="M-100,50 L-100,-100" stroke-width="6" stroke="black" fill-opacity="0" />
<path d="M100,50 L100,-100" stroke-width="6" stroke="black" fill-opacity="0" />
<path d="M-150,-50 L-50,-50 L-50,-30" stroke-width="10" stroke="black" fill-opacity="0" />
<path d="M50,-50 L150,-50 L150,-30" stroke-width="10" stroke="black" fill-opacity="0" />
<path d="M-100,0 L-100,100 L100,100 L100,0" stroke-width="6" stroke="black" fill-opacity="0" />
<path d="M-150,50 L-50,50 L-100,-50 L-150,50" stroke-width="8" stroke="black" fill-opacity="0" />
<path d="M50,50 L150,50 L100,-50 L50,50" stroke-width="8" stroke="black" fill-opacity="0" />
<text x="-117" y="-133.33333333333334" font-size="23.333333333333332" fill="black" text-anchor="middle" dy="0.3em"></text>
<text x="-100" y="-47" font-size="35" text-anchor="middle" dy="0.3em"></text>
<path d="M-100,-200 L-100,-100" stroke="black" stroke-width="5" />
<text x="83" y="-133.33333333333334" font-size="23.333333333333332" fill="black" text-anchor="middle" dy="0.3em"></text>
<text x="100" y="-47" font-size="35" text-anchor="middle" dy="0.3em"></text>
<path d="M100,-200 L100,-100" stroke="black" stroke-width="5" />
<text x="-17" y="133.33333333333334" font-size="23.333333333333332" fill="black" text-anchor="middle" dy="0.3em"></text>
<text x="0" y="47" font-size="35" text-anchor="middle" dy="0.3em"></text>
<path d="M0,200 L0,100" stroke="black" stroke-width="5" />
<metadata width="300" height="400" symbolPrefix="D" cmpPartDmgLabel="1:A" nameOfSymbol="D-2BZX84Cxx-1-A_thumbnail"><p-1><x>-100</x><y>200</y><type>P
                        </type><name>K</name><orientation>D</orientation>
                        <length>100</length><pinShape></pinShape>
                        </p-1><p-2><x>100</x><y>200</y><type>P
                        </type><name>K</name><orientation>D</orientation>
                        <length>100</length><pinShape></pinShape>
                        </p-2><p-3><x>0</x><y>-200</y><type>P
                        </type><name>A</name><orientation>U</orientation>
                        <length>100</length><pinShape></pinShape>
                        </p-3></metadata></svg>