<?xml version="1.0" encoding="UTF-8"?>
<svg xmlns="http://www.w3.org/2000/svg" xmlns:xlink="http://www.w3.org/1999/xlink"
     width="400" height="300" viewBox="-200.0 -150.0 400 300">
<defs>
</defs>
<circle cx="100" cy="0" r="10" stroke-width="6" stroke="black" fill="black" />
<path d="M-100,100 L0,100" stroke-width="6" stroke="black" fill-opacity="0" />
<path d="M-100,100 L0,100" stroke-width="6" stroke="black" fill-opacity="0" />
<path d="M-100,-100 L0,-100" stroke-width="6" stroke="black" fill-opacity="0" />
<path d="M-100,150 L-100,50 L0,100 L-100,150" stroke-width="10" stroke="black" fill-opacity="0" />
<path d="M-100,150 L-100,50 L0,100 L-100,150" stroke-width="10" stroke="black" fill-opacity="0" />
<path d="M-100,-50 L-100,-150 L0,-100 L-100,-50" stroke-width="10" stroke="black" fill-opacity="0" />
<path d="M0,-100 L100,-100 L100,100 L0,100" stroke-width="6" stroke="black" fill-opacity="0" />
<path d="M25,125 L25,150 L0,150 L0,50 L-25,50 L-25,75" stroke-width="10" stroke="black" fill-opacity="0" />
<path d="M25,125 L25,150 L0,150 L0,50 L-25,50 L-25,75" stroke-width="10" stroke="black" fill-opacity="0" />
<path d="M25,-75 L25,-50 L0,-50 L0,-150 L-25,-150 L-25,-125" stroke-width="10" stroke="black" fill-opacity="0" />
<text x="-150.0" y="-117" font-size="23.333333333333332" fill="black" text-anchor="middle" dy="0.3em"></text>
<text x="-34" y="-100" font-size="35" text-anchor="middle" dy="0.3em"></text>
<path d="M-200,-100 L-100,-100" stroke="black" stroke-width="5" />
<text x="150.0" y="-17" font-size="23.333333333333332" fill="black" text-anchor="middle" dy="0.3em"></text>
<text x="47" y="0" font-size="35" text-anchor="middle" dy="0.3em"></text>
<path d="M200,0 L100,0" stroke="black" stroke-width="5" />
<text x="-150.0" y="83" font-size="23.333333333333332" fill="black" text-anchor="middle" dy="0.3em"></text>
<text x="-34" y="100" font-size="35" text-anchor="middle" dy="0.3em"></text>
<path d="M-200,100 L-100,100" stroke="black" stroke-width="5" />
<metadata width="400" height="300" symbolPrefix="D" cmpPartDmgLabel="1:A" nameOfSymbol="D-C3D16060D-1-A_thumbnail"><p-1><x>-200</x><y>100</y><type>P
                        </type><name>A1</name><orientation>R</orientation>
                        <length>100</length><pinShape></pinShape>
                        </p-1><p-2><x>200</x><y>0</y><type>P
                        </type><name>K</name><orientation>L</orientation>
                        <length>100</length><pinShape></pinShape>
                        </p-2><p-3><x>-200</x><y>-100</y><type>P
                        </type><name>A2</name><orientation>R</orientation>
                        <length>100</length><pinShape></pinShape>
                        </p-3></metadata></svg>