<?xml version="1.0" encoding="UTF-8"?>
<svg xmlns="http://www.w3.org/2000/svg" xmlns:xlink="http://www.w3.org/1999/xlink"
     width="300" height="550" viewBox="-150.0 -275.0 300 550">
<defs>
</defs>
<path d="M-100,0 L-100,25" stroke-width="10" stroke="black" fill-opacity="0" />
<path d="M-100,0 L-50,0" stroke-width="10" stroke="black" fill-opacity="0" />
<path d="M50,0 L100,0" stroke-width="10" stroke="black" fill-opacity="0" />
<path d="M50,-50 L50,50" stroke-width="10" stroke="black" fill-opacity="0" />
<path d="M100,25 L100,0" stroke-width="6" stroke="black" fill-opacity="0" />
<path d="M100,-275 L100,75" stroke-width="10" stroke="black" fill-opacity="0" />
<path d="M-50,-50 L-50,50 L-50,0" stroke-width="10" stroke="black" fill-opacity="0" />
<path d="M150,-275 L100,-75 L50,-275" stroke-width="10" stroke="black" fill-opacity="0" />
<path d="M-25,-50 L25,-50 L25,50 L-25,50 L-25,-50" stroke-width="10" stroke="black" fill-opacity="0" />
<text x="-117" y="33.333333333333336" font-size="23.333333333333332" fill="black" text-anchor="middle" dy="0.3em"></text>
<text x="-100" y="-92" font-size="35" text-anchor="middle" dy="0.3em"></text>
<path d="M-100,100 L-100,0" stroke="black" stroke-width="5" />
<text x="83" y="33.333333333333336" font-size="23.333333333333332" fill="black" text-anchor="middle" dy="0.3em"></text>
<text x="100" y="-157" font-size="35" text-anchor="middle" dy="0.3em"></text>
<path d="M100,100 L100,0" stroke="black" stroke-width="5" />
<metadata width="300" height="550" symbolPrefix="AE" cmpPartDmgLabel="1:A" nameOfSymbol="AE-Antenna_Chip-1-A"><p-1><x>-100</x><y>-100</y><type>I
                        </type><name>FEED</name><orientation>U</orientation>
                        <length>100</length><pinShape></pinShape>
                        </p-1><p-2><x>100</x><y>-100</y><type>P
                        </type><name>PCB_Trace</name><orientation>U</orientation>
                        <length>100</length><pinShape></pinShape>
                        </p-2></metadata></svg>