<?xml version="1.0" encoding="UTF-8"?>
<svg xmlns="http://www.w3.org/2000/svg" xmlns:xlink="http://www.w3.org/1999/xlink"
     width="200" height="400" viewBox="-100.0 -200.0 200 400">
<defs>
</defs>
<path d="M-18.986668091268182,46.533421623214025 A32,32,0,0,0,0.005144290500122217,104.9842099317034" stroke="black" stroke-width="6" fill-opacity="0" />
<path d="M18.986668091268175,46.53342162321402 A32,32,0,0,1,-0.005144290500105564,104.98420993170342" stroke="black" stroke-width="6" fill-opacity="0" />
<circle cx="30" cy="75" r="7" stroke-width="6" stroke="black" fill="black" />
<path d="M0,100 L0,0" stroke-width="6" stroke="black" fill-opacity="0" />
<path d="M0,-200 L0,150" stroke-width="10" stroke="black" fill-opacity="0" />
<path d="M30,75 L100,75" stroke-width="6" stroke="black" fill-opacity="0" />
<path d="M100,100 L100,75" stroke-width="6" stroke="black" fill-opacity="0" />
<path d="M50,-200 L0,0 L-50,-200" stroke-width="10" stroke="black" fill-opacity="0" />
<text x="-17" y="133.33333333333334" font-size="23.333333333333332" fill="black" text-anchor="middle" dy="0.3em"></text>
<text x="0" y="47" font-size="35" text-anchor="middle" dy="0.3em"></text>
<path d="M0,200 L0,100" stroke="black" stroke-width="5" />
<text x="83" y="133.33333333333334" font-size="23.333333333333332" fill="black" text-anchor="middle" dy="0.3em"></text>
<text x="100" y="-18" font-size="35" text-anchor="middle" dy="0.3em"></text>
<path d="M100,200 L100,100" stroke="black" stroke-width="5" />
<metadata width="200" height="400" symbolPrefix="AE" cmpPartDmgLabel="1:A" nameOfSymbol="AE-Antenna_Shield-1-A"><p-1><x>0</x><y>-200</y><type>I
                        </type><name>A</name><orientation>U</orientation>
                        <length>100</length><pinShape></pinShape>
                        </p-1><p-2><x>100</x><y>-200</y><type>I
                        </type><name>Shield</name><orientation>U</orientation>
                        <length>100</length><pinShape></pinShape>
                        </p-2></metadata></svg>