<?xml version="1.0" encoding="UTF-8"?>
<svg xmlns="http://www.w3.org/2000/svg" xmlns:xlink="http://www.w3.org/1999/xlink"
     width="600" height="460" viewBox="-300.0 -230.0 600 460">
<defs>
</defs>
<circle cx="-80" cy="0" r="10" stroke-width="6" stroke="black" fill="black" />
<circle cx="0" cy="0" r="180" stroke-width="10" stroke="black" fill-opacity="0" />
<circle cx="90" cy="0" r="10" stroke-width="6" stroke="black" fill="black" />
<path d="M-180,0 L-100,0" stroke-width="6" stroke="black" fill-opacity="0" />
<path d="M-80,0 L-100,0" stroke-width="6" stroke="black" fill-opacity="0" />
<path d="M-40,-150 L-40,-50" stroke-width="10" stroke="black" fill-opacity="0" />
<path d="M50,50 L50,150" stroke-width="10" stroke="black" fill-opacity="0" />
<path d="M160,0 L90,0" stroke-width="6" stroke="black" fill="black" />
<path d="M170,-230 L170,-200" stroke-width="8" stroke="black" fill-opacity="0" />
<path d="M220,-180 L220,-150" stroke-width="8" stroke="black" fill-opacity="0" />
<path d="M110,-170 L170,-230 L140,-230" stroke-width="8" stroke="black" fill-opacity="0" />
<path d="M160,-120 L220,-180 L190,-180" stroke-width="8" stroke="black" fill-opacity="0" />
<path d="M-40,50 L-40,150 L50,100 L-40,50" stroke-width="10" stroke="black" fill-opacity="0" />
<path d="M50,-150 L50,-50 L-40,-100 L50,-150" stroke-width="10" stroke="black" fill-opacity="0" />
<path d="M90,-100 L-80,-100 L-80,100 L90,100 L90,-100" stroke-width="6" stroke="black" fill-opacity="0" />
<text x="225.0" y="-17" font-size="23.333333333333332" fill="black" text-anchor="middle" dy="0.3em"></text>
<text x="124" y="0" font-size="35" text-anchor="middle" dy="0.3em"></text>
<path d="M300,0 L150,0" stroke="black" stroke-width="5" />
<text x="-240.0" y="-17" font-size="23.333333333333332" fill="black" text-anchor="middle" dy="0.3em"></text>
<text x="-154" y="0" font-size="35" text-anchor="middle" dy="0.3em"></text>
<path d="M-300,0 L-180,0" stroke="black" stroke-width="5" />
<metadata width="600" height="460" symbolPrefix="D" cmpPartDmgLabel="1:A" nameOfSymbol="D-LED_Dual_2pin-1-A_thumbnail"><p-1><x>300</x><y>0</y><type>I
                        </type><name>KA</name><orientation>L</orientation>
                        <length>150</length><pinShape></pinShape>
                        </p-1><p-2><x>-300</x><y>0</y><type>I
                        </type><name>AK</name><orientation>R</orientation>
                        <length>120</length><pinShape></pinShape>
                        </p-2></metadata></svg>