<?xml version="1.0" encoding="UTF-8"?>
<svg xmlns="http://www.w3.org/2000/svg" xmlns:xlink="http://www.w3.org/1999/xlink"
     width="400" height="500" viewBox="-200.0 -250.0 400 500">
<defs>
</defs>
<path d="M-100,-50 L45,-50 L45,150 L-100,150 L-100,-50" stroke-width="10" stroke="black" fill-opacity="0" />
<path d="M-80,25 L25,25 L25,75 L-80,75 L-80,25" stroke-width="10" stroke="black" fill-opacity="0" />
<path d="M-65,90 L15,90" stroke-width="6" stroke="black" fill-opacity="0" />
<path d="M-65,10 L15,10" stroke-width="6" stroke="black" fill-opacity="0" />
<path d="M-25,90 L-25,120" stroke-width="6" stroke="black" fill-opacity="0" />
<path d="M-25,10 L-25,-20" stroke-width="6" stroke="black" fill-opacity="0" />
<path d="M45,-50 L145,-150 L145,250 L45,150" stroke-width="10" stroke="black" fill-opacity="0" />
<text x="-150.0" y="-17" font-size="23.333333333333332" fill="black" text-anchor="middle" dy="0.3em"></text>
<text x="-87" y="0" font-size="35" text-anchor="middle" dy="0.3em"></text>
<path d="M-200,0 L-100,0" stroke="black" stroke-width="5" />
<text x="-150.0" y="83" font-size="23.333333333333332" fill="black" text-anchor="middle" dy="0.3em"></text>
<text x="-87" y="100" font-size="35" text-anchor="middle" dy="0.3em"></text>
<path d="M-200,100 L-100,100" stroke="black" stroke-width="5" />
<metadata width="400" height="500" symbolPrefix="LS" cmpPartDmgLabel="1:A" nameOfSymbol="LS-Speaker_Crystal-1-A_thumbnail"><p-1><x>-200</x><y>0</y><type>I
                        </type><name>1</name><orientation>R</orientation>
                        <length>100</length><pinShape></pinShape>
                        </p-1><p-2><x>-200</x><y>-100</y><type>I
                        </type><name>2</name><orientation>R</orientation>
                        <length>100</length><pinShape></pinShape>
                        </p-2></metadata></svg>