<?xml version="1.0" encoding="UTF-8"?>
<svg xmlns="http://www.w3.org/2000/svg" xmlns:xlink="http://www.w3.org/1999/xlink"
     width="200" height="400" viewBox="-100.0 -200.0 200 400">
<defs>
</defs>
<path d="M-40.00002284630068,-20.026179925488474 A15,15,0,0,0,-69.99997715369932,-20.026179925488474" stroke="black" stroke-width="10" fill-opacity="0" />
<path d="M-29.999977153699316,20.02617992548847 A15,15,0,0,0,-2.2846300684165044e-05,20.026179925488478" stroke="black" stroke-width="10" fill-opacity="0" />
<path d="M39.99997715369932,-20.026179925488474 A15,15,0,0,0,10.000022846300684,-20.026179925488474" stroke="black" stroke-width="10" fill-opacity="0" />
<path d="M50.00002284630068,20.02617992548847 A15,15,0,0,0,79.99997715369932,20.026179925488478" stroke="black" stroke-width="10" fill-opacity="0" />
<circle cx="0" cy="0" r="100" stroke-width="10" stroke="black" fill-opacity="0" />
<path d="M-70,-20 L-75,0" stroke-width="10" stroke="black" fill-opacity="0" />
<path d="M-40,-20 L-30,20" stroke-width="10" stroke="black" fill-opacity="0" />
<path d="M0,20 L10,-20" stroke-width="10" stroke="black" fill-opacity="0" />
<path d="M40,-20 L50,20" stroke-width="10" stroke="black" fill-opacity="0" />
<path d="M80,20 L85,0" stroke-width="10" stroke="black" fill-opacity="0" />
<path d="M10,-150 L30,-150" stroke-width="6" stroke="black" fill-opacity="0" />
<path d="M20,-160 L20,-140" stroke-width="6" stroke="black" fill-opacity="0" />
<text x="-17" y="133.33333333333334" font-size="23.333333333333332" fill="black" text-anchor="middle" dy="0.3em"></text>
<text x="0" y="86" font-size="35" text-anchor="middle" dy="0.3em"></text>
<path d="M0,200 L0,100" stroke="black" stroke-width="5" />
<text x="-17" y="-133.33333333333334" font-size="23.333333333333332" fill="black" text-anchor="middle" dy="0.3em"></text>
<text x="0" y="-86" font-size="35" text-anchor="middle" dy="0.3em"></text>
<path d="M0,-200 L0,-100" stroke="black" stroke-width="5" />
<metadata width="200" height="400" symbolPrefix="MES" cmpPartDmgLabel="1:A" nameOfSymbol="MES-Oscilloscope-1-A_thumbnail"><p-1><x>0</x><y>-200</y><type>P
                        </type><name>-</name><orientation>U</orientation>
                        <length>100</length><pinShape></pinShape>
                        </p-1><p-2><x>0</x><y>200</y><type>P
                        </type><name>+</name><orientation>D</orientation>
                        <length>100</length><pinShape></pinShape>
                        </p-2></metadata></svg>