<?xml version="1.0" encoding="UTF-8"?>
<svg xmlns="http://www.w3.org/2000/svg" xmlns:xlink="http://www.w3.org/1999/xlink"
     width="500" height="600" viewBox="-250.0 -300.0 500 600">
<defs>
</defs>
<circle cx="-200" cy="0" r="10" stroke-width="6" stroke="black" fill="black" />
<circle cx="-200" cy="-166" r="10" stroke-width="6" stroke="black" fill="black" />
<circle cx="0" cy="0" r="10" stroke-width="6" stroke="black" fill="black" />
<circle cx="60" cy="166" r="10" stroke-width="6" stroke="black" fill="black" />
<path d="M-160,133 L-120,133 L-120,33 L-160,33 L-160,133" stroke-width="10" stroke="black" fill-opacity="0" />
<path d="M-20,-133 L20,-133 L20,-33 L-20,-33 L-20,-133" stroke-width="10" stroke="black" fill-opacity="0" />
<path d="M-220,-133 L-180,-133 L-180,-33 L-220,-33 L-220,-133" stroke-width="10" stroke="black" fill-opacity="0" />
<path d="M-250,200 L150,200 L150,-200 L-250,-200 L-250,200" stroke-width="10" stroke="black" fill-opacity="0" />
<path d="M40,133 L80,133 L80,33 L40,33 L40,133" stroke-width="10" stroke="black" fill-opacity="0" />
<path d="M-200,200 L-200,-33" stroke-width="6" stroke="black" fill-opacity="0" />
<path d="M-200,-200 L-200,-133" stroke-width="6" stroke="black" fill-opacity="0" />
<path d="M0,200 L0,-33" stroke-width="6" stroke="black" fill-opacity="0" />
<path d="M100,166 L100,-200" stroke-width="6" stroke="black" fill-opacity="0" />
<path d="M-140,133 L-140,166 L100,166" stroke-width="6" stroke="black" fill-opacity="0" />
<path d="M-200,0 L-140,0 L-140,33" stroke-width="6" stroke="black" fill-opacity="0" />
<path d="M-200,-166 L0,-166 L0,-133" stroke-width="6" stroke="black" fill-opacity="0" />
<path d="M0,0 L60,0 L60,33" stroke-width="6" stroke="black" fill-opacity="0" />
<path d="M60,133 L60,166 L100,166" stroke-width="6" stroke="black" fill-opacity="0" />
<text x="-217" y="-233.33333333333334" font-size="23.333333333333332" fill="black" text-anchor="middle" dy="0.3em"></text>
<text x="-200" y="-148" font-size="35" text-anchor="middle" dy="0.3em"></text>
<path d="M-200,-300 L-200,-200" stroke="black" stroke-width="5" />
<text x="83" y="-233.33333333333334" font-size="23.333333333333332" fill="black" text-anchor="middle" dy="0.3em"></text>
<text x="100" y="-148" font-size="35" text-anchor="middle" dy="0.3em"></text>
<path d="M100,-300 L100,-200" stroke="black" stroke-width="5" />
<text x="-217" y="233.33333333333334" font-size="23.333333333333332" fill="black" text-anchor="middle" dy="0.3em"></text>
<text x="-200" y="174" font-size="35" text-anchor="middle" dy="0.3em"></text>
<path d="M-200,300 L-200,200" stroke="black" stroke-width="5" />
<text x="-17" y="233.33333333333334" font-size="23.333333333333332" fill="black" text-anchor="middle" dy="0.3em"></text>
<text x="0" y="174" font-size="35" text-anchor="middle" dy="0.3em"></text>
<path d="M0,300 L0,200" stroke="black" stroke-width="5" />
<metadata width="500" height="600" symbolPrefix="RN" cmpPartDmgLabel="1:A" nameOfSymbol="RN-R_Network_Dividers_x02_SIP-1-A_thumbnail"><p-1><x>-200</x><y>300</y><type>P
                        </type><name>COM1</name><orientation>D</orientation>
                        <length>100</length><pinShape></pinShape>
                        </p-1><p-4><x>100</x><y>300</y><type>P
                        </type><name>COM2</name><orientation>D</orientation>
                        <length>100</length><pinShape></pinShape>
                        </p-4><p-2><x>-200</x><y>-300</y><type>P
                        </type><name>R1</name><orientation>U</orientation>
                        <length>100</length><pinShape></pinShape>
                        </p-2><p-3><x>0</x><y>-300</y><type>P
                        </type><name>R2</name><orientation>U</orientation>
                        <length>100</length><pinShape></pinShape>
                        </p-3></metadata></svg>