<?xml version="1.0" encoding="UTF-8"?>
<svg xmlns="http://www.w3.org/2000/svg" xmlns:xlink="http://www.w3.org/1999/xlink"
     width="500" height="400" viewBox="-250.0 -200.0 500 400">
<defs>
</defs>
<path d="M-230,-110 L-170,-110 L-170,50 L-230,50 L-230,-110" stroke-width="10" stroke="black" fill-opacity="0" />
<path d="M-250,75 L250,75 L250,-175 L-250,-175 L-250,75" stroke-width="10" stroke="black" fill-opacity="0" />
<path d="M70,-110 L130,-110 L130,50 L70,50 L70,-110" stroke-width="10" stroke="black" fill-opacity="0" />
<path d="M-200,-110 L-200,-140 L-100,-140 L-100,50" stroke-width="6" stroke="black" fill-opacity="0" />
<path d="M100,-110 L100,-140 L200,-140 L200,50" stroke-width="6" stroke="black" fill-opacity="0" />
<text x="-217" y="100.0" font-size="23.333333333333332" fill="black" text-anchor="middle" dy="0.3em"></text>
<text x="-200" y="-2" font-size="35" text-anchor="middle" dy="0.3em"></text>
<path d="M-200,200 L-200,50" stroke="black" stroke-width="5" />
<text x="-117" y="100.0" font-size="23.333333333333332" fill="black" text-anchor="middle" dy="0.3em"></text>
<text x="-100" y="-2" font-size="35" text-anchor="middle" dy="0.3em"></text>
<path d="M-100,200 L-100,50" stroke="black" stroke-width="5" />
<text x="83" y="100.0" font-size="23.333333333333332" fill="black" text-anchor="middle" dy="0.3em"></text>
<text x="100" y="-2" font-size="35" text-anchor="middle" dy="0.3em"></text>
<path d="M100,200 L100,50" stroke="black" stroke-width="5" />
<text x="183" y="100.0" font-size="23.333333333333332" fill="black" text-anchor="middle" dy="0.3em"></text>
<text x="200" y="-2" font-size="35" text-anchor="middle" dy="0.3em"></text>
<path d="M200,200 L200,50" stroke="black" stroke-width="5" />
<metadata width="500" height="400" symbolPrefix="RN" cmpPartDmgLabel="1:A" nameOfSymbol="RN-R_Pack02_SIP-1-A_thumbnail"><p-1><x>-200</x><y>-200</y><type>P
                        </type><name>R1.1</name><orientation>U</orientation>
                        <length>150</length><pinShape></pinShape>
                        </p-1><p-2><x>-100</x><y>-200</y><type>P
                        </type><name>R1.2</name><orientation>U</orientation>
                        <length>150</length><pinShape></pinShape>
                        </p-2><p-3><x>100</x><y>-200</y><type>P
                        </type><name>R2.1</name><orientation>U</orientation>
                        <length>150</length><pinShape></pinShape>
                        </p-3><p-4><x>200</x><y>-200</y><type>P
                        </type><name>R2.2</name><orientation>U</orientation>
                        <length>150</length><pinShape></pinShape>
                        </p-4></metadata></svg>