<?xml version="1.0" encoding="UTF-8"?>
<svg xmlns="http://www.w3.org/2000/svg" xmlns:xlink="http://www.w3.org/1999/xlink"
     width="1100" height="400" viewBox="-550.0 -200.0 1100 400">
<defs>
</defs>
<path d="M-125,-75 L-75,-75 L-75,75 L-125,75 L-125,-75" stroke-width="10" stroke="black" fill-opacity="0" />
<path d="M-225,-75 L-175,-75 L-175,75 L-225,75 L-225,-75" stroke-width="10" stroke="black" fill-opacity="0" />
<path d="M-25,-75 L25,-75 L25,75 L-25,75 L-25,-75" stroke-width="10" stroke="black" fill-opacity="0" />
<path d="M-325,-75 L-275,-75 L-275,75 L-325,75 L-325,-75" stroke-width="10" stroke="black" fill-opacity="0" />
<path d="M-425,-75 L-375,-75 L-375,75 L-425,75 L-425,-75" stroke-width="10" stroke="black" fill-opacity="0" />
<path d="M-525,-75 L-475,-75 L-475,75 L-525,75 L-525,-75" stroke-width="10" stroke="black" fill-opacity="0" />
<path d="M-550,95 L550,95 L550,-95 L-550,-95 L-550,95" stroke-width="10" stroke="black" fill-opacity="0" />
<path d="M175,-75 L225,-75 L225,75 L175,75 L175,-75" stroke-width="10" stroke="black" fill-opacity="0" />
<path d="M275,-75 L325,-75 L325,75 L275,75 L275,-75" stroke-width="10" stroke="black" fill-opacity="0" />
<path d="M375,-75 L425,-75 L425,75 L375,75 L375,-75" stroke-width="10" stroke="black" fill-opacity="0" />
<path d="M475,-75 L525,-75 L525,75 L475,75 L475,-75" stroke-width="10" stroke="black" fill-opacity="0" />
<path d="M75,-75 L125,-75 L125,75 L75,75 L75,-75" stroke-width="10" stroke="black" fill-opacity="0" />
<path d="M-100,100 L-100,75" stroke-width="6" stroke="black" fill-opacity="0" />
<path d="M-100,-75 L-100,-100" stroke-width="6" stroke="black" fill-opacity="0" />
<path d="M-200,100 L-200,75" stroke-width="6" stroke="black" fill-opacity="0" />
<path d="M-200,-75 L-200,-100" stroke-width="6" stroke="black" fill-opacity="0" />
<path d="M-300,100 L-300,75" stroke-width="6" stroke="black" fill-opacity="0" />
<path d="M-300,-75 L-300,-100" stroke-width="6" stroke="black" fill-opacity="0" />
<path d="M-400,100 L-400,75" stroke-width="6" stroke="black" fill-opacity="0" />
<path d="M-400,-75 L-400,-100" stroke-width="6" stroke="black" fill-opacity="0" />
<path d="M-500,100 L-500,75" stroke-width="6" stroke="black" fill-opacity="0" />
<path d="M-500,-75 L-500,-100" stroke-width="6" stroke="black" fill-opacity="0" />
<path d="M0,100 L0,75" stroke-width="6" stroke="black" fill-opacity="0" />
<path d="M0,-75 L0,-100" stroke-width="6" stroke="black" fill-opacity="0" />
<path d="M100,100 L100,75" stroke-width="6" stroke="black" fill-opacity="0" />
<path d="M100,-75 L100,-100" stroke-width="6" stroke="black" fill-opacity="0" />
<path d="M200,100 L200,75" stroke-width="6" stroke="black" fill-opacity="0" />
<path d="M200,-75 L200,-100" stroke-width="6" stroke="black" fill-opacity="0" />
<path d="M300,100 L300,75" stroke-width="6" stroke="black" fill-opacity="0" />
<path d="M300,-75 L300,-100" stroke-width="6" stroke="black" fill-opacity="0" />
<path d="M400,100 L400,75" stroke-width="6" stroke="black" fill-opacity="0" />
<path d="M400,-75 L400,-100" stroke-width="6" stroke="black" fill-opacity="0" />
<path d="M500,100 L500,75" stroke-width="6" stroke="black" fill-opacity="0" />
<path d="M500,-75 L500,-100" stroke-width="6" stroke="black" fill-opacity="0" />
<text x="-517" y="133.33333333333334" font-size="23.333333333333332" fill="black" text-anchor="middle" dy="0.3em"></text>
<text x="-500" y="48" font-size="35" text-anchor="middle" dy="0.3em"></text>
<path d="M-500,200 L-500,100" stroke="black" stroke-width="5" />
<text x="-517" y="-133.33333333333334" font-size="23.333333333333332" fill="black" text-anchor="middle" dy="0.3em"></text>
<text x="-500" y="-48" font-size="35" text-anchor="middle" dy="0.3em"></text>
<path d="M-500,-200 L-500,-100" stroke="black" stroke-width="5" />
<text x="383" y="133.33333333333334" font-size="23.333333333333332" fill="black" text-anchor="middle" dy="0.3em"></text>
<text x="400" y="35" font-size="35" text-anchor="middle" dy="0.3em"></text>
<path d="M400,200 L400,100" stroke="black" stroke-width="5" />
<text x="383" y="-133.33333333333334" font-size="23.333333333333332" fill="black" text-anchor="middle" dy="0.3em"></text>
<text x="400" y="-35" font-size="35" text-anchor="middle" dy="0.3em"></text>
<path d="M400,-200 L400,-100" stroke="black" stroke-width="5" />
<text x="483" y="133.33333333333334" font-size="23.333333333333332" fill="black" text-anchor="middle" dy="0.3em"></text>
<text x="500" y="35" font-size="35" text-anchor="middle" dy="0.3em"></text>
<path d="M500,200 L500,100" stroke="black" stroke-width="5" />
<text x="483" y="-133.33333333333334" font-size="23.333333333333332" fill="black" text-anchor="middle" dy="0.3em"></text>
<text x="500" y="-35" font-size="35" text-anchor="middle" dy="0.3em"></text>
<path d="M500,-200 L500,-100" stroke="black" stroke-width="5" />
<text x="-417" y="133.33333333333334" font-size="23.333333333333332" fill="black" text-anchor="middle" dy="0.3em"></text>
<text x="-400" y="48" font-size="35" text-anchor="middle" dy="0.3em"></text>
<path d="M-400,200 L-400,100" stroke="black" stroke-width="5" />
<text x="-417" y="-133.33333333333334" font-size="23.333333333333332" fill="black" text-anchor="middle" dy="0.3em"></text>
<text x="-400" y="-48" font-size="35" text-anchor="middle" dy="0.3em"></text>
<path d="M-400,-200 L-400,-100" stroke="black" stroke-width="5" />
<text x="-317" y="133.33333333333334" font-size="23.333333333333332" fill="black" text-anchor="middle" dy="0.3em"></text>
<text x="-300" y="48" font-size="35" text-anchor="middle" dy="0.3em"></text>
<path d="M-300,200 L-300,100" stroke="black" stroke-width="5" />
<text x="-317" y="-133.33333333333334" font-size="23.333333333333332" fill="black" text-anchor="middle" dy="0.3em"></text>
<text x="-300" y="-48" font-size="35" text-anchor="middle" dy="0.3em"></text>
<path d="M-300,-200 L-300,-100" stroke="black" stroke-width="5" />
<text x="-217" y="133.33333333333334" font-size="23.333333333333332" fill="black" text-anchor="middle" dy="0.3em"></text>
<text x="-200" y="48" font-size="35" text-anchor="middle" dy="0.3em"></text>
<path d="M-200,200 L-200,100" stroke="black" stroke-width="5" />
<text x="-217" y="-133.33333333333334" font-size="23.333333333333332" fill="black" text-anchor="middle" dy="0.3em"></text>
<text x="-200" y="-48" font-size="35" text-anchor="middle" dy="0.3em"></text>
<path d="M-200,-200 L-200,-100" stroke="black" stroke-width="5" />
<text x="-117" y="133.33333333333334" font-size="23.333333333333332" fill="black" text-anchor="middle" dy="0.3em"></text>
<text x="-100" y="48" font-size="35" text-anchor="middle" dy="0.3em"></text>
<path d="M-100,200 L-100,100" stroke="black" stroke-width="5" />
<text x="-117" y="-133.33333333333334" font-size="23.333333333333332" fill="black" text-anchor="middle" dy="0.3em"></text>
<text x="-100" y="-48" font-size="35" text-anchor="middle" dy="0.3em"></text>
<path d="M-100,-200 L-100,-100" stroke="black" stroke-width="5" />
<text x="-17" y="133.33333333333334" font-size="23.333333333333332" fill="black" text-anchor="middle" dy="0.3em"></text>
<text x="0" y="48" font-size="35" text-anchor="middle" dy="0.3em"></text>
<path d="M0,200 L0,100" stroke="black" stroke-width="5" />
<text x="-17" y="-133.33333333333334" font-size="23.333333333333332" fill="black" text-anchor="middle" dy="0.3em"></text>
<text x="0" y="-48" font-size="35" text-anchor="middle" dy="0.3em"></text>
<path d="M0,-200 L0,-100" stroke="black" stroke-width="5" />
<text x="83" y="133.33333333333334" font-size="23.333333333333332" fill="black" text-anchor="middle" dy="0.3em"></text>
<text x="100" y="48" font-size="35" text-anchor="middle" dy="0.3em"></text>
<path d="M100,200 L100,100" stroke="black" stroke-width="5" />
<text x="83" y="-133.33333333333334" font-size="23.333333333333332" fill="black" text-anchor="middle" dy="0.3em"></text>
<text x="100" y="-48" font-size="35" text-anchor="middle" dy="0.3em"></text>
<path d="M100,-200 L100,-100" stroke="black" stroke-width="5" />
<text x="183" y="133.33333333333334" font-size="23.333333333333332" fill="black" text-anchor="middle" dy="0.3em"></text>
<text x="200" y="48" font-size="35" text-anchor="middle" dy="0.3em"></text>
<path d="M200,200 L200,100" stroke="black" stroke-width="5" />
<text x="183" y="-133.33333333333334" font-size="23.333333333333332" fill="black" text-anchor="middle" dy="0.3em"></text>
<text x="200" y="-48" font-size="35" text-anchor="middle" dy="0.3em"></text>
<path d="M200,-200 L200,-100" stroke="black" stroke-width="5" />
<text x="283" y="133.33333333333334" font-size="23.333333333333332" fill="black" text-anchor="middle" dy="0.3em"></text>
<text x="300" y="48" font-size="35" text-anchor="middle" dy="0.3em"></text>
<path d="M300,200 L300,100" stroke="black" stroke-width="5" />
<text x="283" y="-133.33333333333334" font-size="23.333333333333332" fill="black" text-anchor="middle" dy="0.3em"></text>
<text x="300" y="-48" font-size="35" text-anchor="middle" dy="0.3em"></text>
<path d="M300,-200 L300,-100" stroke="black" stroke-width="5" />
<metadata width="1100" height="400" symbolPrefix="RN" cmpPartDmgLabel="1:A" nameOfSymbol="RN-R_Pack11-1-A_thumbnail"><p-1><x>-500</x><y>-200</y><type>P
                        </type><name>R1.1</name><orientation>U</orientation>
                        <length>100</length><pinShape></pinShape>
                        </p-1><p-22><x>-500</x><y>200</y><type>P
                        </type><name>R1.2</name><orientation>D</orientation>
                        <length>100</length><pinShape></pinShape>
                        </p-22><p-10><x>400</x><y>-200</y><type>P
                        </type><name>R10.1</name><orientation>U</orientation>
                        <length>100</length><pinShape></pinShape>
                        </p-10><p-13><x>400</x><y>200</y><type>P
                        </type><name>R10.2</name><orientation>D</orientation>
                        <length>100</length><pinShape></pinShape>
                        </p-13><p-11><x>500</x><y>-200</y><type>P
                        </type><name>R11.1</name><orientation>U</orientation>
                        <length>100</length><pinShape></pinShape>
                        </p-11><p-12><x>500</x><y>200</y><type>P
                        </type><name>R11.2</name><orientation>D</orientation>
                        <length>100</length><pinShape></pinShape>
                        </p-12><p-2><x>-400</x><y>-200</y><type>P
                        </type><name>R2.1</name><orientation>U</orientation>
                        <length>100</length><pinShape></pinShape>
                        </p-2><p-21><x>-400</x><y>200</y><type>P
                        </type><name>R2.2</name><orientation>D</orientation>
                        <length>100</length><pinShape></pinShape>
                        </p-21><p-3><x>-300</x><y>-200</y><type>P
                        </type><name>R3.1</name><orientation>U</orientation>
                        <length>100</length><pinShape></pinShape>
                        </p-3><p-20><x>-300</x><y>200</y><type>P
                        </type><name>R3.2</name><orientation>D</orientation>
                        <length>100</length><pinShape></pinShape>
                        </p-20><p-4><x>-200</x><y>-200</y><type>P
                        </type><name>R4.1</name><orientation>U</orientation>
                        <length>100</length><pinShape></pinShape>
                        </p-4><p-19><x>-200</x><y>200</y><type>P
                        </type><name>R4.2</name><orientation>D</orientation>
                        <length>100</length><pinShape></pinShape>
                        </p-19><p-5><x>-100</x><y>-200</y><type>P
                        </type><name>R5.1</name><orientation>U</orientation>
                        <length>100</length><pinShape></pinShape>
                        </p-5><p-18><x>-100</x><y>200</y><type>P
                        </type><name>R5.2</name><orientation>D</orientation>
                        <length>100</length><pinShape></pinShape>
                        </p-18><p-6><x>0</x><y>-200</y><type>P
                        </type><name>R6.1</name><orientation>U</orientation>
                        <length>100</length><pinShape></pinShape>
                        </p-6><p-17><x>0</x><y>200</y><type>P
                        </type><name>R6.2</name><orientation>D</orientation>
                        <length>100</length><pinShape></pinShape>
                        </p-17><p-7><x>100</x><y>-200</y><type>P
                        </type><name>R7.1</name><orientation>U</orientation>
                        <length>100</length><pinShape></pinShape>
                        </p-7><p-16><x>100</x><y>200</y><type>P
                        </type><name>R7.2</name><orientation>D</orientation>
                        <length>100</length><pinShape></pinShape>
                        </p-16><p-8><x>200</x><y>-200</y><type>P
                        </type><name>R8.1</name><orientation>U</orientation>
                        <length>100</length><pinShape></pinShape>
                        </p-8><p-15><x>200</x><y>200</y><type>P
                        </type><name>R8.2</name><orientation>D</orientation>
                        <length>100</length><pinShape></pinShape>
                        </p-15><p-9><x>300</x><y>-200</y><type>P
                        </type><name>R9.1</name><orientation>U</orientation>
                        <length>100</length><pinShape></pinShape>
                        </p-9><p-14><x>300</x><y>200</y><type>P
                        </type><name>R9.2</name><orientation>D</orientation>
                        <length>100</length><pinShape></pinShape>
                        </p-14></metadata></svg>