<?xml version="1.0" encoding="UTF-8"?>
<svg xmlns="http://www.w3.org/2000/svg" xmlns:xlink="http://www.w3.org/1999/xlink"
     width="1300" height="400" viewBox="-650.0 -200.0 1300 400">
<defs>
</defs>
<circle cx="-100" cy="-90" r="10" stroke-width="6" stroke="black" fill="black" />
<circle cx="-200" cy="-90" r="10" stroke-width="6" stroke="black" fill="black" />
<circle cx="-300" cy="-90" r="10" stroke-width="6" stroke="black" fill="black" />
<circle cx="-400" cy="-90" r="10" stroke-width="6" stroke="black" fill="black" />
<circle cx="-500" cy="-90" r="10" stroke-width="6" stroke="black" fill="black" />
<circle cx="-600" cy="-90" r="10" stroke-width="6" stroke="black" fill="black" />
<circle cx="0" cy="-90" r="10" stroke-width="6" stroke="black" fill="black" />
<circle cx="100" cy="-90" r="10" stroke-width="6" stroke="black" fill="black" />
<circle cx="200" cy="-90" r="10" stroke-width="6" stroke="black" fill="black" />
<circle cx="300" cy="-90" r="10" stroke-width="6" stroke="black" fill="black" />
<circle cx="400" cy="-90" r="10" stroke-width="6" stroke="black" fill="black" />
<path d="M-650,125 L550,125 L550,-125 L-650,-125 L-650,125" stroke-width="10" stroke="black" fill-opacity="0" />
<path d="M-100,-90 L-100,-60 L-70,-46 L-130,-20 L-70,6 L-130,33 L-70,60 L-130,86 L-100,100 L-100,150" stroke-width="6" stroke="black" fill-opacity="0" />
<path d="M-200,-90 L-200,-60 L-170,-46 L-230,-20 L-170,6 L-230,33 L-170,60 L-230,86 L-200,100 L-200,150" stroke-width="6" stroke="black" fill-opacity="0" />
<path d="M-300,-90 L-300,-60 L-270,-46 L-330,-20 L-270,6 L-330,33 L-270,60 L-330,86 L-300,100 L-300,150" stroke-width="6" stroke="black" fill-opacity="0" />
<path d="M-400,-90 L-400,-60 L-370,-46 L-430,-20 L-370,6 L-430,33 L-370,60 L-430,86 L-400,100 L-400,150" stroke-width="6" stroke="black" fill-opacity="0" />
<path d="M-500,-90 L-500,-60 L-470,-46 L-530,-20 L-470,6 L-530,33 L-470,60 L-530,86 L-500,100 L-500,150" stroke-width="6" stroke="black" fill-opacity="0" />
<path d="M-600,-90 L-600,-60 L-570,-46 L-630,-20 L-570,6 L-630,33 L-570,60 L-630,86 L-600,100 L-600,150" stroke-width="6" stroke="black" fill-opacity="0" />
<path d="M0,-90 L0,-60 L30,-46 L-30,-20 L30,6 L-30,33 L30,60 L-30,86 L0,100 L0,150" stroke-width="6" stroke="black" fill-opacity="0" />
<path d="M100,-90 L100,-60 L130,-46 L70,-20 L130,6 L70,33 L130,60 L70,86 L100,100 L100,150" stroke-width="6" stroke="black" fill-opacity="0" />
<path d="M200,-90 L200,-60 L230,-46 L170,-20 L230,6 L170,33 L230,60 L170,86 L200,100 L200,150" stroke-width="6" stroke="black" fill-opacity="0" />
<path d="M300,-90 L300,-60 L330,-46 L270,-20 L330,6 L270,33 L330,60 L270,86 L300,100 L300,150" stroke-width="6" stroke="black" fill-opacity="0" />
<path d="M400,-90 L400,-60 L430,-46 L370,-20 L430,6 L370,33 L430,60 L370,86 L400,100 L400,150" stroke-width="6" stroke="black" fill-opacity="0" />
<path d="M500,-90 L500,-60 L530,-46 L470,-20 L530,6 L470,33 L530,60 L470,86 L500,100 L500,150" stroke-width="6" stroke="black" fill-opacity="0" />
<path d="M-600,-90 L500,-90" stroke-width="6" stroke="black" fill-opacity="0" />
<text x="-617" y="166.66666666666666" font-size="23.333333333333332" fill="black" text-anchor="middle" dy="0.3em"></text>
<text x="-600" y="124" font-size="35" text-anchor="middle" dy="0.3em"></text>
<path d="M-600,200 L-600,150" stroke="black" stroke-width="5" />
<text x="283" y="166.66666666666666" font-size="23.333333333333332" fill="black" text-anchor="middle" dy="0.3em"></text>
<text x="300" y="111" font-size="35" text-anchor="middle" dy="0.3em"></text>
<path d="M300,200 L300,150" stroke="black" stroke-width="5" />
<text x="383" y="166.66666666666666" font-size="23.333333333333332" fill="black" text-anchor="middle" dy="0.3em"></text>
<text x="400" y="111" font-size="35" text-anchor="middle" dy="0.3em"></text>
<path d="M400,200 L400,150" stroke="black" stroke-width="5" />
<text x="483" y="166.66666666666666" font-size="23.333333333333332" fill="black" text-anchor="middle" dy="0.3em"></text>
<text x="500" y="111" font-size="35" text-anchor="middle" dy="0.3em"></text>
<path d="M500,200 L500,150" stroke="black" stroke-width="5" />
<text x="-517" y="166.66666666666666" font-size="23.333333333333332" fill="black" text-anchor="middle" dy="0.3em"></text>
<text x="-500" y="124" font-size="35" text-anchor="middle" dy="0.3em"></text>
<path d="M-500,200 L-500,150" stroke="black" stroke-width="5" />
<text x="-417" y="166.66666666666666" font-size="23.333333333333332" fill="black" text-anchor="middle" dy="0.3em"></text>
<text x="-400" y="124" font-size="35" text-anchor="middle" dy="0.3em"></text>
<path d="M-400,200 L-400,150" stroke="black" stroke-width="5" />
<text x="-317" y="166.66666666666666" font-size="23.333333333333332" fill="black" text-anchor="middle" dy="0.3em"></text>
<text x="-300" y="124" font-size="35" text-anchor="middle" dy="0.3em"></text>
<path d="M-300,200 L-300,150" stroke="black" stroke-width="5" />
<text x="-217" y="166.66666666666666" font-size="23.333333333333332" fill="black" text-anchor="middle" dy="0.3em"></text>
<text x="-200" y="124" font-size="35" text-anchor="middle" dy="0.3em"></text>
<path d="M-200,200 L-200,150" stroke="black" stroke-width="5" />
<text x="-117" y="166.66666666666666" font-size="23.333333333333332" fill="black" text-anchor="middle" dy="0.3em"></text>
<text x="-100" y="124" font-size="35" text-anchor="middle" dy="0.3em"></text>
<path d="M-100,200 L-100,150" stroke="black" stroke-width="5" />
<text x="-17" y="166.66666666666666" font-size="23.333333333333332" fill="black" text-anchor="middle" dy="0.3em"></text>
<text x="0" y="124" font-size="35" text-anchor="middle" dy="0.3em"></text>
<path d="M0,200 L0,150" stroke="black" stroke-width="5" />
<text x="83" y="166.66666666666666" font-size="23.333333333333332" fill="black" text-anchor="middle" dy="0.3em"></text>
<text x="100" y="124" font-size="35" text-anchor="middle" dy="0.3em"></text>
<path d="M100,200 L100,150" stroke="black" stroke-width="5" />
<text x="183" y="166.66666666666666" font-size="23.333333333333332" fill="black" text-anchor="middle" dy="0.3em"></text>
<text x="200" y="124" font-size="35" text-anchor="middle" dy="0.3em"></text>
<path d="M200,200 L200,150" stroke="black" stroke-width="5" />
<text x="-617" y="-133.33333333333334" font-size="23.333333333333332" fill="black" text-anchor="middle" dy="0.3em"></text>
<text x="-600" y="-22" font-size="35" text-anchor="middle" dy="0.3em"></text>
<path d="M-600,-200 L-600,-100" stroke="black" stroke-width="5" />
<metadata width="1300" height="400" symbolPrefix="RN" cmpPartDmgLabel="1:A" nameOfSymbol="RN-R_Network12_US-1-A"><p-2><x>-600</x><y>-200</y><type>P
                        </type><name>R1</name><orientation>U</orientation>
                        <length>50</length><pinShape></pinShape>
                        </p-2><p-11><x>300</x><y>-200</y><type>P
                        </type><name>R10</name><orientation>U</orientation>
                        <length>50</length><pinShape></pinShape>
                        </p-11><p-12><x>400</x><y>-200</y><type>P
                        </type><name>R11</name><orientation>U</orientation>
                        <length>50</length><pinShape></pinShape>
                        </p-12><p-13><x>500</x><y>-200</y><type>P
                        </type><name>R12</name><orientation>U</orientation>
                        <length>50</length><pinShape></pinShape>
                        </p-13><p-3><x>-500</x><y>-200</y><type>P
                        </type><name>R2</name><orientation>U</orientation>
                        <length>50</length><pinShape></pinShape>
                        </p-3><p-4><x>-400</x><y>-200</y><type>P
                        </type><name>R3</name><orientation>U</orientation>
                        <length>50</length><pinShape></pinShape>
                        </p-4><p-5><x>-300</x><y>-200</y><type>P
                        </type><name>R4</name><orientation>U</orientation>
                        <length>50</length><pinShape></pinShape>
                        </p-5><p-6><x>-200</x><y>-200</y><type>P
                        </type><name>R5</name><orientation>U</orientation>
                        <length>50</length><pinShape></pinShape>
                        </p-6><p-7><x>-100</x><y>-200</y><type>P
                        </type><name>R6</name><orientation>U</orientation>
                        <length>50</length><pinShape></pinShape>
                        </p-7><p-8><x>0</x><y>-200</y><type>P
                        </type><name>R7</name><orientation>U</orientation>
                        <length>50</length><pinShape></pinShape>
                        </p-8><p-9><x>100</x><y>-200</y><type>P
                        </type><name>R8</name><orientation>U</orientation>
                        <length>50</length><pinShape></pinShape>
                        </p-9><p-10><x>200</x><y>-200</y><type>P
                        </type><name>R9</name><orientation>U</orientation>
                        <length>50</length><pinShape></pinShape>
                        </p-10><p-1><x>-600</x><y>200</y><type>P
                        </type><name>common</name><orientation>D</orientation>
                        <length>100</length><pinShape></pinShape>
                        </p-1></metadata></svg>