<?xml version="1.0" encoding="UTF-8"?>
<svg xmlns="http://www.w3.org/2000/svg" xmlns:xlink="http://www.w3.org/1999/xlink"
     width="1100" height="400" viewBox="-550.0 -200.0 1100 400">
<defs>
</defs>
<path d="M-230,-110 L-170,-110 L-170,50 L-230,50 L-230,-110" stroke-width="10" stroke="black" fill-opacity="0" />
<path d="M-530,-110 L-470,-110 L-470,50 L-530,50 L-530,-110" stroke-width="10" stroke="black" fill-opacity="0" />
<path d="M-550,75 L550,75 L550,-175 L-550,-175 L-550,75" stroke-width="10" stroke="black" fill-opacity="0" />
<path d="M370,-110 L430,-110 L430,50 L370,50 L370,-110" stroke-width="10" stroke="black" fill-opacity="0" />
<path d="M70,-110 L130,-110 L130,50 L70,50 L70,-110" stroke-width="10" stroke="black" fill-opacity="0" />
<path d="M-200,-110 L-200,-140 L-100,-140 L-100,50" stroke-width="6" stroke="black" fill-opacity="0" />
<path d="M-500,-110 L-500,-140 L-400,-140 L-400,50" stroke-width="6" stroke="black" fill-opacity="0" />
<path d="M100,-110 L100,-140 L200,-140 L200,50" stroke-width="6" stroke="black" fill-opacity="0" />
<path d="M400,-110 L400,-140 L500,-140 L500,50" stroke-width="6" stroke="black" fill-opacity="0" />
<text x="-517" y="100.0" font-size="23.333333333333332" fill="black" text-anchor="middle" dy="0.3em"></text>
<text x="-500" y="-2" font-size="35" text-anchor="middle" dy="0.3em"></text>
<path d="M-500,200 L-500,50" stroke="black" stroke-width="5" />
<text x="-417" y="100.0" font-size="23.333333333333332" fill="black" text-anchor="middle" dy="0.3em"></text>
<text x="-400" y="-2" font-size="35" text-anchor="middle" dy="0.3em"></text>
<path d="M-400,200 L-400,50" stroke="black" stroke-width="5" />
<text x="-217" y="100.0" font-size="23.333333333333332" fill="black" text-anchor="middle" dy="0.3em"></text>
<text x="-200" y="-2" font-size="35" text-anchor="middle" dy="0.3em"></text>
<path d="M-200,200 L-200,50" stroke="black" stroke-width="5" />
<text x="-117" y="100.0" font-size="23.333333333333332" fill="black" text-anchor="middle" dy="0.3em"></text>
<text x="-100" y="-2" font-size="35" text-anchor="middle" dy="0.3em"></text>
<path d="M-100,200 L-100,50" stroke="black" stroke-width="5" />
<text x="83" y="100.0" font-size="23.333333333333332" fill="black" text-anchor="middle" dy="0.3em"></text>
<text x="100" y="-2" font-size="35" text-anchor="middle" dy="0.3em"></text>
<path d="M100,200 L100,50" stroke="black" stroke-width="5" />
<text x="183" y="100.0" font-size="23.333333333333332" fill="black" text-anchor="middle" dy="0.3em"></text>
<text x="200" y="-2" font-size="35" text-anchor="middle" dy="0.3em"></text>
<path d="M200,200 L200,50" stroke="black" stroke-width="5" />
<text x="383" y="100.0" font-size="23.333333333333332" fill="black" text-anchor="middle" dy="0.3em"></text>
<text x="400" y="-2" font-size="35" text-anchor="middle" dy="0.3em"></text>
<path d="M400,200 L400,50" stroke="black" stroke-width="5" />
<text x="483" y="100.0" font-size="23.333333333333332" fill="black" text-anchor="middle" dy="0.3em"></text>
<text x="500" y="-2" font-size="35" text-anchor="middle" dy="0.3em"></text>
<path d="M500,200 L500,50" stroke="black" stroke-width="5" />
<metadata width="1100" height="400" symbolPrefix="RN" cmpPartDmgLabel="1:A" nameOfSymbol="RN-R_Pack04_SIP-1-A_thumbnail"><p-1><x>-500</x><y>-200</y><type>P
                        </type><name>R1.1</name><orientation>U</orientation>
                        <length>150</length><pinShape></pinShape>
                        </p-1><p-2><x>-400</x><y>-200</y><type>P
                        </type><name>R1.2</name><orientation>U</orientation>
                        <length>150</length><pinShape></pinShape>
                        </p-2><p-3><x>-200</x><y>-200</y><type>P
                        </type><name>R2.1</name><orientation>U</orientation>
                        <length>150</length><pinShape></pinShape>
                        </p-3><p-4><x>-100</x><y>-200</y><type>P
                        </type><name>R2.2</name><orientation>U</orientation>
                        <length>150</length><pinShape></pinShape>
                        </p-4><p-5><x>100</x><y>-200</y><type>P
                        </type><name>R3.1</name><orientation>U</orientation>
                        <length>150</length><pinShape></pinShape>
                        </p-5><p-6><x>200</x><y>-200</y><type>P
                        </type><name>R3.2</name><orientation>U</orientation>
                        <length>150</length><pinShape></pinShape>
                        </p-6><p-7><x>400</x><y>-200</y><type>P
                        </type><name>R4.1</name><orientation>U</orientation>
                        <length>150</length><pinShape></pinShape>
                        </p-7><p-8><x>500</x><y>-200</y><type>P
                        </type><name>R4.2</name><orientation>U</orientation>
                        <length>150</length><pinShape></pinShape>
                        </p-8></metadata></svg>