<?xml version="1.0" encoding="UTF-8"?>
<svg xmlns="http://www.w3.org/2000/svg" xmlns:xlink="http://www.w3.org/1999/xlink"
     width="300" height="500" viewBox="-150.0 -250.0 300 500">
<defs>
</defs>
<circle cx="0" cy="-1" r="10" stroke-width="6" stroke="black" fill="black" />
<path d="M-50,150 L50,150 L50,-150 L-50,-150 L-50,150" stroke-width="10" stroke="black" fill-opacity="0" />
<path d="M-20,133 L20,133 L20,33 L-20,33 L-20,133" stroke-width="10" stroke="black" fill-opacity="0" />
<path d="M-20,-133 L20,-133 L20,-33 L-20,-33 L-20,-133" stroke-width="10" stroke="black" fill-opacity="0" />
<path d="M0,200 L0,135" stroke-width="6" stroke="black" fill-opacity="0" />
<path d="M0,-35 L0,35" stroke-width="6" stroke="black" fill-opacity="0" />
<path d="M0,-200 L0,-133" stroke-width="6" stroke="black" fill-opacity="0" />
<path d="M50,0 L0,0" stroke-width="6" stroke="black" fill-opacity="0" />
<text x="-17" y="-183.33333333333334" font-size="23.333333333333332" fill="black" text-anchor="middle" dy="0.3em"></text>
<text x="0" y="-137" font-size="35" text-anchor="middle" dy="0.3em"></text>
<path d="M0,-250 L0,-150" stroke="black" stroke-width="5" />
<text x="100.0" y="-17" font-size="23.333333333333332" fill="black" text-anchor="middle" dy="0.3em"></text>
<text x="37" y="0" font-size="35" text-anchor="middle" dy="0.3em"></text>
<path d="M150,0 L50,0" stroke="black" stroke-width="5" />
<text x="-17" y="183.33333333333334" font-size="23.333333333333332" fill="black" text-anchor="middle" dy="0.3em"></text>
<text x="0" y="137" font-size="35" text-anchor="middle" dy="0.3em"></text>
<path d="M0,250 L0,150" stroke="black" stroke-width="5" />
<metadata width="300" height="500" symbolPrefix="RN" cmpPartDmgLabel="1:A" nameOfSymbol="RN-Voltage_Divider-1-A"><p-1><x>0</x><y>250</y><type>P
                        </type><name>~</name><orientation>D</orientation>
                        <length>100</length><pinShape></pinShape>
                        </p-1><p-2><x>150</x><y>0</y><type>P
                        </type><name>~</name><orientation>L</orientation>
                        <length>100</length><pinShape></pinShape>
                        </p-2><p-3><x>0</x><y>-250</y><type>P
                        </type><name>~</name><orientation>U</orientation>
                        <length>100</length><pinShape></pinShape>
                        </p-3></metadata></svg>