<?xml version="1.0" encoding="UTF-8"?>
<svg xmlns="http://www.w3.org/2000/svg" xmlns:xlink="http://www.w3.org/1999/xlink"
     width="320" height="400" viewBox="-160.0 -200.0 320 400">
<defs>
</defs>
<path d="M-80,55 L80,55 L80,65 L-80,65 L-80,55" stroke-width="6" stroke="black" fill="black" />
<path d="M-80,-70 L80,-70 L80,-60 L-80,-60 L-80,-70" stroke-width="6" stroke="black" fill="black" />
<path d="M-52,78 L50,78 L50,98 L-52,98 L-52,78" stroke-width="6" stroke="black" fill="black" />
<path d="M-52,-47 L50,-47 L50,-27 L-52,-27 L-52,-47" stroke-width="6" stroke="black" fill="black" />
<path d="M-100,-10 L-160,-70" stroke-width="6" stroke="black" fill-opacity="0" />
<path d="M-100,-90 L-160,-150" stroke-width="6" stroke="black" fill-opacity="0" />
<path d="M0,60 L0,50" stroke-width="6" stroke="black" fill-opacity="0" />
<path d="M0,40 L0,30" stroke-width="6" stroke="black" fill-opacity="0" />
<path d="M0,20 L0,10" stroke-width="6" stroke="black" fill-opacity="0" />
<path d="M0,0 L0,-10" stroke-width="6" stroke="black" fill-opacity="0" />
<path d="M0,-20 L0,-30" stroke-width="6" stroke="black" fill-opacity="0" />
<path d="M0,-70 L0,-100" stroke-width="6" stroke="black" fill-opacity="0" />
<path d="M10,-105 L50,-105" stroke-width="10" stroke="black" fill-opacity="0" />
<path d="M30,-125 L30,-85" stroke-width="10" stroke="black" fill-opacity="0" />
<path d="M-100,-40 L-100,-10 L-130,-10" stroke-width="6" stroke="black" fill-opacity="0" />
<path d="M-100,-120 L-100,-90 L-130,-90" stroke-width="6" stroke="black" fill-opacity="0" />
<text x="-17" y="-133.33333333333334" font-size="23.333333333333332" fill="black" text-anchor="middle" dy="0.3em"></text>
<text x="0" y="-87" font-size="35" text-anchor="middle" dy="0.3em"></text>
<path d="M0,-200 L0,-100" stroke="black" stroke-width="5" />
<text x="-17" y="133.33333333333334" font-size="23.333333333333332" fill="black" text-anchor="middle" dy="0.3em"></text>
<text x="0" y="87" font-size="35" text-anchor="middle" dy="0.3em"></text>
<path d="M0,200 L0,100" stroke="black" stroke-width="5" />
<metadata width="320" height="400" symbolPrefix="SC" cmpPartDmgLabel="1:A" nameOfSymbol="SC-Solar_Cells-1-A_thumbnail"><p-1><x>0</x><y>200</y><type>P
                        </type><name>+</name><orientation>D</orientation>
                        <length>100</length><pinShape></pinShape>
                        </p-1><p-2><x>0</x><y>-200</y><type>P
                        </type><name>-</name><orientation>U</orientation>
                        <length>100</length><pinShape></pinShape>
                        </p-2></metadata></svg>