<?xml version="1.0" encoding="UTF-8"?>
<svg xmlns="http://www.w3.org/2000/svg" xmlns:xlink="http://www.w3.org/1999/xlink"
     width="280" height="400" viewBox="-140.0 -200.0 280 400">
<defs>
</defs>
<path d="M-80,-70 L80,-70 L80,-60 L-80,-60 L-80,-70" stroke-width="6" stroke="black" fill="black" />
<path d="M-52,-47 L50,-47 L50,-27 L-52,-27 L-52,-47" stroke-width="6" stroke="black" fill="black" />
<path d="M-80,-90 L-140,-150" stroke-width="6" stroke="black" fill-opacity="0" />
<path d="M-30,-110 L-90,-170" stroke-width="6" stroke="black" fill-opacity="0" />
<path d="M0,-30 L0,0" stroke-width="6" stroke="black" fill-opacity="0" />
<path d="M0,-70 L0,-100" stroke-width="6" stroke="black" fill-opacity="0" />
<path d="M10,-105 L50,-105" stroke-width="10" stroke="black" fill-opacity="0" />
<path d="M30,-125 L30,-85" stroke-width="10" stroke="black" fill-opacity="0" />
<path d="M-80,-120 L-80,-90 L-110,-90" stroke-width="6" stroke="black" fill-opacity="0" />
<path d="M-30,-140 L-30,-110 L-60,-110" stroke-width="6" stroke="black" fill-opacity="0" />
<text x="-17" y="-133.33333333333334" font-size="23.333333333333332" fill="black" text-anchor="middle" dy="0.3em"></text>
<text x="0" y="-87" font-size="35" text-anchor="middle" dy="0.3em"></text>
<path d="M0,-200 L0,-100" stroke="black" stroke-width="5" />
<text x="-17" y="33.333333333333336" font-size="23.333333333333332" fill="black" text-anchor="middle" dy="0.3em"></text>
<text x="0" y="-13" font-size="35" text-anchor="middle" dy="0.3em"></text>
<path d="M0,100 L0,0" stroke="black" stroke-width="5" />
<metadata width="280" height="400" symbolPrefix="SC" cmpPartDmgLabel="1:A" nameOfSymbol="SC-Solar_Cell-1-A"><p-1><x>0</x><y>200</y><type>P
                        </type><name>+</name><orientation>D</orientation>
                        <length>100</length><pinShape></pinShape>
                        </p-1><p-2><x>0</x><y>-100</y><type>P
                        </type><name>-</name><orientation>U</orientation>
                        <length>100</length><pinShape></pinShape>
                        </p-2></metadata></svg>