<?xml version="1.0" encoding="UTF-8"?>
<svg xmlns="http://www.w3.org/2000/svg" xmlns:xlink="http://www.w3.org/1999/xlink"
     width="400" height="660" viewBox="-200.0 -330.0 400 660">
<defs>
</defs>
<circle cx="80" cy="0" r="10" stroke-width="6" stroke="black" fill="black" />
<path d="M50,-250 L50,-250 L50,-250 L50,-250 L50,-250" stroke-width="6" stroke="black" fill-opacity="0" />
<path d="M110,-330 L-110,-330 L-110,300 L110,300 L110,-330" stroke-width="10" stroke="black" fill-opacity="0" />
<path d="M-100,200 L50,200" stroke-width="6" stroke="black" fill-opacity="0" />
<path d="M-50,150 L-50,250" stroke-width="10" stroke="black" fill-opacity="0" />
<path d="M-50,-50 L-50,50" stroke-width="10" stroke="black" fill-opacity="0" />
<path d="M-50,-250 L-50,-150" stroke-width="10" stroke="black" fill-opacity="0" />
<path d="M50,-200 L-100,-200" stroke-width="6" stroke="black" fill-opacity="0" />
<path d="M100,0 L-100,0" stroke-width="6" stroke="black" fill-opacity="0" />
<path d="M50,200 L80,200 L80,-200 L50,-200" stroke-width="6" stroke="black" fill-opacity="0" />
<path d="M50,150 L50,250 L-50,200 L50,150" stroke-width="10" stroke="black" fill-opacity="0" />
<path d="M50,-50 L50,50 L-50,0 L50,-50" stroke-width="10" stroke="black" fill-opacity="0" />
<path d="M50,-250 L50,-150 L-50,-200 L50,-250" stroke-width="10" stroke="black" fill-opacity="0" />
<path d="M-40,150 L20,90 L-10,90 L20,90 L20,120" stroke-width="6" stroke="black" fill-opacity="0" />
<path d="M-40,-50 L20,-110 L-10,-110 L20,-110 L20,-80" stroke-width="6" stroke="black" fill-opacity="0" />
<path d="M-40,-250 L20,-310 L-10,-310 L20,-310 L20,-280" stroke-width="6" stroke="black" fill-opacity="0" />
<path d="M0,150 L60,90 L30,90 L60,90 L60,120" stroke-width="6" stroke="black" fill-opacity="0" />
<path d="M0,-50 L60,-110 L30,-110 L60,-110 L60,-80" stroke-width="6" stroke="black" fill-opacity="0" />
<path d="M0,-250 L60,-310 L30,-310 L60,-310 L60,-280" stroke-width="6" stroke="black" fill-opacity="0" />
<text x="150.0" y="-17" font-size="23.333333333333332" fill="black" text-anchor="middle" dy="0.3em"></text>
<text x="87" y="0" font-size="35" text-anchor="middle" dy="0.3em"></text>
<path d="M200,0 L100,0" stroke="black" stroke-width="5" />
<text x="-150.0" y="-217" font-size="23.333333333333332" fill="black" text-anchor="middle" dy="0.3em"></text>
<text x="-74" y="-200" font-size="35" text-anchor="middle" dy="0.3em"></text>
<path d="M-200,-200 L-100,-200" stroke="black" stroke-width="5" />
<text x="-150.0" y="-17" font-size="23.333333333333332" fill="black" text-anchor="middle" dy="0.3em"></text>
<text x="-74" y="0" font-size="35" text-anchor="middle" dy="0.3em"></text>
<path d="M-200,0 L-100,0" stroke="black" stroke-width="5" />
<text x="-150.0" y="183" font-size="23.333333333333332" fill="black" text-anchor="middle" dy="0.3em"></text>
<text x="-74" y="200" font-size="35" text-anchor="middle" dy="0.3em"></text>
<path d="M-200,200 L-100,200" stroke="black" stroke-width="5" />
<metadata width="400" height="660" symbolPrefix="D" cmpPartDmgLabel="1:A" nameOfSymbol="D-CLV1L-FKB-1-A"><p-1><x>200</x><y>0</y><type>P
                        </type><name>A</name><orientation>L</orientation>
                        <length>100</length><pinShape></pinShape>
                        </p-1><p-2><x>-200</x><y>200</y><type>P
                        </type><name>RK</name><orientation>R</orientation>
                        <length>100</length><pinShape></pinShape>
                        </p-2><p-3><x>-200</x><y>0</y><type>P
                        </type><name>GK</name><orientation>R</orientation>
                        <length>100</length><pinShape></pinShape>
                        </p-3><p-4><x>-200</x><y>-200</y><type>P
                        </type><name>BK</name><orientation>R</orientation>
                        <length>100</length><pinShape></pinShape>
                        </p-4></metadata></svg>