<?xml version="1.0" encoding="UTF-8"?>
<svg xmlns="http://www.w3.org/2000/svg" xmlns:xlink="http://www.w3.org/1999/xlink"
     width="600" height="400" viewBox="-300.0 -200.0 600 400">
<defs>
</defs>
<path d="M-200,-200 L200,-200 L200,200 L-200,200 L-200,-200" stroke-width="10" stroke="black" fill-opacity="0" />
<path d="M-200,100 L200,100" stroke-width="6" stroke="black" fill-opacity="0" />
<path d="M-200,0 L200,0" stroke-width="6" stroke="black" fill-opacity="0" />
<path d="M-200,-100 L200,-100" stroke-width="6" stroke="black" fill-opacity="0" />
<path d="M-110,50 L-70,10" stroke-width="6" stroke="black" fill-opacity="0" />
<path d="M-110,-150 L-70,-190" stroke-width="6" stroke="black" fill-opacity="0" />
<path d="M-70,50 L-30,10" stroke-width="6" stroke="black" fill-opacity="0" />
<path d="M-70,-150 L-30,-190" stroke-width="6" stroke="black" fill-opacity="0" />
<path d="M-50,50 L-50,150" stroke-width="10" stroke="black" fill-opacity="0" />
<path d="M-50,-150 L-50,-50" stroke-width="10" stroke="black" fill-opacity="0" />
<path d="M90,-50 L130,-90" stroke-width="6" stroke="black" fill-opacity="0" />
<path d="M130,-50 L170,-90" stroke-width="6" stroke="black" fill-opacity="0" />
<path d="M150,-50 L150,50" stroke-width="10" stroke="black" fill-opacity="0" />
<path d="M-100,-180 L-70,-190 L-80,-160" stroke-width="6" stroke="black" fill-opacity="0" />
<path d="M-80,40 L-70,10 L-100,20" stroke-width="6" stroke="black" fill-opacity="0" />
<path d="M-60,20 L-30,10 L-40,40" stroke-width="6" stroke="black" fill-opacity="0" />
<path d="M-60,-180 L-30,-190 L-40,-160" stroke-width="6" stroke="black" fill-opacity="0" />
<path d="M120,-60 L130,-90 L100,-80" stroke-width="6" stroke="black" fill-opacity="0" />
<path d="M140,-80 L170,-90 L160,-60" stroke-width="6" stroke="black" fill-opacity="0" />
<path d="M-150,50 L-150,150 L-50,100 L-150,50" stroke-width="10" stroke="black" fill-opacity="0" />
<path d="M-150,-150 L-150,-50 L-50,-100 L-150,-150" stroke-width="10" stroke="black" fill-opacity="0" />
<path d="M50,-50 L50,50 L150,0 L50,-50" stroke-width="10" stroke="black" fill-opacity="0" />
<text x="-250.0" y="83" font-size="23.333333333333332" fill="black" text-anchor="middle" dy="0.3em"></text>
<text x="-154" y="100" font-size="35" text-anchor="middle" dy="0.3em"></text>
<path d="M-300,100 L-200,100" stroke="black" stroke-width="5" />
<text x="250.0" y="83" font-size="23.333333333333332" fill="black" text-anchor="middle" dy="0.3em"></text>
<text x="154" y="100" font-size="35" text-anchor="middle" dy="0.3em"></text>
<path d="M300,100 L200,100" stroke="black" stroke-width="5" />
<text x="-250.0" y="-117" font-size="23.333333333333332" fill="black" text-anchor="middle" dy="0.3em"></text>
<text x="-154" y="-100" font-size="35" text-anchor="middle" dy="0.3em"></text>
<path d="M-300,-100 L-200,-100" stroke="black" stroke-width="5" />
<text x="250.0" y="-117" font-size="23.333333333333332" fill="black" text-anchor="middle" dy="0.3em"></text>
<text x="154" y="-100" font-size="35" text-anchor="middle" dy="0.3em"></text>
<path d="M300,-100 L200,-100" stroke="black" stroke-width="5" />
<text x="-250.0" y="-17" font-size="23.333333333333332" fill="black" text-anchor="middle" dy="0.3em"></text>
<text x="-154" y="0" font-size="35" text-anchor="middle" dy="0.3em"></text>
<path d="M-300,0 L-200,0" stroke="black" stroke-width="5" />
<text x="250.0" y="-17" font-size="23.333333333333332" fill="black" text-anchor="middle" dy="0.3em"></text>
<text x="154" y="0" font-size="35" text-anchor="middle" dy="0.3em"></text>
<path d="M300,0 L200,0" stroke="black" stroke-width="5" />
<metadata width="600" height="400" symbolPrefix="D" cmpPartDmgLabel="1:A" nameOfSymbol="D-CLS6B-FKW-1-A"><p-1><x>-300</x><y>-100</y><type>P
                        </type><name>AB</name><orientation>R</orientation>
                        <length>100</length><pinShape></pinShape>
                        </p-1><p-2><x>300</x><y>-100</y><type>P
                        </type><name>KB</name><orientation>L</orientation>
                        <length>100</length><pinShape></pinShape>
                        </p-2><p-3><x>-300</x><y>100</y><type>P
                        </type><name>AR</name><orientation>R</orientation>
                        <length>100</length><pinShape></pinShape>
                        </p-3><p-4><x>300</x><y>100</y><type>P
                        </type><name>KR</name><orientation>L</orientation>
                        <length>100</length><pinShape></pinShape>
                        </p-4><p-5><x>-300</x><y>0</y><type>P
                        </type><name>AG</name><orientation>R</orientation>
                        <length>100</length><pinShape></pinShape>
                        </p-5><p-6><x>300</x><y>0</y><type>P
                        </type><name>KR</name><orientation>L</orientation>
                        <length>100</length><pinShape></pinShape>
                        </p-6></metadata></svg>