<?xml version="1.0" encoding="UTF-8"?>
<svg xmlns="http://www.w3.org/2000/svg" xmlns:xlink="http://www.w3.org/1999/xlink"
     width="400" height="660" viewBox="-200.0 -330.0 400 660">
<defs>
</defs>
<path d="M-110,-330 L110,-330 L110,300 L-110,300 L-110,-330" stroke-width="10" stroke="black" fill-opacity="0" />
<path d="M-50,50 L-50,50 L-50,-50 L-50,-50 L-50,50" stroke-width="6" stroke="black" fill-opacity="0" />
<path d="M-50,-50 L-50,-50 L-50,-50 L-50,-50 L-50,-50" stroke-width="6" stroke="black" fill-opacity="0" />
<path d="M-50,-150 L-50,-150 L-50,-250 L-50,-250 L-50,-150" stroke-width="6" stroke="black" fill-opacity="0" />
<path d="M-50,-250 L-50,-250 L-50,-250 L-50,-250 L-50,-250" stroke-width="6" stroke="black" fill-opacity="0" />
<path d="M-50,200 L-100,200" stroke-width="6" stroke="black" fill-opacity="0" />
<path d="M-50,0 L-100,0" stroke-width="6" stroke="black" fill-opacity="0" />
<path d="M-50,0 L50,0" stroke-width="6" stroke="black" fill-opacity="0" />
<path d="M-50,-200 L-100,-200" stroke-width="6" stroke="black" fill-opacity="0" />
<path d="M50,200 L-50,200" stroke-width="6" stroke="black" fill-opacity="0" />
<path d="M50,200 L100,200" stroke-width="6" stroke="black" fill-opacity="0" />
<path d="M50,150 L50,250" stroke-width="10" stroke="black" fill-opacity="0" />
<path d="M50,0 L100,0" stroke-width="6" stroke="black" fill-opacity="0" />
<path d="M50,-50 L50,50" stroke-width="10" stroke="black" fill-opacity="0" />
<path d="M50,-200 L-50,-200" stroke-width="6" stroke="black" fill-opacity="0" />
<path d="M50,-200 L100,-200" stroke-width="6" stroke="black" fill-opacity="0" />
<path d="M50,-250 L50,-150" stroke-width="10" stroke="black" fill-opacity="0" />
<path d="M50,-50 L50,50 L50,50" stroke-width="6" stroke="black" fill-opacity="0" />
<path d="M50,-250 L50,-150 L50,-150" stroke-width="6" stroke="black" fill-opacity="0" />
<path d="M-50,150 L-50,250 L50,200 L-50,150" stroke-width="10" stroke="black" fill-opacity="0" />
<path d="M-50,-50 L-50,50 L50,0 L-50,-50" stroke-width="10" stroke="black" fill-opacity="0" />
<path d="M-50,-250 L-50,-150 L50,-200 L-50,-250" stroke-width="10" stroke="black" fill-opacity="0" />
<path d="M0,150 L-60,90 L-30,90 L-60,90 L-60,120" stroke-width="6" stroke="black" fill-opacity="0" />
<path d="M0,-50 L-60,-110 L-30,-110 L-60,-110 L-60,-80" stroke-width="6" stroke="black" fill-opacity="0" />
<path d="M0,-250 L-60,-310 L-30,-310 L-60,-310 L-60,-280" stroke-width="6" stroke="black" fill-opacity="0" />
<path d="M40,150 L-20,90 L10,90 L-20,90 L-20,120" stroke-width="6" stroke="black" fill-opacity="0" />
<path d="M40,-50 L-20,-110 L10,-110 L-20,-110 L-20,-80" stroke-width="6" stroke="black" fill-opacity="0" />
<path d="M40,-250 L-20,-310 L10,-310 L-20,-310 L-20,-280" stroke-width="6" stroke="black" fill-opacity="0" />
<text x="-150.0" y="-217" font-size="23.333333333333332" fill="black" text-anchor="middle" dy="0.3em"></text>
<text x="-74" y="-200" font-size="35" text-anchor="middle" dy="0.3em"></text>
<path d="M-200,-200 L-100,-200" stroke="black" stroke-width="5" />
<text x="-150.0" y="-17" font-size="23.333333333333332" fill="black" text-anchor="middle" dy="0.3em"></text>
<text x="-74" y="0" font-size="35" text-anchor="middle" dy="0.3em"></text>
<path d="M-200,0 L-100,0" stroke="black" stroke-width="5" />
<text x="-150.0" y="183" font-size="23.333333333333332" fill="black" text-anchor="middle" dy="0.3em"></text>
<text x="-74" y="200" font-size="35" text-anchor="middle" dy="0.3em"></text>
<path d="M-200,200 L-100,200" stroke="black" stroke-width="5" />
<text x="150.0" y="183" font-size="23.333333333333332" fill="black" text-anchor="middle" dy="0.3em"></text>
<text x="74" y="200" font-size="35" text-anchor="middle" dy="0.3em"></text>
<path d="M200,200 L100,200" stroke="black" stroke-width="5" />
<text x="150.0" y="-17" font-size="23.333333333333332" fill="black" text-anchor="middle" dy="0.3em"></text>
<text x="74" y="0" font-size="35" text-anchor="middle" dy="0.3em"></text>
<path d="M200,0 L100,0" stroke="black" stroke-width="5" />
<text x="150.0" y="-217" font-size="23.333333333333332" fill="black" text-anchor="middle" dy="0.3em"></text>
<text x="74" y="-200" font-size="35" text-anchor="middle" dy="0.3em"></text>
<path d="M200,-200 L100,-200" stroke="black" stroke-width="5" />
<metadata width="400" height="660" symbolPrefix="D" cmpPartDmgLabel="1:A" nameOfSymbol="D-SMLVN6RGB-1-A_thumbnail"><p-1><x>-200</x><y>200</y><type>P
                        </type><name>BA</name><orientation>R</orientation>
                        <length>100</length><pinShape></pinShape>
                        </p-1><p-2><x>-200</x><y>0</y><type>P
                        </type><name>RA</name><orientation>R</orientation>
                        <length>100</length><pinShape></pinShape>
                        </p-2><p-3><x>-200</x><y>-200</y><type>P
                        </type><name>GA</name><orientation>R</orientation>
                        <length>100</length><pinShape></pinShape>
                        </p-3><p-4><x>200</x><y>-200</y><type>P
                        </type><name>GK</name><orientation>L</orientation>
                        <length>100</length><pinShape></pinShape>
                        </p-4><p-5><x>200</x><y>0</y><type>P
                        </type><name>RK</name><orientation>L</orientation>
                        <length>100</length><pinShape></pinShape>
                        </p-5><p-6><x>200</x><y>200</y><type>P
                        </type><name>BK</name><orientation>L</orientation>
                        <length>100</length><pinShape></pinShape>
                        </p-6></metadata></svg>