<?xml version="1.0" encoding="UTF-8"?>
<svg xmlns="http://www.w3.org/2000/svg" xmlns:xlink="http://www.w3.org/1999/xlink"
     width="700" height="300" viewBox="-350.0 -150.0 700 300">
<defs>
</defs>
<circle cx="0" cy="0" r="10" stroke-width="6" stroke="black" fill="black" />
<path d="M0,50 L0,0" stroke-width="6" stroke="black" fill-opacity="0" />
<path d="M-250,0 L250,0" stroke-width="6" stroke="black" fill-opacity="0" />
<path d="M-130,-50 L-150,-50 L-150,50 L-170,50" stroke-width="8" stroke="black" fill-opacity="0" />
<path d="M170,-50 L150,-50 L150,50 L130,50" stroke-width="8" stroke="black" fill-opacity="0" />
<path d="M-250,50 L-50,-50 L-50,50 L-250,-50 L-250,50" stroke-width="8" stroke="black" fill-opacity="0" />
<path d="M50,50 L50,-50 L250,50 L250,-50 L50,50" stroke-width="8" stroke="black" fill-opacity="0" />
<text x="-300.0" y="-17" font-size="23.333333333333332" fill="black" text-anchor="middle" dy="0.3em"></text>
<text x="-184" y="0" font-size="35" text-anchor="middle" dy="0.3em"></text>
<path d="M-350,0 L-250,0" stroke="black" stroke-width="5" />
<text x="300.0" y="-17" font-size="23.333333333333332" fill="black" text-anchor="middle" dy="0.3em"></text>
<text x="184" y="0" font-size="35" text-anchor="middle" dy="0.3em"></text>
<path d="M350,0 L250,0" stroke="black" stroke-width="5" />
<text x="-17" y="83.33333333333334" font-size="23.333333333333332" fill="black" text-anchor="middle" dy="0.3em"></text>
<text x="0" y="-68" font-size="35" text-anchor="middle" dy="0.3em"></text>
<path d="M0,150 L0,50" stroke="black" stroke-width="5" />
<metadata width="700" height="300" symbolPrefix="D" cmpPartDmgLabel="1:A" nameOfSymbol="D-SM712_SOT23-1-A"><p-1><x>-350</x><y>0</y><type>P
                        </type><name>A1</name><orientation>R</orientation>
                        <length>100</length><pinShape></pinShape>
                        </p-1><p-2><x>350</x><y>0</y><type>P
                        </type><name>A2</name><orientation>L</orientation>
                        <length>100</length><pinShape></pinShape>
                        </p-2><p-3><x>0</x><y>-150</y><type>I
                        </type><name>common</name><orientation>U</orientation>
                        <length>100</length><pinShape></pinShape>
                        </p-3></metadata></svg>