<?xml version="1.0" encoding="UTF-8"?>
<svg xmlns="http://www.w3.org/2000/svg" xmlns:xlink="http://www.w3.org/1999/xlink"
     width="700" height="400" viewBox="-350.0 -200.0 700 400">
<defs>
</defs>
<circle cx="-270" cy="0" r="10" stroke-width="10" stroke="black" fill="black" />
<circle cx="0" cy="120" r="10" stroke-width="10" stroke="black" fill="black" />
<circle cx="0" cy="0" r="10" stroke-width="10" stroke="black" fill="black" />
<circle cx="270" cy="0" r="10" stroke-width="10" stroke="black" fill="black" />
<path d="M-250,0 L250,0" stroke-width="6" stroke="black" fill-opacity="0" />
<path d="M-245,50 L-245,-50" stroke-width="10" stroke="black" fill-opacity="0" />
<path d="M-125,50 L-125,-50" stroke-width="10" stroke="black" fill-opacity="0" />
<path d="M0,150 L0,180" stroke-width="6" stroke="black" fill-opacity="0" />
<path d="M0,0 L0,180" stroke-width="6" stroke="black" fill-opacity="0" />
<path d="M30,50 L30,-50" stroke-width="10" stroke="black" fill-opacity="0" />
<path d="M145,50 L145,-50" stroke-width="10" stroke="black" fill-opacity="0" />
<path d="M-270,0 L-270,120 L270,120 L270,0" stroke-width="6" stroke="black" fill-opacity="0" />
<path d="M-145,50 L-145,-50 L-245,0 L-145,50" stroke-width="10" stroke="black" fill-opacity="0" />
<path d="M-90,160 L-100,150 L-100,90 L-110,80" stroke-width="10" stroke="black" fill-opacity="0" />
<path d="M-25,50 L-25,-50 L-125,0 L-25,50" stroke-width="10" stroke="black" fill-opacity="0" />
<path d="M130,50 L130,-50 L30,0 L130,50" stroke-width="10" stroke="black" fill-opacity="0" />
<path d="M170,160 L160,150 L160,90 L150,80" stroke-width="10" stroke="black" fill-opacity="0" />
<path d="M245,50 L245,-50 L145,0 L245,50" stroke-width="10" stroke="black" fill-opacity="0" />
<path d="M-230,-55 L-170,-115 L-200,-115 L-170,-115 L-170,-85" stroke-width="6" stroke="black" fill-opacity="0" />
<path d="M-180,-55 L-120,-115 L-150,-115 L-120,-115 L-120,-85" stroke-width="6" stroke="black" fill-opacity="0" />
<path d="M-160,150 L-160,90 L-100,120 L-160,150 L-160,140" stroke-width="10" stroke="black" fill-opacity="0" />
<path d="M-110,-55 L-50,-115 L-80,-115 L-50,-115 L-50,-85" stroke-width="6" stroke="black" fill-opacity="0" />
<path d="M-60,-55 L0,-115 L-30,-115 L0,-115 L0,-85" stroke-width="6" stroke="black" fill-opacity="0" />
<path d="M45,-55 L105,-115 L75,-115 L105,-115 L105,-85" stroke-width="6" stroke="black" fill-opacity="0" />
<path d="M95,-55 L155,-115 L125,-115 L155,-115 L155,-85" stroke-width="6" stroke="black" fill-opacity="0" />
<path d="M100,150 L100,90 L160,120 L100,150 L100,140" stroke-width="10" stroke="black" fill-opacity="0" />
<path d="M160,-55 L220,-115 L190,-115 L220,-115 L220,-85" stroke-width="6" stroke="black" fill-opacity="0" />
<path d="M210,-55 L270,-115 L240,-115 L270,-115 L270,-85" stroke-width="6" stroke="black" fill-opacity="0" />
<text x="-300.0" y="-17" font-size="23.333333333333332" fill="black" text-anchor="middle" dy="0.3em"></text>
<text x="-197" y="0" font-size="35" text-anchor="middle" dy="0.3em"></text>
<path d="M-350,0 L-250,0" stroke="black" stroke-width="5" />
<text x="300.0" y="-17" font-size="23.333333333333332" fill="black" text-anchor="middle" dy="0.3em"></text>
<text x="197" y="0" font-size="35" text-anchor="middle" dy="0.3em"></text>
<path d="M350,0 L250,0" stroke="black" stroke-width="5" />
<text x="-17" y="133.33333333333334" font-size="23.333333333333332" fill="black" text-anchor="middle" dy="0.3em"></text>
<text x="0" y="21" font-size="35" text-anchor="middle" dy="0.3em"></text>
<path d="M0,200 L0,100" stroke="black" stroke-width="5" />
<metadata width="700" height="400" symbolPrefix="D" cmpPartDmgLabel="1:A" nameOfSymbol="D-LED_Cree_XHP50_12V-1-A_thumbnail"><p-1><x>-350</x><y>0</y><type>P
                        </type><name>K</name><orientation>R</orientation>
                        <length>100</length><pinShape></pinShape>
                        </p-1><p-2><x>350</x><y>0</y><type>P
                        </type><name>A</name><orientation>L</orientation>
                        <length>100</length><pinShape></pinShape>
                        </p-2><p-3><x>0</x><y>-200</y><type>P
                        </type><name>PAD</name><orientation>U</orientation>
                        <length>100</length><pinShape></pinShape>
                        </p-3></metadata></svg>