<?xml version="1.0" encoding="UTF-8"?>
<svg xmlns="http://www.w3.org/2000/svg" xmlns:xlink="http://www.w3.org/1999/xlink"
     width="600" height="600" viewBox="-300.0 -300.0 600 600">
<defs>
</defs>
<circle cx="-175" cy="200" r="10" stroke-width="10" stroke="black" fill="black" />
<circle cx="-175" cy="0" r="10" stroke-width="10" stroke="black" fill="black" />
<circle cx="150" cy="200" r="10" stroke-width="10" stroke="black" fill="black" />
<circle cx="150" cy="0" r="10" stroke-width="10" stroke="black" fill="black" />
<path d="M-200,-300 L200,-300 L200,300 L-200,300 L-200,-300" stroke-width="10" stroke="black" fill-opacity="0" />
<path d="M-200,200 L200,200" stroke-width="6" stroke="black" fill-opacity="0" />
<path d="M-200,0 L200,0" stroke-width="6" stroke="black" fill-opacity="0" />
<path d="M-50,150 L-50,250" stroke-width="10" stroke="black" fill-opacity="0" />
<path d="M-50,-50 L-50,50" stroke-width="10" stroke="black" fill-opacity="0" />
<path d="M-50,-250 L-50,-150" stroke-width="10" stroke="black" fill-opacity="0" />
<path d="M25,75 L15,75" stroke-width="6" stroke="black" fill-opacity="0" />
<path d="M25,75 L25,125" stroke-width="6" stroke="black" fill-opacity="0" />
<path d="M25,-75 L35,-75" stroke-width="6" stroke="black" fill-opacity="0" />
<path d="M25,-125 L15,-125" stroke-width="6" stroke="black" fill-opacity="0" />
<path d="M25,-125 L25,-75" stroke-width="6" stroke="black" fill-opacity="0" />
<path d="M35,125 L25,125" stroke-width="6" stroke="black" fill-opacity="0" />
<path d="M100,125 L110,125" stroke-width="6" stroke="black" fill-opacity="0" />
<path d="M100,75 L90,75" stroke-width="6" stroke="black" fill-opacity="0" />
<path d="M100,75 L100,125" stroke-width="6" stroke="black" fill-opacity="0" />
<path d="M100,-75 L100,-125" stroke-width="6" stroke="black" fill-opacity="0" />
<path d="M100,-75 L110,-75" stroke-width="6" stroke="black" fill-opacity="0" />
<path d="M100,-125 L90,-125" stroke-width="6" stroke="black" fill-opacity="0" />
<path d="M-175,0 L-175,-100 L150,-100 L150,0" stroke-width="6" stroke="black" fill-opacity="0" />
<path d="M-150,150 L-150,250 L-50,200 L-150,150" stroke-width="10" stroke="black" fill-opacity="0" />
<path d="M-150,-50 L-150,50 L-50,0 L-150,-50" stroke-width="10" stroke="black" fill-opacity="0" />
<path d="M-150,-250 L-50,-200 L-150,-150 L-150,-250" stroke-width="10" stroke="black" fill-opacity="0" />
<path d="M25,100 L50,125 L50,75 L25,100" stroke-width="6" stroke="black" fill="black" />
<path d="M50,-125 L50,-75 L25,-100 L50,-125" stroke-width="6" stroke="black" fill="black" />
<path d="M75,75 L75,125 L100,100 L75,75" stroke-width="6" stroke="black" fill="black" />
<path d="M75,-125 L75,-75 L100,-100 L75,-125" stroke-width="6" stroke="black" fill="black" />
<path d="M150,200 L150,100 L-175,100 L-175,200" stroke-width="6" stroke="black" fill-opacity="0" />
<path d="M-200,-200 L200,-200" stroke-width="6" stroke="black" fill-opacity="0" />
<path d="M-110,150 L-70,110" stroke-width="6" stroke="black" fill-opacity="0" />
<path d="M-110,-50 L-70,-90" stroke-width="6" stroke="black" fill-opacity="0" />
<path d="M-110,-250 L-70,-290" stroke-width="6" stroke="black" fill-opacity="0" />
<path d="M-70,150 L-30,110" stroke-width="6" stroke="black" fill-opacity="0" />
<path d="M-70,-50 L-30,-90" stroke-width="6" stroke="black" fill-opacity="0" />
<path d="M-70,-250 L-30,-290" stroke-width="6" stroke="black" fill-opacity="0" />
<path d="M-100,120 L-70,110 L-80,140" stroke-width="6" stroke="black" fill-opacity="0" />
<path d="M-100,-80 L-70,-90 L-80,-60" stroke-width="6" stroke="black" fill-opacity="0" />
<path d="M-100,-280 L-70,-290 L-80,-260" stroke-width="6" stroke="black" fill-opacity="0" />
<path d="M-60,120 L-30,110 L-40,140" stroke-width="6" stroke="black" fill-opacity="0" />
<path d="M-60,-80 L-30,-90 L-40,-60" stroke-width="6" stroke="black" fill-opacity="0" />
<path d="M-60,-280 L-30,-290 L-40,-260" stroke-width="6" stroke="black" fill-opacity="0" />
<text x="-250.0" y="183" font-size="23.333333333333332" fill="black" text-anchor="middle" dy="0.3em"></text>
<text x="-154" y="200" font-size="35" text-anchor="middle" dy="0.3em"></text>
<path d="M-300,200 L-200,200" stroke="black" stroke-width="5" />
<text x="250.0" y="183" font-size="23.333333333333332" fill="black" text-anchor="middle" dy="0.3em"></text>
<text x="154" y="200" font-size="35" text-anchor="middle" dy="0.3em"></text>
<path d="M300,200 L200,200" stroke="black" stroke-width="5" />
<text x="-250.0" y="-217" font-size="23.333333333333332" fill="black" text-anchor="middle" dy="0.3em"></text>
<text x="-154" y="-200" font-size="35" text-anchor="middle" dy="0.3em"></text>
<path d="M-300,-200 L-200,-200" stroke="black" stroke-width="5" />
<text x="250.0" y="-217" font-size="23.333333333333332" fill="black" text-anchor="middle" dy="0.3em"></text>
<text x="154" y="-200" font-size="35" text-anchor="middle" dy="0.3em"></text>
<path d="M300,-200 L200,-200" stroke="black" stroke-width="5" />
<text x="-250.0" y="-17" font-size="23.333333333333332" fill="black" text-anchor="middle" dy="0.3em"></text>
<text x="-154" y="0" font-size="35" text-anchor="middle" dy="0.3em"></text>
<path d="M-300,0 L-200,0" stroke="black" stroke-width="5" />
<text x="250.0" y="-17" font-size="23.333333333333332" fill="black" text-anchor="middle" dy="0.3em"></text>
<text x="154" y="0" font-size="35" text-anchor="middle" dy="0.3em"></text>
<path d="M300,0 L200,0" stroke="black" stroke-width="5" />
<metadata width="600" height="600" symbolPrefix="D" cmpPartDmgLabel="1:A" nameOfSymbol="D-QLS6A-FKW-1-A_thumbnail"><p-1><x>-300</x><y>-200</y><type>P
                        </type><name>AB</name><orientation>R</orientation>
                        <length>100</length><pinShape></pinShape>
                        </p-1><p-2><x>300</x><y>-200</y><type>P
                        </type><name>KB</name><orientation>L</orientation>
                        <length>100</length><pinShape></pinShape>
                        </p-2><p-3><x>-300</x><y>200</y><type>P
                        </type><name>AR</name><orientation>R</orientation>
                        <length>100</length><pinShape></pinShape>
                        </p-3><p-4><x>300</x><y>200</y><type>P
                        </type><name>KR</name><orientation>L</orientation>
                        <length>100</length><pinShape></pinShape>
                        </p-4><p-5><x>-300</x><y>0</y><type>P
                        </type><name>AG</name><orientation>R</orientation>
                        <length>100</length><pinShape></pinShape>
                        </p-5><p-6><x>300</x><y>0</y><type>P
                        </type><name>KR</name><orientation>L</orientation>
                        <length>100</length><pinShape></pinShape>
                        </p-6></metadata></svg>