<?xml version="1.0" encoding="UTF-8"?>
<svg xmlns="http://www.w3.org/2000/svg" xmlns:xlink="http://www.w3.org/1999/xlink"
     width="400" height="400" viewBox="-200.0 -200.0 400 400">
<defs>
</defs>
<circle cx="-30" cy="0" r="5" stroke-width="6" stroke="black" fill-opacity="0" />
<circle cx="30" cy="80" r="5" stroke-width="6" stroke="black" fill-opacity="0" />
<circle cx="30" cy="10" r="5" stroke-width="6" stroke="black" fill-opacity="0" />
<circle cx="50" cy="0" r="125" stroke-width="14" stroke="black" fill-opacity="0" />
<circle cx="100" cy="80" r="5" stroke-width="6" stroke="black" fill-opacity="0" />
<circle cx="100" cy="60" r="5" stroke-width="6" stroke="black" fill-opacity="0" />
<circle cx="100" cy="-40" r="5" stroke-width="6" stroke="black" fill-opacity="0" />
<circle cx="100" cy="-90" r="5" stroke-width="6" stroke="black" fill-opacity="0" />
<path d="M-50,0 L-35,0" stroke-width="6" stroke="black" fill-opacity="0" />
<path d="M100,80 L100,100" stroke-width="6" stroke="black" fill-opacity="0" />
<path d="M100,60 L125,60" stroke-width="6" stroke="black" fill-opacity="0" />
<path d="M110,25 L140,25" stroke-width="6" stroke="black" fill-opacity="0" />
<path d="M125,60 L125,25" stroke-width="6" stroke="black" fill-opacity="0" />
<path d="M125,-5 L125,-40" stroke-width="6" stroke="black" fill-opacity="0" />
<path d="M125,-40 L100,-40" stroke-width="6" stroke="black" fill-opacity="0" />
<path d="M-10,-30 L30,10 L50,10" stroke-width="6" stroke="black" fill-opacity="0" />
<path d="M-10,-40 L-30,-40 L-30,80" stroke-width="6" stroke="black" fill-opacity="0" />
<path d="M-10,-50 L30,-90 L100,-90" stroke-width="6" stroke="black" fill-opacity="0" />
<path d="M-10,-80 L-10,0 L-10,0" stroke-width="12" stroke="black" fill-opacity="0" />
<path d="M50,-30 L50,50 L50,50" stroke-width="15" stroke="black" fill-opacity="0" />
<path d="M0,-20 L10,0 L20,-10 L0,-20" stroke-width="6" stroke="black" fill-opacity="0" />
<path d="M50,20 L90,60 L100,60 L100,80" stroke-width="6" stroke="black" fill-opacity="0" />
<path d="M50,0 L90,-40 L100,-40 L100,-90" stroke-width="6" stroke="black" fill-opacity="0" />
<path d="M60,30 L70,50 L80,40 L60,30" stroke-width="6" stroke="black" fill-opacity="0" />
<path d="M125,25 L110,-5 L140,-5 L125,25" stroke-width="6" stroke="black" fill="black" />
<path d="M30,80 L15,80 L10,90 L5,70 L0,90 L-5,70 L-10,90 L-15,70 L-20,80 L-30,80" stroke-width="6" stroke="black" fill-opacity="0" />
<path d="M30,10 L30,80 L45,80 L50,70 L55,90 L60,70 L65,90 L70,70 L75,90 L80,80 L100,80" stroke-width="6" stroke="black" fill-opacity="0" />
<text x="-125.0" y="-17" font-size="23.333333333333332" fill="black" text-anchor="middle" dy="0.3em"></text>
<text x="-37" y="0" font-size="35" text-anchor="middle" dy="0.3em"></text>
<path d="M-200,0 L-50,0" stroke="black" stroke-width="5" />
<text x="83" y="-130.0" font-size="23.333333333333332" fill="black" text-anchor="middle" dy="0.3em"></text>
<text x="100" y="-82" font-size="35" text-anchor="middle" dy="0.3em"></text>
<path d="M100,-200 L100,-95" stroke="black" stroke-width="5" />
<text x="83" y="133.33333333333334" font-size="23.333333333333332" fill="black" text-anchor="middle" dy="0.3em"></text>
<text x="100" y="87" font-size="35" text-anchor="middle" dy="0.3em"></text>
<path d="M100,200 L100,100" stroke="black" stroke-width="5" />
<metadata width="400" height="400" symbolPrefix="Q" cmpPartDmgLabel="1:A" nameOfSymbol="Q-TIP125-1-A_thumbnail"><p-1><x>-200</x><y>0</y><type>I
                        </type><name>B</name><orientation>R</orientation>
                        <length>150</length><pinShape></pinShape>
                        </p-1><p-2><x>100</x><y>200</y><type>P
                        </type><name>C</name><orientation>D</orientation>
                        <length>105</length><pinShape></pinShape>
                        </p-2><p-3><x>100</x><y>-200</y><type>P
                        </type><name>E</name><orientation>U</orientation>
                        <length>100</length><pinShape></pinShape>
                        </p-3></metadata></svg>