<?xml version="1.0" encoding="UTF-8"?>
<svg xmlns="http://www.w3.org/2000/svg" xmlns:xlink="http://www.w3.org/1999/xlink"
     width="600" height="750" viewBox="-300.0 -375.0 600 750">
<defs>
</defs>
<circle cx="-35" cy="100" r="110" stroke-width="10" stroke="black" fill-opacity="0" />
<circle cx="0" cy="170" r="10" stroke-width="6" stroke="black" fill="black" />
<circle cx="0" cy="30" r="10" stroke-width="6" stroke="black" fill="black" />
<circle cx="-105" cy="-300" r="10" stroke-width="6" stroke="black" fill="black" />
<circle cx="-35" cy="-100" r="10" stroke-width="6" stroke="black" fill="black" />
<circle cx="-35" cy="-265" r="110" stroke-width="10" stroke="black" fill-opacity="0" />
<circle cx="35" cy="-300" r="10" stroke-width="6" stroke="black" fill="black" />
<path d="M-90,100 L-200,100" stroke-width="6" stroke="black" fill-opacity="0" />
<path d="M-90,25 L-90,175" stroke-width="10" stroke="black" fill-opacity="0" />
<path d="M-70,150 L-70,190" stroke-width="10" stroke="black" fill-opacity="0" />
<path d="M-70,80 L-70,120" stroke-width="10" stroke="black" fill-opacity="0" />
<path d="M-70,10 L-70,50" stroke-width="10" stroke="black" fill-opacity="0" />
<path d="M0,0 L0,30" stroke-width="6" stroke="black" fill-opacity="0" />
<path d="M200,-300 L65,-300" stroke-width="6" stroke="black" fill-opacity="0" />
<path d="M-200,-100 L0,-100 L0,0" stroke-width="6" stroke="black" fill-opacity="0" />
<path d="M0,200 L0,100 L-70,100" stroke-width="6" stroke="black" fill-opacity="0" />
<path d="M-70,170 L30,170 L30,30 L-70,30" stroke-width="6" stroke="black" fill-opacity="0" />
<path d="M-125,-300 L-235,-300" stroke-width="6" stroke="black" fill-opacity="0" />
<path d="M-85,-230 L-125,-230" stroke-width="10" stroke="black" fill-opacity="0" />
<path d="M-35,-210 L-35,-100" stroke-width="6" stroke="black" fill-opacity="0" />
<path d="M-15,-230 L-55,-230" stroke-width="10" stroke="black" fill-opacity="0" />
<path d="M40,-210 L-110,-210" stroke-width="10" stroke="black" fill-opacity="0" />
<path d="M55,-230 L15,-230" stroke-width="10" stroke="black" fill-opacity="0" />
<path d="M65,-300 L35,-300" stroke-width="6" stroke="black" fill-opacity="0" />
<path d="M-135,-300 L-35,-300 L-35,-230" stroke-width="6" stroke="black" fill-opacity="0" />
<path d="M-105,-230 L-105,-330 L35,-330 L35,-230" stroke-width="6" stroke="black" fill-opacity="0" />
<path d="M-60,100 L-20,85 L-20,115 L-60,100" stroke-width="6" stroke="black" fill="black" />
<path d="M-55,-310 L-50,-315 L-50,-345 L-45,-350" stroke-width="6" stroke="black" fill-opacity="0" />
<path d="M-50,-330 L-25,-315 L-25,-345 L-50,-330" stroke-width="6" stroke="black" fill-opacity="0" />
<path d="M-35,-290 L-20,-250 L-50,-250 L-35,-290" stroke-width="6" stroke="black" fill="black" />
<path d="M10,80 L15,85 L45,85 L50,90" stroke-width="6" stroke="black" fill-opacity="0" />
<path d="M30,85 L15,110 L45,110 L30,85" stroke-width="6" stroke="black" fill-opacity="0" />
<text x="-17" y="233.33333333333334" font-size="23.333333333333332" fill="black" text-anchor="middle" dy="0.3em"></text>
<text x="0" y="154" font-size="35" text-anchor="middle" dy="0.3em"></text>
<path d="M0,300 L0,200" stroke="black" stroke-width="5" />
<text x="250.0" y="-317" font-size="23.333333333333332" fill="black" text-anchor="middle" dy="0.3em"></text>
<text x="154" y="-300" font-size="35" text-anchor="middle" dy="0.3em"></text>
<path d="M300,-300 L200,-300" stroke="black" stroke-width="5" />
<text x="-250.0" y="-317" font-size="23.333333333333332" fill="black" text-anchor="middle" dy="0.3em"></text>
<text x="-154" y="-300" font-size="35" text-anchor="middle" dy="0.3em"></text>
<path d="M-300,-300 L-200,-300" stroke="black" stroke-width="5" />
<text x="-250.0" y="83" font-size="23.333333333333332" fill="black" text-anchor="middle" dy="0.3em"></text>
<text x="-154" y="100" font-size="35" text-anchor="middle" dy="0.3em"></text>
<path d="M-300,100 L-200,100" stroke="black" stroke-width="5" />
<text x="-250.0" y="-117" font-size="23.333333333333332" fill="black" text-anchor="middle" dy="0.3em"></text>
<text x="-154" y="-100" font-size="35" text-anchor="middle" dy="0.3em"></text>
<path d="M-300,-100 L-200,-100" stroke="black" stroke-width="5" />
<metadata width="600" height="750" symbolPrefix="Q" cmpPartDmgLabel="1:A" nameOfSymbol="Q-FDC6330L-1-A"><p-1><x>0</x><y>-300</y><type>P
                        </type><name>S1</name><orientation>U</orientation>
                        <length>100</length><pinShape></pinShape>
                        </p-1><p-2><x>300</x><y>300</y><type>P
                        </type><name>D2</name><orientation>L</orientation>
                        <length>100</length><pinShape>N</pinShape>
                        </p-2><p-3><x>300</x><y>300</y><type>P
                        </type><name>D2</name><orientation>L</orientation>
                        <length>100</length><pinShape></pinShape>
                        </p-3><p-4><x>-300</x><y>300</y><type>P
                        </type><name>S2</name><orientation>R</orientation>
                        <length>100</length><pinShape></pinShape>
                        </p-4><p-5><x>-300</x><y>-100</y><type>P
                        </type><name>G1</name><orientation>R</orientation>
                        <length>100</length><pinShape></pinShape>
                        </p-5><p-6><x>-300</x><y>100</y><type>P
                        </type><name>D1</name><orientation>R</orientation>
                        <length>100</length><pinShape></pinShape>
                        </p-6></metadata></svg>