<?xml version="1.0" encoding="UTF-8"?>
<svg xmlns="http://www.w3.org/2000/svg" xmlns:xlink="http://www.w3.org/1999/xlink"
     width="800" height="600" viewBox="-400.0 -300.0 800 600">
<defs>
</defs>
<path d="M-300,-200 L300,-200 L300,200 L-300,200 L-300,-200" stroke-width="10" stroke="black" fill-opacity="0" />
<path d="M-175,-100 L-150,-100 L-150,-150 L-125,-150 L-125,-100 L-100,-100 L-100,-150 L-75,-150 L-75,-100" stroke-width="6" stroke="black" fill-opacity="0" />
<text x="-350.0" y="-17" font-size="23.333333333333332" fill="black" text-anchor="middle" dy="0.3em"></text>
<text x="-189" y="0" font-size="35" text-anchor="middle" dy="0.3em"></text>
<path d="M-400,0 L-300,0" stroke="black" stroke-width="5" />
<text x="83" y="233.33333333333334" font-size="23.333333333333332" fill="black" text-anchor="middle" dy="0.3em"></text>
<text x="100" y="141" font-size="35" text-anchor="middle" dy="0.3em"></text>
<path d="M100,300 L100,200" stroke="black" stroke-width="5" />
<text x="350.0" y="-17" font-size="23.333333333333332" fill="black" text-anchor="middle" dy="0.3em"></text>
<text x="241" y="0" font-size="35" text-anchor="middle" dy="0.3em"></text>
<path d="M400,0 L300,0" stroke="black" stroke-width="5" />
<text x="83" y="-233.33333333333334" font-size="23.333333333333332" fill="black" text-anchor="middle" dy="0.3em"></text>
<text x="100" y="-141" font-size="35" text-anchor="middle" dy="0.3em"></text>
<path d="M100,-300 L100,-200" stroke="black" stroke-width="5" />
<metadata width="800" height="600" symbolPrefix="U" cmpPartDmgLabel="1:A" nameOfSymbol="U-ASDMB-xxxMHz-1-A"><p-1><x>-400</x><y>0</y><type>I
                        </type><name>Standby</name><orientation>R</orientation>
                        <length>100</length><pinShape></pinShape>
                        </p-1><p-2><x>100</x><y>-300</y><type>W
                        </type><name>GND</name><orientation>U</orientation>
                        <length>100</length><pinShape></pinShape>
                        </p-2><p-3><x>400</x><y>0</y><type>O
                        </type><name>Out</name><orientation>L</orientation>
                        <length>100</length><pinShape></pinShape>
                        </p-3><p-4><x>100</x><y>300</y><type>W
                        </type><name>VDD</name><orientation>D</orientation>
                        <length>100</length><pinShape></pinShape>
                        </p-4></metadata></svg>