<?xml version="1.0" encoding="UTF-8"?>
<svg xmlns="http://www.w3.org/2000/svg" xmlns:xlink="http://www.w3.org/1999/xlink"
     width="800" height="600" viewBox="-400.0 -300.0 800 600">
<defs>
</defs>
<path d="M-200,-200 L300,-200 L300,200 L-200,200 L-200,-200" stroke-width="10" stroke="black" fill-opacity="0" />
<path d="M25,25 L50,25 L50,-25 L75,-25 L75,25 L100,25 L100,-25 L125,-25" stroke-width="6" stroke="black" fill-opacity="0" />
<text x="-250.0" y="-17" font-size="23.333333333333332" fill="black" text-anchor="middle" dy="0.3em"></text>
<text x="-125" y="0" font-size="35" text-anchor="middle" dy="0.3em"></text>
<path d="M-300,0 L-200,0" stroke="black" stroke-width="5" />
<text x="-17" y="233.33333333333334" font-size="23.333333333333332" fill="black" text-anchor="middle" dy="0.3em"></text>
<text x="0" y="151" font-size="35" text-anchor="middle" dy="0.3em"></text>
<path d="M0,300 L0,200" stroke="black" stroke-width="5" />
<text x="350.0" y="-17" font-size="23.333333333333332" fill="black" text-anchor="middle" dy="0.3em"></text>
<text x="251" y="0" font-size="35" text-anchor="middle" dy="0.3em"></text>
<path d="M400,0 L300,0" stroke="black" stroke-width="5" />
<text x="-17" y="-233.33333333333334" font-size="23.333333333333332" fill="black" text-anchor="middle" dy="0.3em"></text>
<text x="0" y="-164" font-size="35" text-anchor="middle" dy="0.3em"></text>
<path d="M0,-300 L0,-200" stroke="black" stroke-width="5" />
<metadata width="800" height="600" symbolPrefix="X" cmpPartDmgLabel="1:A" nameOfSymbol="X-DFA-S11-1-A_thumbnail"><p-1><x>-300</x><y>0</y><type>I
                        </type><name>Vctrl</name><orientation>R</orientation>
                        <length>100</length><pinShape></pinShape>
                        </p-1><p-2><x>0</x><y>-300</y><type>W
                        </type><name>GND</name><orientation>U</orientation>
                        <length>100</length><pinShape></pinShape>
                        </p-2><p-3><x>400</x><y>0</y><type>O
                        </type><name>OUT</name><orientation>L</orientation>
                        <length>100</length><pinShape></pinShape>
                        </p-3><p-4><x>0</x><y>300</y><type>W
                        </type><name>V+</name><orientation>D</orientation>
                        <length>100</length><pinShape></pinShape>
                        </p-4></metadata></svg>