<?xml version="1.0" encoding="UTF-8"?>
<svg xmlns="http://www.w3.org/2000/svg" xmlns:xlink="http://www.w3.org/1999/xlink"
     width="1000" height="600" viewBox="-500.0 -300.0 1000 600">
<defs>
</defs>
<path d="M-400,-200 L200,-200 L200,200 L-400,200 L-400,-200" stroke-width="10" stroke="black" fill-opacity="0" />
<path d="M-275,-75 L-250,-75 L-250,-125 L-225,-125 L-225,-75 L-200,-75 L-200,-125 L-175,-125 L-175,-75" stroke-width="6" stroke="black" fill-opacity="0" />
<text x="-450.0" y="-17" font-size="23.333333333333332" fill="black" text-anchor="middle" dy="0.3em"></text>
<text x="-286" y="0" font-size="35" text-anchor="middle" dy="0.3em"></text>
<path d="M-500,0 L-400,0" stroke="black" stroke-width="5" />
<text x="-17" y="233.33333333333334" font-size="23.333333333333332" fill="black" text-anchor="middle" dy="0.3em"></text>
<text x="0" y="151" font-size="35" text-anchor="middle" dy="0.3em"></text>
<path d="M0,300 L0,200" stroke="black" stroke-width="5" />
<text x="250.0" y="-17" font-size="23.333333333333332" fill="black" text-anchor="middle" dy="0.3em"></text>
<text x="151" y="0" font-size="35" text-anchor="middle" dy="0.3em"></text>
<path d="M300,0 L200,0" stroke="black" stroke-width="5" />
<text x="-17" y="-233.33333333333334" font-size="23.333333333333332" fill="black" text-anchor="middle" dy="0.3em"></text>
<text x="0" y="-151" font-size="35" text-anchor="middle" dy="0.3em"></text>
<path d="M0,-300 L0,-200" stroke="black" stroke-width="5" />
<metadata width="1000" height="600" symbolPrefix="X" cmpPartDmgLabel="1:A" nameOfSymbol="X-VC-81-1-A_thumbnail"><p-1><x>-500</x><y>0</y><type>I
                        </type><name>Vcontrol</name><orientation>R</orientation>
                        <length>100</length><pinShape></pinShape>
                        </p-1><p-4><x>0</x><y>-300</y><type>W
                        </type><name>GND</name><orientation>U</orientation>
                        <length>100</length><pinShape></pinShape>
                        </p-4><p-5><x>300</x><y>0</y><type>O
                        </type><name>OUT</name><orientation>L</orientation>
                        <length>100</length><pinShape></pinShape>
                        </p-5><p-8><x>0</x><y>300</y><type>W
                        </type><name>Vcc</name><orientation>D</orientation>
                        <length>100</length><pinShape></pinShape>
                        </p-8></metadata></svg>