<?xml version="1.0" encoding="UTF-8"?>
<svg xmlns="http://www.w3.org/2000/svg" xmlns:xlink="http://www.w3.org/1999/xlink"
     width="420" height="400" viewBox="-210.0 -200.0 420 400">
<defs>
</defs>
<circle cx="-200" cy="120" r="10" stroke-width="6" stroke="black" fill="black" />
<circle cx="0" cy="0" r="10" stroke-width="6" stroke="black" fill="black" />
<path d="M-200,100 L-125,25" stroke-width="6" stroke="black" fill-opacity="0" />
<path d="M-200,-100 L-125,-25" stroke-width="6" stroke="black" fill-opacity="0" />
<path d="M-200,-100 L-125,-25" stroke-width="6" stroke="black" fill-opacity="0" />
<path d="M125,0 L-125,0" stroke-width="6" stroke="black" fill-opacity="0" />
<path d="M200,100 L125,25" stroke-width="6" stroke="black" fill-opacity="0" />
<path d="M200,-100 L125,-25" stroke-width="6" stroke="black" fill-opacity="0" />
<path d="M-125,75 L-125,-75 L-125,-75" stroke-width="20" stroke="black" fill="black" />
<path d="M0,0 L0,120 L-200,120" stroke-width="6" stroke="black" fill-opacity="0" />
<path d="M125,75 L125,-75 L125,-75" stroke-width="20" stroke="black" fill="black" />
<path d="M-155,-75 L-175,-55 L-135,-35 L-155,-75 L-155,-75" stroke-width="6" stroke="black" fill="black" />
<path d="M155,-75 L175,-55 L135,-35 L155,-75 L155,-75" stroke-width="6" stroke="black" fill="black" />
<text x="-217" y="133.33333333333334" font-size="23.333333333333332" fill="black" text-anchor="middle" dy="0.3em"></text>
<text x="-200" y="74" font-size="35" text-anchor="middle" dy="0.3em"></text>
<path d="M-200,200 L-200,100" stroke="black" stroke-width="5" />
<text x="183" y="133.33333333333334" font-size="23.333333333333332" fill="black" text-anchor="middle" dy="0.3em"></text>
<text x="200" y="74" font-size="35" text-anchor="middle" dy="0.3em"></text>
<path d="M200,200 L200,100" stroke="black" stroke-width="5" />
<text x="183" y="-133.33333333333334" font-size="23.333333333333332" fill="black" text-anchor="middle" dy="0.3em"></text>
<text x="200" y="-74" font-size="35" text-anchor="middle" dy="0.3em"></text>
<path d="M200,-200 L200,-100" stroke="black" stroke-width="5" />
<text x="-217" y="-133.33333333333334" font-size="23.333333333333332" fill="black" text-anchor="middle" dy="0.3em"></text>
<text x="-200" y="-74" font-size="35" text-anchor="middle" dy="0.3em"></text>
<path d="M-200,-200 L-200,-100" stroke="black" stroke-width="5" />
<metadata width="420" height="400" symbolPrefix="Q" cmpPartDmgLabel="1:A" nameOfSymbol="Q-BCV62-1-A_thumbnail"><p-1><x>-200</x><y>-200</y><type>P
                        </type><name>C2</name><orientation>U</orientation>
                        <length>100</length><pinShape></pinShape>
                        </p-1><p-2><x>200</x><y>-200</y><type>P
                        </type><name>C1</name><orientation>U</orientation>
                        <length>100</length><pinShape></pinShape>
                        </p-2><p-3><x>200</x><y>200</y><type>P
                        </type><name>E1</name><orientation>D</orientation>
                        <length>100</length><pinShape></pinShape>
                        </p-3><p-4><x>-200</x><y>200</y><type>P
                        </type><name>E2</name><orientation>D</orientation>
                        <length>100</length><pinShape></pinShape>
                        </p-4></metadata></svg>