<?xml version="1.0" encoding="UTF-8"?>
<svg xmlns="http://www.w3.org/2000/svg" xmlns:xlink="http://www.w3.org/1999/xlink"
     width="800" height="600" viewBox="-400.0 -300.0 800 600">
<defs>
</defs>
<path d="M-199.9999619228322,0.04363320914745194 A25,25,0,0,0,-150.0000380771678,0.04363320914746113" stroke="black" stroke-width="10" fill-opacity="0" />
<path d="M-100.0000380771678,-0.04363320914745772 A25,25,0,0,0,-149.9999619228322,-0.043633209147458066" stroke="black" stroke-width="10" fill-opacity="0" />
<path d="M-99.9999619228322,0.04363320914745194 A25,25,0,0,0,-50.00003807716781,0.04363320914746113" stroke="black" stroke-width="10" fill-opacity="0" />
<path d="M-3.807716780812598e-05,-0.04363320914745772 A25,25,0,0,0,-49.99996192283219,-0.043633209147458066" stroke="black" stroke-width="10" fill-opacity="0" />
<path d="M-300,-200 L300,-200 L300,200 L-300,200 L-300,-200" stroke-width="10" stroke="black" fill-opacity="0" />
<text x="-350.0" y="-117" font-size="23.333333333333332" fill="black" text-anchor="middle" dy="0.3em"></text>
<text x="-228" y="-100" font-size="35" text-anchor="middle" dy="0.3em"></text>
<path d="M-400,-100 L-300,-100" stroke="black" stroke-width="5" />
<text x="-17" y="-233.33333333333334" font-size="23.333333333333332" fill="black" text-anchor="middle" dy="0.3em"></text>
<text x="0" y="-154" font-size="35" text-anchor="middle" dy="0.3em"></text>
<path d="M0,-300 L0,-200" stroke="black" stroke-width="5" />
<text x="350.0" y="-17" font-size="23.333333333333332" fill="black" text-anchor="middle" dy="0.3em"></text>
<text x="254" y="0" font-size="35" text-anchor="middle" dy="0.3em"></text>
<path d="M400,0 L300,0" stroke="black" stroke-width="5" />
<text x="-17" y="233.33333333333334" font-size="23.333333333333332" fill="black" text-anchor="middle" dy="0.3em"></text>
<text x="0" y="141" font-size="35" text-anchor="middle" dy="0.3em"></text>
<path d="M0,300 L0,200" stroke="black" stroke-width="5" />
<text x="-350.0" y="83" font-size="23.333333333333332" fill="black" text-anchor="middle" dy="0.3em"></text>
<text x="-241" y="100" font-size="35" text-anchor="middle" dy="0.3em"></text>
<path d="M-400,100 L-300,100" stroke="black" stroke-width="5" />
<metadata width="800" height="600" symbolPrefix="U" cmpPartDmgLabel="1:A" nameOfSymbol="U-MV267-1-A"><p-1><x>-400</x><y>100</y><type>O
                        </type><name>Uref</name><orientation>R</orientation>
                        <length>100</length><pinShape></pinShape>
                        </p-1><p-2><x>0</x><y>300</y><type>W
                        </type><name>Us</name><orientation>D</orientation>
                        <length>100</length><pinShape></pinShape>
                        </p-2><p-3><x>400</x><y>0</y><type>O
                        </type><name>RF</name><orientation>L</orientation>
                        <length>100</length><pinShape></pinShape>
                        </p-3><p-4><x>0</x><y>-300</y><type>W
                        </type><name>GND</name><orientation>U</orientation>
                        <length>100</length><pinShape></pinShape>
                        </p-4><p-5><x>-400</x><y>-100</y><type>I
                        </type><name>Uin</name><orientation>R</orientation>
                        <length>100</length><pinShape></pinShape>
                        </p-5></metadata></svg>